{"glyphs":{"0":{"ha":572,"x_min":36,"x_max":536,"o":"m 285 10 l 285 10 q 198 10 143 -33 q 88 -77 62 -159 q 36 -241 36 -356 l 36 -356 q 36 -472 61 -554 q 85 -636 141 -680 q 196 -725 286 -725 l 286 -725 q 373 -725 428 -681 q 483 -638 510 -556 q 536 -474 536 -358 l 536 -358 q 536 -272 522 -204 q 508 -136 479 -88 q 449 -40 401 -15 q 353 10 285 10 z m 285 -123 l 285 -123 q 309 -123 325 -137 q 341 -152 351 -181 q 360 -211 364 -255 q 368 -299 368 -357 l 368 -357 q 368 -415 364 -459 q 360 -503 351 -532 q 341 -562 325 -576 q 309 -591 285 -591 l 285 -591 q 262 -591 246 -576 q 230 -562 221 -532 q 211 -503 207 -459 q 203 -415 203 -357 l 203 -357 q 203 -299 207 -255 q 211 -211 221 -182 q 230 -153 246 -138 q 262 -123 285 -123 z"},"1":{"ha":572,"x_min":49,"x_max":432,"o":"m 432 -714 l 432 0 l 262 0 l 262 -386 q 262 -418 263 -460 q 264 -502 265 -535 l 265 -535 q 256 -525 241 -509 q 226 -494 211 -482 l 211 -482 l 133 -418 l 49 -525 l 284 -714 l 432 -714 z"},"2":{"ha":572,"x_min":29,"x_max":537,"o":"m 537 0 l 34 0 l 34 -115 l 217 -303 q 267 -353 297 -387 q 326 -422 339 -450 q 352 -478 352 -509 l 352 -509 q 352 -535 343 -551 q 333 -567 315 -576 q 297 -585 273 -585 l 273 -585 q 235 -585 198 -565 q 160 -545 120 -511 l 120 -511 l 29 -618 q 62 -647 100 -671 q 137 -695 184 -709 q 230 -724 291 -724 l 291 -724 q 363 -724 415 -698 q 466 -672 494 -628 q 521 -585 521 -530 l 521 -530 q 521 -470 499 -422 q 476 -374 433 -326 q 389 -279 326 -218 l 326 -218 l 249 -145 l 249 -139 l 537 -139 l 537 0 z"},"3":{"ha":572,"x_min":34,"x_max":531,"o":"m 241 10 l 241 10 q 180 10 130 0 q 80 -10 36 -28 l 36 -28 l 36 -167 q 80 -144 129 -133 q 178 -122 223 -122 l 223 -122 q 296 -122 327 -146 q 357 -171 357 -216 l 357 -216 q 357 -244 343 -263 q 329 -283 294 -293 q 259 -303 196 -303 l 196 -303 l 146 -303 l 146 -429 l 197 -429 q 257 -429 290 -440 q 322 -452 335 -472 q 347 -492 347 -518 l 347 -518 q 347 -553 324 -572 q 301 -591 254 -591 l 254 -591 q 208 -591 172 -575 q 135 -560 107 -542 l 107 -542 l 34 -653 q 82 -683 139 -703 q 195 -724 272 -724 l 272 -724 q 346 -724 400 -703 q 454 -683 483 -643 q 512 -604 512 -549 l 512 -549 q 512 -501 492 -466 q 472 -432 439 -409 q 405 -387 362 -376 l 362 -376 l 362 -373 q 443 -362 487 -320 q 531 -279 531 -207 l 531 -207 q 531 -146 500 -96 q 469 -47 405 -18 q 341 10 241 10 z"},"4":{"ha":572,"x_min":17,"x_max":557,"o":"m 476 0 l 311 0 l 311 -144 l 17 -144 l 17 -264 l 318 -714 l 476 -714 l 476 -271 l 557 -271 l 557 -144 l 476 -144 l 476 0 z m 267 -427 l 166 -271 l 311 -271 l 311 -372 q 311 -395 312 -421 q 312 -448 314 -471 q 315 -495 316 -508 l 316 -508 l 312 -508 q 303 -489 293 -470 q 283 -451 267 -427 l 267 -427 z"},"5":{"ha":572,"x_min":48,"x_max":529,"o":"m 243 10 l 243 10 q 185 10 136 1 q 87 -9 48 -28 l 48 -28 l 48 -168 q 87 -149 136 -136 q 184 -124 231 -124 l 231 -124 q 274 -124 302 -135 q 330 -146 345 -169 q 359 -192 359 -228 l 359 -228 q 359 -278 327 -304 q 294 -330 231 -330 l 231 -330 q 202 -330 175 -324 q 148 -319 126 -313 l 126 -313 l 62 -346 l 90 -714 l 483 -714 l 483 -574 l 235 -574 l 222 -450 q 241 -454 259 -457 q 277 -460 310 -460 l 310 -460 q 371 -460 421 -435 q 470 -410 500 -361 q 529 -312 529 -238 l 529 -238 q 529 -160 497 -104 q 464 -49 401 -19 q 337 10 243 10 z"},"6":{"ha":572,"x_min":32,"x_max":542,"o":"m 296 10 l 296 10 q 240 10 192 -9 q 144 -28 108 -66 q 72 -105 52 -165 q 32 -225 32 -307 l 32 -307 q 32 -367 41 -426 q 50 -486 73 -539 q 95 -593 136 -634 q 177 -675 241 -699 q 304 -723 394 -723 l 394 -723 q 418 -723 445 -721 q 471 -720 493 -715 l 493 -715 l 493 -582 q 471 -587 448 -589 q 424 -592 399 -592 l 399 -592 q 320 -592 275 -566 q 229 -541 210 -494 q 190 -448 188 -387 l 188 -387 l 194 -387 q 207 -411 227 -429 q 247 -448 276 -459 q 304 -470 342 -470 l 342 -470 q 404 -470 449 -443 q 494 -416 518 -365 q 542 -314 542 -241 l 542 -241 q 542 -162 512 -105 q 482 -49 427 -19 q 372 10 296 10 z m 292 -123 l 292 -123 q 331 -123 355 -150 q 378 -178 378 -237 l 378 -237 q 378 -287 358 -314 q 337 -342 295 -342 l 295 -342 q 266 -342 245 -329 q 224 -316 212 -295 q 200 -274 200 -250 l 200 -250 q 200 -225 206 -202 q 212 -180 224 -162 q 236 -144 253 -133 q 270 -123 292 -123 z"},"7":{"ha":572,"x_min":27,"x_max":540,"o":"m 279 0 l 101 0 l 360 -574 l 27 -574 l 27 -713 l 540 -713 l 540 -611 l 279 0 z"},"8":{"ha":572,"x_min":32,"x_max":540,"o":"m 286 11 l 286 11 q 201 11 145 -13 q 88 -37 60 -81 q 32 -125 32 -184 l 32 -184 q 32 -232 49 -267 q 66 -302 97 -327 q 127 -353 166 -373 l 166 -373 q 135 -393 109 -418 q 83 -444 68 -476 q 52 -509 52 -551 l 52 -551 q 52 -608 84 -646 q 115 -685 169 -704 q 222 -723 287 -723 l 287 -723 q 353 -723 405 -704 q 457 -685 488 -646 q 519 -608 519 -551 l 519 -551 q 519 -506 502 -473 q 485 -441 457 -417 q 428 -394 392 -376 l 392 -376 q 430 -356 464 -330 q 497 -304 519 -269 q 540 -235 540 -188 l 540 -188 q 540 -129 511 -84 q 481 -39 424 -14 q 367 11 286 11 z m 284 -112 l 284 -112 q 333 -112 356 -134 q 379 -156 379 -189 l 379 -189 q 379 -212 368 -230 q 357 -249 338 -264 q 319 -280 296 -294 l 296 -294 l 281 -303 q 254 -289 234 -272 q 213 -255 203 -236 q 192 -217 192 -192 l 192 -192 q 192 -157 215 -134 q 238 -112 284 -112 z m 287 -446 l 287 -446 q 306 -457 322 -469 q 338 -481 348 -497 q 358 -514 358 -537 l 358 -537 q 358 -567 338 -584 q 317 -601 285 -601 l 285 -601 q 253 -601 234 -584 q 214 -567 214 -536 l 214 -536 q 214 -516 224 -499 q 233 -483 250 -470 q 266 -458 287 -446 z"},"9":{"ha":572,"x_min":30,"x_max":539,"o":"m 178 10 l 178 10 q 153 10 127 9 q 100 7 77 3 l 77 3 l 77 -130 q 100 -126 124 -123 q 147 -121 172 -121 l 172 -121 q 232 -121 272 -135 q 312 -150 336 -177 q 360 -205 372 -243 q 383 -281 385 -326 l 385 -326 l 379 -326 q 367 -302 348 -283 q 328 -264 299 -253 q 270 -243 227 -243 l 227 -243 q 167 -243 123 -270 q 78 -297 54 -348 q 30 -399 30 -472 l 30 -472 q 30 -551 60 -607 q 90 -663 146 -693 q 201 -723 275 -723 l 275 -723 q 331 -723 380 -704 q 428 -685 464 -645 q 499 -606 519 -544 q 539 -483 539 -399 l 539 -399 q 539 -342 530 -283 q 521 -224 499 -171 q 476 -119 436 -78 q 395 -37 332 -13 q 268 10 178 10 z m 278 -371 l 278 -371 q 308 -371 329 -385 q 349 -399 360 -420 q 371 -441 371 -464 l 371 -464 q 371 -488 366 -510 q 360 -532 349 -550 q 337 -569 320 -579 q 303 -590 279 -590 l 279 -590 q 240 -590 217 -563 q 193 -536 193 -478 l 193 -478 q 193 -429 214 -400 q 234 -371 278 -371 z"},"\r":{"ha":309,"x_min":0,"x_max":0,"o":""}," ":{"ha":309,"x_min":0,"x_max":0,"o":""},"ഀ":{"ha":0,"x_min":-455,"x_max":-100,"o":"m -455 -711 l -455 -711 q -455 -777 -407 -820 q -360 -864 -278 -864 l -278 -864 q -195 -864 -147 -820 q -100 -777 -100 -711 l -100 -711 q -100 -646 -146 -601 q -193 -557 -278 -557 l -278 -557 q -362 -557 -408 -601 q -455 -646 -455 -711 z m -340 -711 l -340 -711 q -340 -687 -325 -669 q -311 -651 -278 -651 l -278 -651 q -245 -651 -230 -670 q -215 -689 -215 -712 l -215 -712 q -215 -736 -231 -753 q -248 -771 -278 -771 l -278 -771 q -310 -771 -325 -753 q -340 -735 -340 -711 z"},"ഁ":{"ha":0,"x_min":-481,"x_max":-76,"o":"m -278 -634 l -278 -634 q -383 -634 -432 -680 q -481 -727 -481 -802 l -481 -802 q -481 -822 -478 -837 q -476 -852 -472 -864 l -472 -864 l -375 -844 q -378 -834 -379 -825 q -380 -816 -380 -808 l -380 -808 q -380 -776 -366 -758 q -353 -741 -330 -733 q -307 -726 -278 -726 l -278 -726 q -253 -726 -229 -733 q -206 -740 -191 -758 q -177 -776 -177 -810 l -177 -810 q -177 -818 -178 -826 q -179 -834 -182 -844 l -182 -844 l -84 -863 q -80 -851 -78 -836 q -76 -821 -76 -803 l -76 -803 q -76 -726 -125 -680 q -174 -634 -278 -634 z m -279 -750 l -279 -750 q -314 -750 -328 -765 q -343 -781 -343 -807 l -343 -807 q -343 -830 -329 -846 q -315 -862 -279 -862 l -279 -862 q -242 -862 -228 -846 q -214 -830 -214 -806 l -214 -806 q -214 -781 -228 -765 q -243 -750 -279 -750 z"},"ം":{"ha":516,"x_min":28,"x_max":488,"o":"m 258 12 l 258 12 q 186 12 135 -12 q 83 -37 56 -81 q 28 -125 28 -182 l 28 -182 q 28 -240 57 -284 q 85 -328 137 -352 q 188 -377 257 -377 l 257 -377 q 328 -377 380 -352 q 431 -328 460 -285 q 488 -242 488 -182 l 488 -182 q 488 -123 460 -79 q 432 -36 381 -12 q 329 12 258 12 z m 257 -264 l 257 -264 q 224 -264 202 -243 q 180 -223 180 -181 l 180 -181 q 180 -142 202 -121 q 224 -100 258 -100 l 258 -100 q 291 -100 314 -120 q 337 -141 337 -182 l 337 -182 q 337 -223 314 -243 q 291 -264 257 -264 z"},"ഃ":{"ha":375,"x_min":29,"x_max":346,"o":"m 29 -438 l 29 -438 q 29 -498 72 -537 q 114 -577 187 -577 l 187 -577 q 260 -577 303 -538 q 346 -499 346 -438 l 346 -438 q 346 -380 304 -340 q 262 -300 187 -300 l 187 -300 q 113 -300 71 -340 q 29 -380 29 -438 z m 137 -439 l 137 -439 q 137 -418 150 -404 q 163 -390 187 -390 l 187 -390 q 212 -390 225 -404 q 238 -419 238 -439 l 238 -439 q 238 -461 225 -474 q 211 -487 187 -487 l 187 -487 q 164 -487 151 -473 q 137 -460 137 -439 z m 29 -127 l 29 -127 q 29 -185 72 -225 q 114 -266 187 -266 l 187 -266 q 260 -266 303 -226 q 346 -186 346 -127 l 346 -127 q 346 -68 304 -28 q 262 12 187 12 l 187 12 q 113 12 71 -28 q 29 -68 29 -127 z m 137 -128 l 137 -128 q 137 -106 150 -92 q 163 -79 187 -79 l 187 -79 q 212 -79 225 -92 q 238 -106 238 -128 l 238 -128 q 238 -148 225 -161 q 211 -175 187 -175 l 187 -175 q 164 -175 151 -161 q 137 -148 137 -128 z"},"ഄ":{"ha":656,"x_min":31,"x_max":625,"o":"m 49 -347 l 49 -347 l 199 -322 q 193 -300 190 -275 q 187 -251 187 -231 l 187 -231 q 187 -168 223 -137 q 258 -107 327 -107 l 327 -107 q 398 -107 434 -137 q 469 -168 469 -230 l 469 -230 q 469 -250 466 -275 q 463 -300 457 -322 l 457 -322 l 606 -347 q 614 -324 620 -291 q 625 -258 625 -226 l 625 -226 q 625 -156 598 -103 q 570 -50 505 -20 q 440 9 327 9 l 327 9 q 216 9 151 -20 q 86 -50 59 -103 q 31 -156 31 -226 l 31 -226 q 31 -259 37 -291 q 42 -324 49 -347 z m 267 -190 l 267 -422 l 390 -422 l 390 -190 l 267 -190 z"},"അ":{"ha":1693,"x_min":36,"x_max":1659,"o":"m 415 -577 l 415 -577 q 475 -577 531 -569 q 586 -561 643 -540 l 643 -540 q 656 -536 664 -527 q 672 -518 684 -513 l 684 -513 q 721 -501 753 -481 q 784 -462 804 -435 q 823 -408 823 -373 l 823 -373 q 823 -347 815 -326 q 806 -305 786 -287 q 766 -270 733 -255 l 733 -255 l 731 -268 q 780 -250 807 -218 q 834 -187 834 -138 l 834 -138 q 834 -99 813 -65 q 792 -31 742 -9 q 691 12 603 12 l 603 12 q 506 12 446 -21 q 386 -55 359 -112 q 331 -169 331 -239 l 331 -239 q 331 -300 351 -351 q 371 -402 410 -443 q 449 -485 507 -516 l 507 -516 q 516 -521 525 -528 q 533 -535 543 -539 l 543 -539 q 587 -558 640 -567 q 693 -577 750 -577 l 750 -577 q 819 -577 868 -564 q 916 -552 952 -529 q 988 -507 1020 -476 l 1020 -476 l 1092 -207 l 1092 0 l 926 0 l 926 -243 q 926 -314 915 -359 q 903 -405 868 -433 l 868 -433 q 847 -450 818 -458 q 789 -467 750 -467 l 750 -467 q 723 -467 698 -463 q 673 -460 652 -455 l 652 -455 q 612 -445 581 -424 q 549 -404 528 -375 q 507 -346 496 -312 q 485 -278 485 -242 l 485 -242 q 485 -166 516 -133 q 546 -101 598 -101 l 598 -101 q 636 -101 656 -113 q 675 -126 675 -151 l 675 -151 q 675 -174 655 -187 q 635 -200 594 -200 l 594 -200 l 562 -200 l 562 -314 l 583 -314 q 627 -314 646 -330 q 664 -346 664 -371 l 664 -371 q 664 -401 637 -421 q 610 -442 545 -452 l 545 -452 q 517 -458 488 -462 q 458 -466 422 -466 l 422 -466 q 345 -466 297 -442 q 248 -418 226 -376 q 204 -335 204 -281 l 204 -281 q 204 -238 215 -202 q 226 -166 248 -133 q 270 -101 302 -66 l 302 -66 l 186 12 q 142 -26 109 -68 q 75 -111 56 -163 q 36 -216 36 -282 l 36 -282 q 36 -335 55 -387 q 74 -439 117 -482 q 160 -525 234 -551 q 307 -577 415 -577 z m 1407 12 l 1407 12 q 1326 12 1276 -18 q 1225 -48 1202 -97 q 1178 -147 1178 -206 l 1178 -206 q 1178 -298 1231 -354 q 1284 -410 1382 -410 l 1382 -410 q 1443 -410 1489 -380 q 1535 -350 1563 -303 q 1590 -256 1593 -204 l 1593 -204 l 1530 -205 q 1525 -230 1511 -252 q 1496 -274 1474 -288 q 1452 -303 1422 -303 l 1422 -303 q 1379 -303 1359 -277 q 1339 -251 1339 -203 l 1339 -203 q 1339 -172 1347 -149 q 1355 -127 1372 -115 q 1388 -104 1412 -104 l 1412 -104 q 1439 -104 1458 -118 q 1477 -132 1487 -162 q 1497 -193 1497 -240 l 1497 -240 q 1497 -255 1496 -272 q 1494 -290 1491 -306 l 1491 -306 q 1490 -311 1492 -317 q 1494 -324 1492 -328 l 1492 -328 q 1487 -364 1460 -393 q 1433 -423 1388 -441 q 1342 -460 1277 -460 l 1277 -460 q 1231 -460 1202 -451 q 1173 -443 1150 -425 l 1150 -425 q 1129 -409 1116 -384 q 1103 -359 1098 -324 q 1092 -290 1092 -241 l 1092 -241 l 1092 -185 l 983 -461 q 1014 -492 1053 -518 q 1091 -545 1146 -561 q 1201 -577 1279 -577 l 1279 -577 q 1372 -577 1444 -550 q 1515 -523 1563 -476 q 1611 -429 1635 -367 q 1659 -306 1659 -237 l 1659 -237 q 1659 -154 1629 -98 q 1599 -43 1543 -15 q 1487 12 1407 12 z"},"ആ":{"ha":1872,"x_min":36,"x_max":1846,"o":"m 415 -577 l 415 -577 q 475 -577 531 -569 q 586 -561 643 -540 l 643 -540 q 656 -536 664 -527 q 672 -518 684 -513 l 684 -513 q 721 -501 753 -481 q 784 -462 804 -435 q 823 -408 823 -373 l 823 -373 q 823 -347 815 -326 q 806 -305 786 -287 q 766 -270 733 -255 l 733 -255 l 731 -268 q 780 -250 807 -218 q 834 -187 834 -138 l 834 -138 q 834 -99 813 -65 q 792 -31 742 -9 q 691 12 603 12 l 603 12 q 506 12 446 -21 q 386 -55 359 -112 q 331 -169 331 -239 l 331 -239 q 331 -300 351 -351 q 371 -402 410 -443 q 449 -485 507 -516 l 507 -516 q 516 -521 525 -528 q 533 -535 543 -539 l 543 -539 q 587 -558 640 -567 q 693 -577 750 -577 l 750 -577 q 819 -577 868 -564 q 916 -552 952 -529 q 988 -507 1020 -476 l 1020 -476 l 1092 -222 l 1092 0 l 926 0 l 926 -243 q 926 -314 915 -359 q 903 -405 868 -433 l 868 -433 q 847 -450 818 -458 q 789 -467 750 -467 l 750 -467 q 723 -467 698 -463 q 673 -460 652 -455 l 652 -455 q 612 -445 581 -424 q 549 -404 528 -375 q 507 -346 496 -312 q 485 -278 485 -242 l 485 -242 q 485 -166 516 -133 q 546 -101 598 -101 l 598 -101 q 636 -101 656 -113 q 675 -126 675 -151 l 675 -151 q 675 -174 655 -187 q 635 -200 594 -200 l 594 -200 l 562 -200 l 562 -314 l 583 -314 q 627 -314 646 -330 q 664 -346 664 -371 l 664 -371 q 664 -401 637 -421 q 610 -442 545 -452 l 545 -452 q 517 -458 488 -462 q 458 -466 422 -466 l 422 -466 q 345 -466 297 -442 q 248 -418 226 -376 q 204 -335 204 -281 l 204 -281 q 204 -238 215 -202 q 226 -166 248 -133 q 270 -101 302 -66 l 302 -66 l 186 12 q 142 -26 109 -68 q 75 -111 56 -163 q 36 -216 36 -282 l 36 -282 q 36 -335 55 -387 q 74 -439 117 -482 q 160 -525 234 -551 q 307 -577 415 -577 z m 1271 -577 l 1271 -577 q 1362 -577 1435 -548 q 1507 -520 1555 -465 q 1602 -411 1620 -334 l 1620 -334 q 1626 -310 1629 -284 q 1632 -259 1632 -230 l 1632 -230 q 1632 -147 1605 -93 q 1577 -39 1523 -13 q 1469 12 1389 12 l 1389 12 q 1316 12 1266 -13 q 1216 -39 1190 -83 q 1163 -127 1163 -185 l 1163 -185 q 1163 -291 1242 -348 q 1320 -406 1460 -406 l 1460 -406 q 1483 -406 1501 -405 q 1518 -404 1534 -402 l 1534 -402 l 1574 -399 q 1660 -385 1721 -344 q 1781 -303 1814 -241 q 1846 -179 1846 -102 l 1846 -102 q 1846 -42 1828 13 q 1809 67 1768 110 q 1726 152 1659 177 q 1592 201 1494 201 l 1494 201 q 1445 201 1398 194 q 1351 187 1312 174 l 1312 174 l 1356 63 q 1390 73 1421 78 q 1451 82 1489 82 l 1489 82 q 1549 82 1588 65 q 1627 48 1649 21 q 1670 -7 1679 -39 q 1687 -72 1687 -103 l 1687 -103 q 1687 -151 1675 -185 q 1662 -220 1639 -244 q 1615 -269 1582 -282 l 1582 -282 l 1545 -289 q 1529 -293 1510 -294 q 1491 -296 1470 -296 l 1470 -296 q 1419 -296 1386 -281 q 1353 -267 1338 -241 q 1323 -215 1323 -181 l 1323 -181 q 1323 -157 1331 -138 q 1339 -120 1355 -110 q 1371 -101 1394 -101 l 1394 -101 q 1435 -101 1457 -130 q 1478 -160 1478 -231 l 1478 -231 q 1478 -261 1474 -288 q 1469 -316 1460 -339 l 1460 -339 l 1448 -375 q 1431 -402 1405 -421 q 1379 -440 1345 -450 q 1311 -460 1265 -460 l 1265 -460 q 1227 -460 1200 -451 q 1172 -443 1149 -425 l 1149 -425 q 1128 -409 1116 -384 q 1103 -360 1098 -325 q 1092 -290 1092 -240 l 1092 -240 l 1092 -211 l 983 -461 q 1013 -492 1052 -518 q 1090 -545 1144 -561 q 1197 -577 1271 -577 z"},"ഇ":{"ha":1081,"x_min":35,"x_max":1045,"o":"m 367 -577 l 367 -577 q 436 -577 484 -564 q 532 -552 565 -531 q 598 -510 625 -485 l 625 -485 l 577 -491 q 614 -536 668 -556 q 721 -577 784 -577 l 784 -577 q 851 -577 901 -555 q 950 -534 982 -497 q 1013 -460 1029 -412 q 1045 -364 1045 -311 l 1045 -311 q 1045 -223 1020 -163 q 995 -104 947 -66 l 947 -66 q 918 -43 880 -28 q 842 -14 789 -7 q 735 0 659 0 l 659 0 l 311 0 q 272 0 255 2 q 238 4 228 9 l 228 9 q 217 14 212 22 q 207 30 207 41 l 207 41 q 207 51 211 59 q 215 67 223 73 l 223 73 q 234 80 252 83 q 270 86 311 86 l 311 86 l 1024 86 l 1024 203 l 295 203 q 232 203 188 196 q 143 188 111 170 l 111 170 q 78 151 60 120 q 41 89 41 47 l 41 47 q 41 6 57 -25 q 73 -56 104 -77 l 104 -77 q 125 -90 151 -98 q 176 -107 211 -111 q 246 -115 294 -115 l 294 -115 l 619 -115 q 684 -115 725 -121 q 765 -127 790 -139 q 815 -151 833 -168 l 833 -168 q 859 -192 868 -226 q 877 -261 877 -302 l 877 -302 q 877 -344 866 -380 q 854 -416 830 -438 q 805 -461 765 -461 l 765 -461 q 746 -461 730 -454 q 713 -448 702 -433 l 702 -433 q 689 -419 684 -394 q 678 -370 678 -322 l 678 -322 l 678 -153 l 515 -153 l 515 -287 q 515 -348 504 -381 q 492 -415 470 -433 l 470 -433 q 452 -448 425 -456 q 398 -464 355 -464 l 355 -464 q 327 -464 301 -460 q 274 -456 251 -447 q 228 -439 210 -425 q 192 -412 181 -393 l 181 -393 q 176 -385 175 -375 q 174 -365 172 -356 l 172 -356 q 171 -348 170 -337 q 169 -326 169 -313 l 169 -313 q 169 -275 186 -253 q 203 -232 232 -232 l 232 -232 q 261 -232 275 -248 q 288 -265 288 -288 l 288 -288 q 288 -305 282 -317 q 275 -329 263 -335 q 250 -342 231 -342 l 231 -342 q 203 -342 181 -333 q 158 -325 133 -313 l 133 -313 l 64 -338 q 82 -358 115 -379 q 147 -401 186 -416 q 225 -431 264 -431 l 264 -431 q 324 -431 362 -411 q 400 -392 419 -359 q 437 -327 437 -288 l 437 -288 q 437 -246 418 -210 q 398 -175 354 -153 q 309 -132 235 -132 l 235 -132 q 177 -132 132 -155 q 86 -178 61 -221 q 35 -265 35 -327 l 35 -327 q 35 -395 73 -451 q 111 -508 186 -542 q 260 -577 367 -577 z"},"ഈ":{"ha":1932,"x_min":35,"x_max":1896,"o":"m 367 -577 l 367 -577 q 436 -577 484 -564 q 532 -552 565 -531 q 598 -510 625 -485 l 625 -485 l 577 -491 q 614 -536 668 -556 q 721 -577 784 -577 l 784 -577 q 851 -577 901 -555 q 950 -534 982 -497 q 1013 -460 1029 -412 q 1045 -364 1045 -311 l 1045 -311 q 1045 -223 1020 -163 q 995 -104 947 -66 l 947 -66 q 918 -43 880 -28 q 842 -14 789 -7 q 735 0 659 0 l 659 0 l 311 0 q 272 0 255 2 q 238 4 228 9 l 228 9 q 217 14 212 22 q 207 30 207 41 l 207 41 q 207 51 211 59 q 215 67 223 73 l 223 73 q 234 80 252 83 q 270 86 311 86 l 311 86 l 1024 86 l 1024 203 l 295 203 q 232 203 188 196 q 143 188 111 170 l 111 170 q 78 151 60 120 q 41 89 41 47 l 41 47 q 41 6 57 -25 q 73 -56 104 -77 l 104 -77 q 125 -90 151 -98 q 176 -107 211 -111 q 246 -115 294 -115 l 294 -115 l 619 -115 q 684 -115 725 -121 q 765 -127 790 -139 q 815 -151 833 -168 l 833 -168 q 859 -192 868 -226 q 877 -261 877 -302 l 877 -302 q 877 -344 866 -380 q 854 -416 830 -438 q 805 -461 765 -461 l 765 -461 q 746 -461 730 -454 q 713 -448 702 -433 l 702 -433 q 689 -419 684 -394 q 678 -370 678 -322 l 678 -322 l 678 -153 l 515 -153 l 515 -287 q 515 -348 504 -381 q 492 -415 470 -433 l 470 -433 q 452 -448 425 -456 q 398 -464 355 -464 l 355 -464 q 327 -464 301 -460 q 274 -456 251 -447 q 228 -439 210 -425 q 192 -412 181 -393 l 181 -393 q 176 -385 175 -375 q 174 -365 172 -356 l 172 -356 q 171 -348 170 -337 q 169 -326 169 -313 l 169 -313 q 169 -275 186 -253 q 203 -232 232 -232 l 232 -232 q 261 -232 275 -248 q 288 -265 288 -288 l 288 -288 q 288 -305 282 -317 q 275 -329 263 -335 q 250 -342 231 -342 l 231 -342 q 203 -342 181 -333 q 158 -325 133 -313 l 133 -313 l 64 -338 q 82 -358 115 -379 q 147 -401 186 -416 q 225 -431 264 -431 l 264 -431 q 324 -431 362 -411 q 400 -392 419 -359 q 437 -327 437 -288 l 437 -288 q 437 -246 418 -210 q 398 -175 354 -153 q 309 -132 235 -132 l 235 -132 q 177 -132 132 -155 q 86 -178 61 -221 q 35 -265 35 -327 l 35 -327 q 35 -395 73 -451 q 111 -508 186 -542 q 260 -577 367 -577 z m 1655 -577 l 1655 -577 q 1731 -577 1785 -544 q 1838 -512 1867 -451 q 1896 -391 1896 -308 l 1896 -308 q 1896 -208 1860 -136 q 1824 -64 1753 -26 q 1682 12 1576 12 l 1576 12 q 1492 12 1430 -2 q 1368 -17 1313 -45 l 1313 -45 l 1372 -154 q 1422 -128 1464 -117 q 1506 -106 1559 -106 l 1559 -106 q 1622 -106 1659 -129 q 1696 -153 1712 -198 q 1728 -243 1728 -306 l 1728 -306 q 1728 -386 1704 -424 q 1680 -462 1643 -462 l 1643 -462 q 1626 -462 1614 -455 q 1602 -449 1595 -438 l 1595 -438 q 1587 -425 1584 -407 q 1581 -389 1581 -354 l 1581 -354 l 1581 -265 l 1417 -265 l 1417 -339 q 1417 -376 1414 -401 q 1410 -426 1400 -438 l 1400 -438 q 1391 -451 1379 -456 q 1366 -462 1352 -462 l 1352 -462 q 1316 -462 1297 -437 q 1277 -413 1277 -378 l 1277 -378 q 1277 -350 1282 -329 q 1286 -308 1292 -291 l 1292 -291 l 1132 -256 q 1122 -286 1117 -319 q 1112 -353 1112 -379 l 1112 -379 q 1112 -432 1136 -477 q 1160 -522 1210 -549 q 1259 -577 1336 -577 l 1336 -577 q 1397 -577 1437 -559 q 1477 -541 1506 -511 l 1506 -511 l 1489 -512 q 1522 -548 1564 -562 q 1605 -577 1655 -577 z"},"ഉ":{"ha":775,"x_min":35,"x_max":740,"o":"m 383 -577 l 383 -577 q 481 -577 549 -553 q 617 -530 660 -490 q 702 -450 721 -399 q 740 -348 740 -295 l 740 -295 q 740 -220 717 -165 q 693 -111 651 -77 l 651 -77 q 617 -49 574 -32 q 530 -15 471 -7 q 411 0 329 0 l 329 0 l 311 0 q 272 0 255 2 q 238 4 228 9 l 228 9 q 217 14 212 22 q 207 30 207 41 l 207 41 q 207 51 211 59 q 215 67 223 73 l 223 73 q 234 80 252 83 q 270 86 311 86 l 311 86 l 721 86 l 721 203 l 295 203 q 232 203 188 196 q 143 188 111 170 l 111 170 q 78 151 60 120 q 41 89 41 47 l 41 47 q 41 6 57 -25 q 73 -56 104 -77 l 104 -77 q 135 -97 178 -106 q 220 -115 290 -115 l 290 -115 l 300 -115 q 368 -115 412 -120 q 456 -126 484 -138 q 511 -150 531 -169 l 531 -169 q 553 -192 563 -223 q 572 -255 572 -295 l 572 -295 q 572 -328 561 -358 q 549 -388 526 -412 q 502 -436 464 -449 q 426 -463 372 -463 l 372 -463 q 334 -463 303 -458 q 271 -454 246 -444 q 220 -434 202 -418 q 184 -403 175 -381 l 175 -381 q 171 -375 173 -369 q 174 -364 172 -357 l 172 -357 q 171 -349 170 -338 q 169 -328 169 -313 l 169 -313 q 169 -275 186 -253 q 203 -232 232 -232 l 232 -232 q 261 -232 275 -248 q 288 -265 288 -288 l 288 -288 q 288 -305 282 -317 q 275 -329 263 -335 q 250 -342 231 -342 l 231 -342 q 203 -342 181 -333 q 158 -325 133 -313 l 133 -313 l 64 -338 q 82 -358 115 -379 q 147 -401 186 -416 q 225 -431 264 -431 l 264 -431 q 324 -431 362 -411 q 400 -392 419 -359 q 437 -327 437 -288 l 437 -288 q 437 -246 418 -210 q 398 -175 354 -153 q 309 -132 235 -132 l 235 -132 q 177 -132 132 -154 q 86 -177 61 -221 q 35 -265 35 -326 l 35 -326 q 35 -375 57 -420 q 78 -465 122 -500 q 165 -536 231 -556 q 296 -577 383 -577 z"},"ഊ":{"ha":1624,"x_min":35,"x_max":1589,"o":"m 383 -577 l 383 -577 q 481 -577 549 -553 q 617 -530 660 -490 q 702 -450 721 -399 q 740 -348 740 -295 l 740 -295 q 740 -220 717 -165 q 693 -111 651 -77 l 651 -77 q 617 -49 574 -32 q 530 -15 471 -7 q 411 0 329 0 l 329 0 l 311 0 q 272 0 255 2 q 238 4 228 9 l 228 9 q 217 14 212 22 q 207 30 207 41 l 207 41 q 207 51 211 59 q 215 67 223 73 l 223 73 q 234 80 252 83 q 270 86 311 86 l 311 86 l 721 86 l 721 203 l 295 203 q 232 203 188 196 q 143 188 111 170 l 111 170 q 78 151 60 120 q 41 89 41 47 l 41 47 q 41 6 57 -25 q 73 -56 104 -77 l 104 -77 q 135 -97 178 -106 q 220 -115 290 -115 l 290 -115 l 300 -115 q 368 -115 412 -120 q 456 -126 484 -138 q 511 -150 531 -169 l 531 -169 q 553 -192 563 -223 q 572 -255 572 -295 l 572 -295 q 572 -328 561 -358 q 549 -388 526 -412 q 502 -436 464 -449 q 426 -463 372 -463 l 372 -463 q 334 -463 303 -458 q 271 -454 246 -444 q 220 -434 202 -418 q 184 -403 175 -381 l 175 -381 q 171 -375 173 -369 q 174 -364 172 -357 l 172 -357 q 171 -349 170 -338 q 169 -328 169 -313 l 169 -313 q 169 -275 186 -253 q 203 -232 232 -232 l 232 -232 q 261 -232 275 -248 q 288 -265 288 -288 l 288 -288 q 288 -305 282 -317 q 275 -329 263 -335 q 250 -342 231 -342 l 231 -342 q 203 -342 181 -333 q 158 -325 133 -313 l 133 -313 l 64 -338 q 82 -358 115 -379 q 147 -401 186 -416 q 225 -431 264 -431 l 264 -431 q 324 -431 362 -411 q 400 -392 419 -359 q 437 -327 437 -288 l 437 -288 q 437 -246 418 -210 q 398 -175 354 -153 q 309 -132 235 -132 l 235 -132 q 177 -132 132 -154 q 86 -177 61 -221 q 35 -265 35 -326 l 35 -326 q 35 -375 57 -420 q 78 -465 122 -500 q 165 -536 231 -556 q 296 -577 383 -577 z m 1348 -577 l 1348 -577 q 1424 -577 1478 -544 q 1531 -512 1560 -451 q 1589 -391 1589 -308 l 1589 -308 q 1589 -208 1553 -136 q 1517 -64 1446 -26 q 1375 12 1269 12 l 1269 12 q 1185 12 1123 -2 q 1061 -17 1006 -45 l 1006 -45 l 1065 -154 q 1115 -128 1157 -117 q 1199 -106 1252 -106 l 1252 -106 q 1315 -106 1352 -129 q 1389 -153 1405 -198 q 1421 -243 1421 -306 l 1421 -306 q 1421 -386 1397 -424 q 1373 -462 1336 -462 l 1336 -462 q 1319 -462 1307 -455 q 1295 -449 1288 -438 l 1288 -438 q 1280 -425 1277 -407 q 1274 -389 1274 -354 l 1274 -354 l 1274 -265 l 1110 -265 l 1110 -339 q 1110 -376 1107 -401 q 1103 -426 1093 -438 l 1093 -438 q 1084 -451 1072 -456 q 1059 -462 1045 -462 l 1045 -462 q 1009 -462 990 -437 q 970 -413 970 -378 l 970 -378 q 970 -350 975 -329 q 979 -308 985 -291 l 985 -291 l 825 -256 q 815 -286 810 -319 q 805 -353 805 -379 l 805 -379 q 805 -432 829 -477 q 853 -522 903 -549 q 952 -577 1029 -577 l 1029 -577 q 1090 -577 1130 -559 q 1170 -541 1199 -511 l 1199 -511 l 1182 -512 q 1215 -548 1257 -562 q 1298 -577 1348 -577 z"},"ഋ":{"ha":1034,"x_min":32,"x_max":1001,"o":"m 760 -577 l 760 -577 q 873 -577 937 -515 q 1001 -453 1001 -340 l 1001 -340 q 1001 -270 972 -215 q 943 -160 890 -124 l 890 -124 q 842 -92 778 -76 q 713 -61 636 -61 l 636 -61 l 400 -61 q 350 -61 305 -67 q 260 -73 222 -86 q 183 -100 151 -121 l 151 -121 q 94 -156 63 -212 q 32 -268 32 -340 l 32 -340 q 32 -414 62 -467 q 92 -520 147 -548 q 202 -577 279 -577 l 279 -577 q 350 -577 398 -552 q 445 -528 469 -486 q 493 -445 493 -396 l 493 -396 q 493 -338 468 -299 q 443 -261 397 -242 q 350 -224 284 -224 l 284 -224 q 239 -224 201 -240 q 162 -257 132 -281 q 102 -305 82 -327 l 82 -327 l 120 -427 q 139 -401 158 -378 q 177 -356 202 -342 q 227 -328 259 -328 l 259 -328 q 290 -328 312 -344 q 333 -361 333 -400 l 333 -400 q 333 -432 315 -450 q 297 -468 268 -468 l 268 -468 q 242 -468 223 -454 q 204 -440 194 -414 q 183 -388 183 -351 l 183 -351 q 183 -335 186 -321 q 188 -307 191 -294 l 191 -294 l 186 -275 q 200 -240 231 -219 q 261 -198 303 -187 q 345 -177 393 -173 q 441 -170 490 -170 l 490 -170 l 543 -170 q 589 -170 637 -173 q 685 -176 729 -186 q 772 -196 804 -217 q 835 -239 849 -275 l 849 -275 l 844 -293 q 847 -306 849 -320 q 851 -334 851 -350 l 851 -350 q 851 -388 841 -414 q 830 -440 812 -454 q 793 -468 768 -468 l 768 -468 q 737 -468 719 -450 q 701 -432 701 -400 l 701 -400 q 701 -361 723 -344 q 744 -328 775 -328 l 775 -328 q 808 -328 833 -342 q 857 -356 877 -378 q 896 -401 914 -427 l 914 -427 l 952 -327 q 933 -305 903 -281 q 872 -257 834 -240 q 795 -224 748 -224 l 748 -224 q 683 -224 637 -242 q 591 -261 567 -299 q 542 -338 542 -396 l 542 -396 q 542 -445 567 -486 q 591 -528 640 -552 q 688 -577 760 -577 z m 524 255 l 524 255 q 383 255 290 235 q 197 214 152 169 q 106 124 106 50 l 106 50 q 106 -2 134 -36 q 162 -71 210 -92 q 258 -113 318 -121 q 378 -130 442 -130 l 442 -130 l 590 -130 q 655 -130 716 -121 q 777 -113 825 -92 q 872 -71 900 -36 q 928 -1 928 52 l 928 52 q 928 120 886 165 q 843 210 754 233 q 665 255 524 255 z m 519 134 l 519 134 q 605 134 658 124 q 710 114 735 94 q 759 73 759 40 l 759 40 q 759 10 741 -8 q 723 -26 691 -36 q 659 -46 618 -49 q 577 -53 531 -53 l 531 -53 l 504 -53 q 439 -53 387 -45 q 335 -38 305 -18 q 275 2 275 39 l 275 39 q 275 73 300 94 q 324 115 378 125 q 432 134 519 134 z"},"ഌ":{"ha":1331,"x_min":35,"x_max":1297,"o":"m 410 -577 l 410 -577 q 501 -577 565 -553 q 628 -529 679 -476 l 679 -476 l 707 -401 l 730 -267 l 730 0 l 564 0 l 564 -271 q 564 -342 553 -376 q 542 -410 519 -429 l 519 -429 q 501 -444 474 -452 q 447 -461 406 -461 l 406 -461 q 345 -461 295 -436 q 245 -411 216 -362 q 186 -314 186 -242 l 186 -242 l 186 -238 q 186 -184 197 -153 q 208 -122 227 -109 q 245 -97 267 -97 l 267 -97 q 286 -97 299 -105 q 312 -113 319 -129 q 326 -145 326 -170 l 326 -170 q 326 -205 310 -224 q 293 -244 261 -244 l 261 -244 q 225 -244 195 -223 q 164 -203 127 -162 l 127 -162 l 110 -271 q 144 -302 192 -327 q 240 -353 303 -353 l 303 -353 q 363 -353 404 -330 q 445 -308 466 -269 q 486 -230 486 -177 l 486 -177 q 486 -118 462 -75 q 437 -33 390 -10 q 342 12 272 12 l 272 12 q 208 12 154 -14 q 100 -40 68 -96 q 35 -153 35 -243 l 35 -243 q 35 -351 85 -425 q 134 -500 219 -538 q 304 -577 410 -577 z m 1045 12 l 1045 12 q 964 12 914 -18 q 863 -48 840 -97 q 817 -147 817 -206 l 817 -206 q 817 -298 870 -354 q 922 -410 1020 -410 l 1020 -410 q 1081 -410 1127 -380 q 1173 -350 1201 -303 q 1228 -256 1232 -204 l 1232 -204 l 1168 -205 q 1163 -230 1149 -252 q 1134 -274 1112 -288 q 1090 -303 1060 -303 l 1060 -303 q 1017 -303 997 -277 q 977 -251 977 -203 l 977 -203 q 977 -172 985 -149 q 993 -127 1010 -115 q 1027 -104 1050 -104 l 1050 -104 q 1078 -104 1097 -118 q 1115 -132 1125 -162 q 1135 -193 1135 -240 l 1135 -240 q 1135 -255 1134 -272 q 1132 -290 1130 -306 l 1130 -306 q 1129 -311 1131 -317 q 1133 -324 1131 -328 l 1131 -328 q 1125 -364 1099 -393 q 1072 -423 1026 -441 q 980 -460 915 -460 l 915 -460 q 869 -460 841 -451 q 812 -443 788 -425 l 788 -425 q 767 -409 754 -384 q 741 -359 736 -324 q 730 -290 730 -241 l 730 -241 l 730 -185 l 622 -461 q 652 -492 691 -518 q 730 -545 785 -561 q 839 -577 916 -577 l 916 -577 q 1010 -577 1081 -550 q 1152 -523 1201 -476 q 1249 -429 1273 -367 q 1297 -306 1297 -237 l 1297 -237 q 1297 -154 1268 -98 q 1238 -43 1182 -15 q 1125 12 1045 12 z"},"എ":{"ha":1423,"x_min":28,"x_max":1382,"o":"m 274 -367 l 274 -367 q 359 -367 413 -337 q 466 -308 491 -263 q 516 -219 516 -172 l 516 -172 q 516 -145 509 -119 q 502 -93 492 -72 l 492 -72 l 487 -116 l 959 -116 l 956 0 l 382 0 l 325 -64 q 336 -81 347 -105 q 357 -129 357 -162 l 357 -162 q 357 -199 338 -225 q 318 -252 276 -252 l 276 -252 q 247 -252 229 -240 q 210 -228 201 -207 q 192 -187 192 -161 l 192 -161 q 192 -125 205 -97 q 218 -70 235 -44 l 235 -44 l 107 12 q 70 -27 49 -71 q 28 -115 28 -170 l 28 -170 q 28 -230 60 -274 q 91 -319 146 -343 q 201 -367 274 -367 z m 1005 -577 l 1005 -577 q 1100 -577 1171 -548 q 1242 -520 1289 -466 q 1335 -413 1359 -337 q 1382 -262 1382 -169 l 1382 -169 q 1382 -86 1364 -17 q 1346 52 1315 112 q 1283 172 1239 228 l 1239 228 l 1109 158 q 1145 107 1168 56 q 1190 5 1201 -51 q 1212 -107 1212 -170 l 1212 -170 q 1212 -230 1201 -283 q 1190 -336 1165 -376 q 1140 -416 1101 -439 q 1061 -462 1004 -462 l 1004 -462 q 927 -462 878 -421 q 828 -381 804 -309 q 779 -237 779 -142 l 779 -142 q 779 -121 780 -99 q 781 -78 782 -59 l 782 -59 q 782 -53 782 -48 q 782 -43 782 -37 l 782 -37 q 786 13 797 47 q 808 81 827 98 q 846 115 871 115 l 871 115 q 890 115 899 105 l 899 105 q 904 99 907 90 q 909 81 909 63 l 909 63 l 909 -384 l 1074 -384 l 1074 30 q 1074 93 1060 128 q 1046 162 1021 185 l 1021 185 q 997 206 963 217 q 928 228 876 228 l 876 228 q 793 228 735 188 q 676 147 645 64 q 614 -19 614 -145 l 614 -145 q 614 -236 638 -314 q 661 -393 709 -452 q 757 -511 831 -544 q 904 -577 1005 -577 z"},"ഏ":{"ha":1440,"x_min":29,"x_max":1410,"o":"m 275 -367 l 275 -367 q 360 -367 414 -337 q 467 -308 492 -263 q 517 -219 517 -172 l 517 -172 q 517 -145 510 -119 q 503 -93 493 -72 l 493 -72 l 483 -116 l 956 -116 l 957 0 l 383 0 l 326 -64 q 337 -81 348 -105 q 358 -129 358 -162 l 358 -162 q 358 -199 339 -225 q 319 -252 277 -252 l 277 -252 q 248 -252 230 -240 q 211 -228 202 -207 q 193 -187 193 -161 l 193 -161 q 193 -125 206 -97 q 219 -70 236 -44 l 236 -44 l 108 12 q 71 -27 50 -71 q 29 -115 29 -170 l 29 -170 q 29 -230 61 -274 q 92 -319 147 -343 q 202 -367 275 -367 z m 1054 -577 l 1054 -577 q 1150 -577 1216 -557 q 1282 -537 1323 -502 q 1364 -468 1382 -425 q 1400 -382 1400 -336 l 1400 -336 q 1400 -286 1386 -249 q 1371 -213 1346 -186 q 1320 -160 1289 -140 l 1289 -140 l 1290 -152 q 1349 -126 1380 -83 q 1410 -40 1410 26 l 1410 26 q 1410 97 1382 141 q 1353 185 1302 207 q 1251 228 1182 228 l 1182 228 q 1162 228 1135 226 q 1108 224 1091 220 l 1091 220 l 1108 106 q 1119 110 1132 111 q 1145 112 1153 112 l 1153 112 q 1186 112 1206 101 q 1226 90 1235 70 q 1243 49 1243 20 l 1243 20 q 1243 -24 1214 -53 q 1185 -82 1127 -82 l 1127 -82 l 1127 -196 q 1160 -205 1184 -220 q 1207 -235 1220 -260 q 1233 -286 1233 -325 l 1233 -325 q 1233 -362 1215 -392 q 1196 -423 1156 -442 q 1115 -461 1049 -461 l 1049 -461 q 952 -461 893 -419 q 834 -377 807 -305 q 780 -233 780 -142 l 780 -142 q 780 -121 781 -99 q 782 -78 783 -59 l 783 -59 q 783 -54 783 -48 q 783 -42 783 -37 l 783 -37 q 787 13 798 47 q 809 81 828 98 q 847 115 872 115 l 872 115 q 891 115 900 105 l 900 105 q 905 99 908 90 q 910 81 910 63 l 910 63 l 910 -384 l 1075 -384 l 1075 30 q 1075 93 1061 128 q 1047 162 1022 185 l 1022 185 q 998 206 964 217 q 929 228 877 228 l 877 228 q 794 228 735 188 q 676 147 646 64 q 615 -19 615 -147 l 615 -147 q 615 -241 643 -320 q 670 -399 725 -456 q 780 -514 862 -545 q 944 -577 1054 -577 z"},"ഐ":{"ha":2234,"x_min":36,"x_max":2193,"o":"m 274 12 l 274 12 q 209 12 155 -14 q 101 -41 69 -97 q 36 -153 36 -244 l 36 -244 q 36 -317 63 -378 q 89 -439 140 -483 q 191 -528 264 -552 q 337 -577 430 -577 l 430 -577 q 523 -577 589 -553 q 654 -529 696 -487 q 737 -446 757 -393 q 777 -340 777 -282 l 777 -282 q 777 -216 758 -163 q 738 -111 704 -68 q 670 -26 625 12 l 625 12 l 509 -66 q 539 -99 561 -130 q 583 -162 595 -198 q 607 -235 607 -280 l 607 -280 q 607 -335 586 -375 q 565 -415 523 -437 q 480 -460 415 -460 l 415 -460 q 347 -460 295 -431 q 243 -403 215 -354 q 187 -305 187 -241 l 187 -241 q 187 -186 198 -154 q 209 -123 228 -110 q 246 -97 268 -97 l 268 -97 q 287 -97 300 -105 q 313 -113 320 -129 q 327 -145 327 -169 l 327 -169 q 327 -204 311 -224 q 294 -244 262 -244 l 262 -244 q 226 -244 196 -223 q 165 -203 128 -162 l 128 -162 l 111 -271 q 145 -302 192 -327 q 238 -353 302 -353 l 302 -353 q 363 -353 404 -330 q 445 -308 466 -268 q 487 -229 487 -176 l 487 -176 q 487 -118 463 -75 q 438 -33 391 -10 q 344 12 274 12 z m 1086 -367 l 1086 -367 q 1171 -367 1225 -337 q 1278 -308 1303 -263 q 1328 -219 1328 -172 l 1328 -172 q 1328 -145 1321 -119 q 1314 -93 1304 -72 l 1304 -72 l 1299 -116 l 1771 -116 l 1768 0 l 1194 0 l 1137 -64 q 1148 -81 1159 -105 q 1169 -129 1169 -162 l 1169 -162 q 1169 -199 1150 -225 q 1130 -252 1088 -252 l 1088 -252 q 1059 -252 1041 -240 q 1022 -228 1013 -207 q 1004 -187 1004 -161 l 1004 -161 q 1004 -125 1017 -97 q 1030 -70 1047 -44 l 1047 -44 l 919 12 q 882 -27 861 -71 q 840 -115 840 -170 l 840 -170 q 840 -230 872 -274 q 903 -319 958 -343 q 1013 -367 1086 -367 z m 1817 -577 l 1817 -577 q 1912 -577 1983 -548 q 2054 -520 2101 -466 q 2147 -413 2171 -337 q 2194 -262 2194 -169 l 2194 -169 q 2194 -86 2176 -17 q 2158 52 2127 112 q 2095 172 2051 228 l 2051 228 l 1921 158 q 1957 107 1980 56 q 2002 5 2013 -51 q 2024 -107 2024 -170 l 2024 -170 q 2024 -230 2013 -283 q 2002 -336 1977 -376 q 1952 -416 1913 -439 q 1873 -462 1816 -462 l 1816 -462 q 1739 -462 1690 -421 q 1640 -381 1616 -309 q 1591 -237 1591 -142 l 1591 -142 q 1591 -121 1592 -99 q 1593 -78 1594 -59 l 1594 -59 q 1594 -53 1594 -48 q 1594 -43 1594 -37 l 1594 -37 q 1598 13 1609 47 q 1620 81 1639 98 q 1658 115 1683 115 l 1683 115 q 1702 115 1711 105 l 1711 105 q 1716 99 1719 90 q 1721 81 1721 63 l 1721 63 l 1721 -384 l 1886 -384 l 1886 30 q 1886 93 1872 128 q 1858 162 1833 185 l 1833 185 q 1809 206 1775 217 q 1740 228 1688 228 l 1688 228 q 1605 228 1547 188 q 1488 147 1457 64 q 1426 -19 1426 -145 l 1426 -145 q 1426 -236 1450 -314 q 1473 -393 1521 -452 q 1569 -511 1643 -544 q 1716 -577 1817 -577 z"},"ഒ":{"ha":856,"x_min":35,"x_max":824,"o":"m 504 -577 l 504 -577 q 620 -577 688 -554 q 755 -532 784 -494 q 813 -457 813 -411 l 813 -411 q 813 -384 804 -359 q 795 -335 775 -315 q 755 -296 720 -279 l 720 -279 l 720 -285 q 774 -266 799 -230 q 824 -194 824 -146 l 824 -146 q 824 -71 770 -29 q 716 12 611 12 l 611 12 q 574 12 547 8 q 519 4 496 0 l 496 0 l 517 -112 q 530 -109 548 -106 q 565 -104 583 -104 l 583 -104 q 623 -104 641 -116 q 659 -129 659 -160 l 659 -160 q 659 -174 653 -185 q 647 -196 635 -205 l 635 -205 q 622 -214 602 -218 q 581 -222 542 -222 l 542 -222 l 527 -222 l 527 -336 l 540 -336 q 580 -336 599 -340 q 618 -345 632 -356 l 632 -356 q 640 -363 644 -372 q 647 -381 647 -394 l 647 -394 q 647 -429 609 -445 q 571 -461 491 -461 l 491 -461 q 437 -461 383 -449 q 329 -437 285 -412 q 240 -387 213 -347 q 186 -308 186 -252 l 186 -252 l 186 -237 q 186 -184 197 -153 q 208 -122 227 -109 q 245 -97 267 -97 l 267 -97 q 286 -97 299 -105 q 312 -113 319 -129 q 326 -146 326 -170 l 326 -170 q 326 -205 310 -224 q 293 -244 261 -244 l 261 -244 q 225 -244 195 -223 q 164 -203 127 -162 l 127 -162 l 110 -271 q 144 -302 191 -327 q 238 -353 301 -353 l 301 -353 q 362 -353 403 -330 q 444 -308 465 -269 q 486 -230 486 -177 l 486 -177 q 486 -118 462 -75 q 437 -33 390 -10 q 342 12 272 12 l 272 12 q 207 12 153 -14 q 99 -41 67 -96 q 35 -152 35 -240 l 35 -240 q 35 -323 70 -386 q 104 -449 168 -491 q 231 -534 317 -555 q 402 -577 504 -577 z"},"ഓ":{"ha":1444,"x_min":35,"x_max":1406,"o":"m 504 -577 l 504 -577 q 620 -577 688 -554 q 755 -532 784 -494 q 813 -457 813 -411 l 813 -411 q 813 -384 804 -359 q 795 -335 775 -315 q 755 -296 720 -279 l 720 -279 l 720 -285 q 774 -266 799 -230 q 824 -194 824 -146 l 824 -146 q 824 -71 770 -29 q 716 12 611 12 l 611 12 q 574 12 547 8 q 519 4 496 0 l 496 0 l 517 -112 q 530 -109 548 -106 q 565 -104 583 -104 l 583 -104 q 623 -104 641 -116 q 659 -129 659 -160 l 659 -160 q 659 -174 653 -185 q 647 -196 635 -205 l 635 -205 q 622 -214 602 -218 q 581 -222 542 -222 l 542 -222 l 527 -222 l 527 -336 l 540 -336 q 580 -336 599 -340 q 618 -345 632 -356 l 632 -356 q 640 -363 644 -372 q 647 -381 647 -394 l 647 -394 q 647 -429 609 -445 q 571 -461 491 -461 l 491 -461 q 437 -461 383 -449 q 329 -437 285 -412 q 240 -387 213 -347 q 186 -308 186 -252 l 186 -252 l 186 -237 q 186 -184 197 -153 q 208 -122 227 -109 q 245 -97 267 -97 l 267 -97 q 286 -97 299 -105 q 312 -113 319 -129 q 326 -146 326 -170 l 326 -170 q 326 -205 310 -224 q 293 -244 261 -244 l 261 -244 q 225 -244 195 -223 q 164 -203 127 -162 l 127 -162 l 110 -271 q 144 -302 191 -327 q 238 -353 301 -353 l 301 -353 q 362 -353 403 -330 q 444 -308 465 -269 q 486 -230 486 -177 l 486 -177 q 486 -118 462 -75 q 437 -33 390 -10 q 342 12 272 12 l 272 12 q 207 12 153 -14 q 99 -41 67 -96 q 35 -152 35 -240 l 35 -240 q 35 -323 70 -386 q 104 -449 168 -491 q 231 -534 317 -555 q 402 -577 504 -577 z m 1406 -285 l 1406 -285 q 1406 -226 1394 -172 q 1381 -119 1350 -77 q 1319 -35 1266 -11 q 1213 12 1131 12 l 1131 12 q 1061 12 1014 -6 q 967 -24 938 -52 q 908 -81 893 -115 q 877 -150 869 -184 l 869 -184 l 1038 -213 q 1046 -185 1056 -160 q 1066 -135 1085 -119 q 1103 -103 1134 -103 l 1134 -103 q 1171 -103 1193 -125 q 1215 -148 1226 -188 q 1236 -228 1236 -282 l 1236 -282 q 1236 -337 1226 -377 q 1215 -417 1194 -439 q 1172 -462 1137 -462 l 1137 -462 q 1108 -462 1089 -446 q 1070 -431 1059 -406 q 1048 -382 1041 -353 l 1041 -353 l 871 -382 q 883 -417 902 -451 q 920 -486 951 -514 q 981 -543 1028 -560 q 1075 -577 1142 -577 l 1142 -577 q 1219 -577 1270 -553 q 1321 -529 1351 -488 q 1381 -447 1394 -394 q 1406 -342 1406 -285 z"},"ഔ":{"ha":1704,"x_min":35,"x_max":1668,"o":"m 504 -577 l 504 -577 q 620 -577 688 -554 q 755 -532 784 -494 q 813 -457 813 -411 l 813 -411 q 813 -384 804 -359 q 795 -335 775 -315 q 755 -296 720 -279 l 720 -279 l 720 -285 q 774 -266 799 -230 q 824 -194 824 -146 l 824 -146 q 824 -71 770 -29 q 716 12 611 12 l 611 12 q 574 12 547 8 q 519 4 496 0 l 496 0 l 517 -112 q 530 -109 548 -106 q 565 -104 583 -104 l 583 -104 q 623 -104 641 -116 q 659 -129 659 -160 l 659 -160 q 659 -174 653 -185 q 647 -196 635 -205 l 635 -205 q 622 -214 602 -218 q 581 -222 542 -222 l 542 -222 l 527 -222 l 527 -336 l 540 -336 q 580 -336 599 -340 q 618 -345 632 -356 l 632 -356 q 640 -363 644 -372 q 647 -381 647 -394 l 647 -394 q 647 -429 609 -445 q 571 -461 491 -461 l 491 -461 q 437 -461 383 -449 q 329 -437 285 -412 q 240 -387 213 -347 q 186 -308 186 -252 l 186 -252 l 186 -237 q 186 -184 197 -153 q 208 -122 227 -109 q 245 -97 267 -97 l 267 -97 q 286 -97 299 -105 q 312 -113 319 -129 q 326 -146 326 -170 l 326 -170 q 326 -205 310 -224 q 293 -244 261 -244 l 261 -244 q 225 -244 195 -223 q 164 -203 127 -162 l 127 -162 l 110 -271 q 144 -302 191 -327 q 238 -353 301 -353 l 301 -353 q 362 -353 403 -330 q 444 -308 465 -269 q 486 -230 486 -177 l 486 -177 q 486 -118 462 -75 q 437 -33 390 -10 q 342 12 272 12 l 272 12 q 207 12 153 -14 q 99 -41 67 -96 q 35 -152 35 -240 l 35 -240 q 35 -323 70 -386 q 104 -449 168 -491 q 231 -534 317 -555 q 402 -577 504 -577 z m 1427 -577 l 1427 -577 q 1503 -577 1557 -544 q 1610 -512 1639 -451 q 1668 -391 1668 -308 l 1668 -308 q 1668 -208 1632 -136 q 1596 -64 1525 -26 q 1454 12 1348 12 l 1348 12 q 1264 12 1202 -2 q 1140 -17 1085 -45 l 1085 -45 l 1144 -154 q 1194 -128 1236 -117 q 1278 -106 1331 -106 l 1331 -106 q 1394 -106 1431 -129 q 1468 -153 1484 -198 q 1500 -243 1500 -306 l 1500 -306 q 1500 -386 1476 -424 q 1452 -462 1415 -462 l 1415 -462 q 1398 -462 1386 -455 q 1374 -449 1367 -438 l 1367 -438 q 1359 -425 1356 -407 q 1353 -389 1353 -354 l 1353 -354 l 1353 -265 l 1189 -265 l 1189 -339 q 1189 -376 1186 -401 q 1182 -426 1172 -438 l 1172 -438 q 1163 -451 1151 -456 q 1138 -462 1124 -462 l 1124 -462 q 1088 -462 1069 -437 q 1049 -413 1049 -378 l 1049 -378 q 1049 -350 1054 -329 q 1058 -308 1064 -291 l 1064 -291 l 904 -256 q 894 -286 889 -319 q 884 -353 884 -379 l 884 -379 q 884 -432 908 -477 q 932 -522 982 -549 q 1031 -577 1108 -577 l 1108 -577 q 1169 -577 1209 -559 q 1249 -541 1278 -511 l 1278 -511 l 1261 -512 q 1294 -548 1336 -562 q 1377 -577 1427 -577 z"},"ക":{"ha":1178,"x_min":28,"x_max":1150,"o":"m 240 12 l 240 12 q 138 12 83 -34 q 28 -81 28 -164 l 28 -164 q 28 -215 51 -250 q 74 -286 111 -308 l 111 -308 q 139 -325 173 -335 q 207 -345 254 -349 q 301 -353 370 -353 l 370 -353 l 828 -353 q 919 -353 976 -343 q 1033 -334 1076 -307 l 1076 -307 q 1109 -286 1130 -251 q 1150 -217 1150 -164 l 1150 -164 q 1150 -76 1092 -32 q 1033 12 940 12 l 940 12 q 916 12 893 9 q 870 6 847 1 l 847 1 l 874 -110 q 885 -107 898 -105 q 911 -104 924 -104 l 924 -104 q 956 -104 973 -119 q 989 -135 989 -164 l 989 -164 q 989 -184 981 -197 q 972 -211 958 -219 l 958 -219 q 939 -231 911 -234 q 883 -237 833 -237 l 833 -237 l 326 -237 q 280 -237 255 -233 q 230 -229 213 -217 l 213 -217 q 201 -209 193 -196 q 185 -183 185 -166 l 185 -166 q 185 -145 194 -130 q 202 -116 220 -109 q 238 -103 264 -103 l 264 -103 q 292 -103 320 -112 q 347 -122 378 -146 l 378 -146 l 445 -45 q 411 -24 381 -11 q 350 2 317 7 q 283 12 240 12 z m 592 -577 l 592 -577 q 694 -577 756 -540 q 818 -503 847 -437 q 875 -371 875 -285 l 875 -285 q 875 -189 843 -122 q 810 -56 748 -22 q 685 12 593 12 l 593 12 q 521 12 466 -9 q 411 -30 376 -72 l 376 -72 q 343 -112 326 -166 q 308 -220 308 -285 l 308 -285 q 308 -422 381 -499 q 454 -577 592 -577 z m 592 -462 l 592 -462 q 530 -462 500 -415 q 470 -369 470 -282 l 470 -282 q 470 -227 484 -186 q 497 -146 524 -125 q 551 -104 592 -104 l 592 -104 q 632 -104 659 -124 q 686 -145 700 -185 q 713 -226 713 -284 l 713 -284 q 713 -342 700 -381 q 686 -421 660 -441 q 633 -462 592 -462 z"},"ഖ":{"ha":1132,"x_min":35,"x_max":1072,"o":"m 429 -577 l 429 -577 q 522 -577 588 -553 q 654 -529 696 -488 q 737 -447 757 -394 q 776 -342 776 -286 l 776 -286 q 776 -226 761 -183 q 745 -141 717 -104 q 689 -68 652 -28 l 652 -28 l 616 0 l 558 0 l 522 -69 q 546 -100 565 -131 q 584 -163 596 -199 q 608 -235 608 -280 l 608 -280 q 608 -337 586 -377 q 563 -417 520 -438 q 477 -460 416 -460 l 416 -460 q 352 -460 300 -433 q 247 -407 216 -358 q 185 -309 185 -242 l 185 -242 l 185 -237 q 185 -183 197 -152 q 208 -122 226 -109 q 244 -97 267 -97 l 267 -97 q 286 -97 299 -105 q 312 -113 319 -129 q 326 -145 326 -169 l 326 -169 q 326 -204 309 -224 q 292 -244 261 -244 l 261 -244 q 225 -244 194 -223 q 163 -203 126 -162 l 126 -162 l 110 -271 q 144 -302 191 -327 q 238 -353 301 -353 l 301 -353 q 362 -353 403 -330 q 444 -308 465 -269 q 486 -230 486 -177 l 486 -177 q 486 -118 462 -75 q 437 -33 390 -10 q 342 12 272 12 l 272 12 q 207 12 154 -14 q 100 -41 68 -96 q 35 -152 35 -240 l 35 -240 q 35 -342 83 -417 q 131 -493 220 -535 q 308 -577 429 -577 z m 907 -565 l 1072 -565 l 1072 0 l 600 0 l 671 -116 l 907 -116 l 907 -565 z"},"ഗ":{"ha":998,"x_min":36,"x_max":962,"o":"m 681 -577 l 681 -577 q 768 -577 831 -542 q 894 -508 928 -446 q 962 -384 962 -300 l 962 -300 q 962 -236 946 -183 q 930 -130 899 -82 q 867 -35 822 12 l 822 12 l 702 -66 q 735 -107 756 -144 q 776 -181 785 -217 q 794 -254 794 -294 l 794 -294 q 794 -354 779 -390 q 763 -427 737 -443 q 711 -460 679 -460 l 679 -460 q 655 -460 638 -452 q 621 -445 609 -430 l 609 -430 q 594 -411 589 -378 q 583 -346 583 -293 l 583 -293 l 583 -267 q 583 -218 576 -177 q 569 -136 554 -104 q 539 -73 515 -50 l 515 -50 q 483 -20 435 -4 q 386 12 318 12 l 318 12 q 231 12 168 -22 q 105 -57 71 -120 q 36 -183 36 -266 l 36 -266 q 36 -331 53 -384 q 69 -437 101 -484 q 132 -531 177 -578 l 177 -578 l 296 -499 q 263 -459 243 -422 q 223 -386 214 -349 q 204 -312 204 -272 l 204 -272 q 204 -211 220 -174 q 235 -137 261 -121 q 286 -105 317 -105 l 317 -105 q 343 -105 361 -113 q 378 -121 389 -135 l 389 -135 q 404 -154 409 -186 q 414 -218 414 -268 l 414 -268 l 414 -302 q 414 -376 432 -428 q 450 -481 489 -516 l 489 -516 q 521 -544 566 -560 q 610 -577 681 -577 z"},"ഘ":{"ha":1496,"x_min":28,"x_max":1437,"o":"m 274 -577 l 274 -577 q 359 -577 413 -548 q 466 -519 491 -475 q 516 -431 516 -383 l 516 -383 q 516 -356 509 -330 q 502 -304 492 -283 l 492 -283 l 488 -326 l 702 -326 l 706 -211 l 382 -211 l 325 -275 q 336 -291 347 -315 q 357 -340 357 -373 l 357 -373 q 357 -410 338 -436 q 318 -463 276 -463 l 276 -463 q 247 -463 229 -451 q 210 -439 201 -418 q 192 -398 192 -372 l 192 -372 q 192 -336 205 -308 q 218 -281 235 -256 l 235 -256 l 107 -199 q 70 -238 49 -282 q 28 -326 28 -381 l 28 -381 q 28 -441 60 -485 q 91 -530 146 -553 q 201 -577 274 -577 z m 1271 -565 l 1437 -565 l 1437 0 l 595 0 l 595 -300 q 595 -382 616 -430 q 637 -478 672 -511 l 672 -511 q 707 -543 759 -560 q 811 -577 877 -577 l 877 -577 q 946 -577 997 -560 q 1047 -543 1082 -510 l 1082 -510 q 1121 -473 1139 -424 q 1157 -375 1157 -299 l 1157 -299 l 1157 -211 l 760 -211 l 760 -116 l 1271 -116 l 1271 -565 z m 876 -462 l 876 -462 q 815 -462 788 -425 q 760 -388 760 -330 l 760 -330 l 760 -326 l 992 -326 l 992 -330 q 992 -390 963 -426 q 934 -462 876 -462 z"},"ങ":{"ha":1210,"x_min":35,"x_max":1178,"o":"m 410 -577 l 410 -577 q 501 -577 565 -553 q 628 -529 679 -476 l 679 -476 l 704 -392 l 730 -231 l 730 0 l 564 0 l 564 -271 q 564 -342 553 -376 q 542 -410 519 -429 l 519 -429 q 501 -444 474 -452 q 447 -461 406 -461 l 406 -461 q 345 -461 295 -436 q 245 -411 216 -362 q 186 -314 186 -242 l 186 -242 l 186 -238 q 186 -184 197 -153 q 208 -122 227 -109 q 245 -97 267 -97 l 267 -97 q 286 -97 299 -105 q 312 -113 319 -129 q 326 -145 326 -170 l 326 -170 q 326 -205 310 -224 q 293 -244 261 -244 l 261 -244 q 225 -244 195 -223 q 164 -203 127 -162 l 127 -162 l 110 -271 q 144 -302 192 -327 q 240 -353 303 -353 l 303 -353 q 363 -353 404 -330 q 445 -308 466 -269 q 486 -230 486 -177 l 486 -177 q 486 -118 462 -75 q 437 -33 390 -10 q 342 12 272 12 l 272 12 q 208 12 154 -14 q 100 -40 68 -96 q 35 -153 35 -243 l 35 -243 q 35 -351 85 -425 q 134 -500 219 -538 q 304 -577 410 -577 z m 922 -577 l 922 -577 q 1005 -577 1060 -555 q 1114 -534 1141 -498 q 1167 -462 1167 -417 l 1167 -417 q 1167 -387 1158 -361 q 1149 -336 1129 -316 q 1109 -296 1074 -280 l 1074 -280 l 1072 -285 q 1127 -266 1153 -230 q 1178 -194 1178 -146 l 1178 -146 q 1178 -72 1124 -30 q 1070 12 965 12 l 965 12 q 927 12 897 8 q 867 4 845 -1 l 845 -1 l 865 -114 q 883 -110 900 -107 q 916 -104 937 -104 l 937 -104 q 977 -104 995 -116 q 1013 -129 1013 -160 l 1013 -160 q 1013 -174 1007 -185 q 1001 -196 989 -205 l 989 -205 q 976 -214 956 -218 q 936 -222 901 -222 l 901 -222 l 863 -222 l 863 -336 l 897 -336 q 929 -336 951 -341 q 972 -346 985 -358 l 985 -358 q 993 -365 998 -375 q 1002 -386 1002 -399 l 1002 -399 q 1002 -428 979 -445 q 956 -462 911 -462 l 911 -462 q 863 -462 830 -446 q 797 -431 774 -402 l 774 -402 q 757 -379 747 -351 q 737 -323 734 -285 q 730 -248 730 -199 l 730 -199 l 730 -72 l 575 -72 l 575 -242 l 587 -350 q 609 -422 654 -472 q 699 -523 767 -550 q 834 -577 922 -577 z"},"ച":{"ha":1033,"x_min":20,"x_max":973,"o":"m 808 -565 l 973 -565 l 973 0 l 20 0 l 20 -116 l 483 -116 l 402 -94 q 428 -110 445 -136 q 461 -162 461 -198 l 461 -198 q 461 -233 445 -255 q 429 -278 391 -278 l 391 -278 q 356 -278 338 -256 q 320 -234 320 -196 l 320 -196 q 320 -187 321 -180 q 321 -174 322 -167 l 322 -167 l 161 -154 q 160 -166 159 -182 q 157 -199 157 -209 l 157 -209 q 157 -295 216 -343 q 275 -392 392 -392 l 392 -392 q 460 -392 505 -375 q 549 -359 575 -333 q 600 -307 611 -276 q 621 -245 621 -216 l 621 -216 q 621 -192 615 -170 q 609 -149 598 -130 q 586 -111 571 -93 l 571 -93 l 544 -116 l 808 -116 l 808 -565 z"},"ഛ":{"ha":1502,"x_min":20,"x_max":1468,"o":"m 392 -392 l 392 -392 q 460 -392 505 -375 q 549 -359 575 -333 q 600 -307 611 -276 q 621 -245 621 -216 l 621 -216 q 621 -192 615 -170 q 609 -149 598 -130 q 586 -111 571 -93 l 571 -93 l 544 -116 l 806 -116 l 896 0 l 20 0 l 20 -116 l 483 -116 l 402 -94 q 428 -110 445 -136 q 461 -162 461 -198 l 461 -198 q 461 -233 445 -255 q 429 -278 391 -278 l 391 -278 q 356 -278 338 -256 q 320 -234 320 -196 l 320 -196 q 320 -187 321 -180 q 321 -174 322 -167 l 322 -167 l 161 -154 q 160 -166 159 -182 q 157 -199 157 -209 l 157 -209 q 157 -295 216 -343 q 275 -392 392 -392 z m 1069 -577 l 1069 -577 q 1171 -577 1246 -550 q 1321 -523 1371 -476 q 1420 -429 1444 -367 q 1468 -306 1468 -236 l 1468 -236 q 1468 -154 1439 -98 q 1409 -43 1353 -15 q 1297 12 1217 12 l 1217 12 q 1136 12 1086 -18 q 1035 -48 1012 -97 q 988 -147 988 -206 l 988 -206 q 988 -298 1041 -354 q 1093 -410 1191 -410 l 1191 -410 q 1253 -410 1299 -380 q 1345 -350 1372 -303 q 1399 -256 1403 -204 l 1403 -204 l 1339 -205 q 1334 -230 1320 -252 q 1305 -274 1283 -288 q 1261 -303 1232 -303 l 1232 -303 q 1189 -303 1169 -277 q 1148 -251 1148 -203 l 1148 -203 q 1148 -172 1156 -149 q 1164 -127 1181 -115 q 1198 -104 1222 -104 l 1222 -104 q 1249 -104 1268 -118 q 1286 -132 1296 -162 q 1306 -193 1306 -240 l 1306 -240 q 1306 -255 1305 -272 q 1303 -290 1301 -306 l 1301 -306 q 1300 -311 1301 -318 q 1301 -325 1299 -329 l 1299 -329 q 1293 -365 1266 -394 q 1239 -424 1194 -442 q 1148 -460 1084 -460 l 1084 -460 q 1012 -460 965 -438 q 917 -416 894 -376 q 870 -336 870 -281 l 870 -281 q 870 -239 881 -203 q 892 -168 912 -136 q 932 -104 958 -73 l 958 -73 l 907 0 l 845 0 l 815 -42 q 781 -77 755 -113 q 729 -150 715 -192 q 701 -234 701 -286 l 701 -286 q 701 -340 722 -392 q 742 -445 786 -486 q 829 -528 900 -552 q 970 -577 1069 -577 z"},"ജ":{"ha":1033,"x_min":30,"x_max":996,"o":"m 322 -577 l 322 -577 q 386 -577 431 -567 q 476 -558 509 -541 q 542 -524 568 -503 l 568 -503 l 534 -503 q 575 -542 626 -559 q 677 -577 742 -577 l 742 -577 q 833 -577 889 -546 q 945 -516 971 -468 q 996 -421 996 -370 l 996 -370 q 996 -326 985 -292 q 974 -258 951 -232 q 928 -207 892 -187 l 892 -187 l 669 -156 l 529 -147 q 496 -143 461 -142 q 426 -142 396 -142 l 396 -142 l 236 -142 q 214 -142 202 -140 q 190 -138 183 -133 l 183 -133 q 179 -130 177 -126 q 174 -122 174 -116 l 174 -116 q 174 -107 180 -100 q 185 -94 197 -91 q 208 -88 226 -88 l 226 -88 q 253 -88 282 -91 q 310 -95 344 -102 q 377 -110 417 -120 l 417 -120 q 448 -129 480 -137 q 512 -145 542 -152 q 572 -159 599 -164 q 626 -170 649 -173 l 649 -173 q 670 -180 691 -190 q 711 -201 730 -211 q 749 -221 768 -228 q 787 -235 805 -235 l 805 -235 q 845 -235 883 -224 q 920 -214 945 -187 q 970 -161 970 -114 l 970 -114 q 970 -53 925 -20 q 879 12 793 12 l 793 12 q 723 12 683 -7 q 643 -27 626 -57 q 609 -88 609 -121 l 609 -121 q 609 -161 629 -187 q 649 -214 672 -225 l 672 -225 l 803 -221 q 790 -215 775 -202 q 759 -190 747 -172 q 735 -155 735 -132 l 735 -132 q 735 -106 748 -93 q 761 -80 788 -80 l 788 -80 q 815 -80 827 -90 q 839 -101 839 -116 l 839 -116 q 839 -128 834 -136 q 828 -145 817 -149 q 806 -154 788 -154 l 788 -154 q 765 -154 745 -144 q 724 -134 698 -113 l 698 -113 l 700 -137 q 687 -126 665 -111 q 642 -96 611 -80 q 580 -64 536 -49 l 536 -49 q 472 -27 420 -14 q 367 -1 317 6 q 267 12 214 12 l 214 12 q 162 12 121 1 q 79 -11 55 -39 q 30 -67 30 -115 l 30 -115 q 30 -149 44 -172 q 58 -196 82 -210 l 82 -210 q 112 -228 153 -234 q 194 -240 259 -240 l 259 -240 l 584 -240 q 635 -240 670 -241 q 704 -243 729 -247 q 754 -252 775 -260 l 775 -260 q 808 -274 823 -297 q 838 -321 838 -359 l 838 -359 q 838 -389 826 -412 q 813 -436 788 -450 q 762 -464 722 -464 l 722 -464 q 697 -464 680 -457 q 662 -450 651 -438 l 651 -438 q 637 -424 631 -400 q 625 -376 625 -334 l 625 -334 l 625 -266 l 477 -266 l 477 -301 q 477 -353 469 -387 q 461 -421 433 -444 l 433 -444 q 416 -459 389 -468 q 362 -478 319 -478 l 319 -478 q 279 -478 241 -471 q 202 -465 181 -450 l 181 -450 q 178 -447 177 -442 q 175 -437 173 -433 l 173 -433 q 166 -424 164 -413 q 161 -402 161 -389 l 161 -389 q 161 -358 176 -346 q 190 -335 211 -335 l 211 -335 q 228 -335 239 -341 q 249 -347 254 -357 q 258 -367 258 -377 l 258 -377 q 258 -398 244 -410 q 230 -423 205 -423 l 205 -423 q 186 -423 168 -419 q 149 -415 133 -409 l 133 -409 l 84 -434 q 114 -457 156 -468 q 198 -480 242 -480 l 242 -480 q 286 -480 318 -467 q 350 -455 368 -430 q 386 -405 386 -368 l 386 -368 q 386 -337 370 -308 q 353 -280 316 -262 q 278 -245 213 -245 l 213 -245 q 134 -245 85 -282 q 36 -320 36 -391 l 36 -391 q 36 -449 70 -490 q 103 -532 167 -554 q 230 -577 322 -577 z"},"ഝ":{"ha":1861,"x_min":36,"x_max":1824,"o":"m 761 -577 l 761 -577 q 835 -577 891 -561 q 947 -546 989 -514 l 989 -514 q 1037 -478 1062 -422 q 1087 -366 1087 -275 l 1087 -275 l 1087 -258 q 1087 -216 1092 -185 q 1097 -155 1112 -136 l 1112 -136 q 1123 -121 1140 -113 q 1156 -105 1180 -105 l 1180 -105 q 1203 -105 1219 -111 q 1235 -118 1247 -131 l 1247 -131 q 1262 -148 1268 -176 q 1274 -205 1274 -253 l 1274 -253 l 1274 -565 l 1439 -565 l 1439 -251 q 1439 -203 1444 -177 q 1449 -152 1463 -134 l 1463 -134 q 1474 -120 1492 -112 q 1510 -105 1530 -105 l 1530 -105 q 1564 -105 1593 -122 q 1622 -140 1640 -177 q 1657 -215 1657 -273 l 1657 -273 q 1657 -313 1648 -349 q 1638 -385 1618 -422 q 1597 -459 1564 -499 l 1564 -499 l 1684 -577 q 1730 -531 1761 -484 q 1792 -437 1808 -384 q 1824 -331 1824 -267 l 1824 -267 q 1824 -187 1792 -124 q 1759 -61 1697 -24 q 1635 12 1548 12 l 1548 12 q 1482 12 1436 -6 q 1389 -25 1347 -65 l 1347 -65 l 1360 -67 q 1337 -44 1310 -26 q 1282 -8 1247 2 q 1211 12 1164 12 l 1164 12 q 1107 12 1063 -3 q 1019 -19 986 -49 l 986 -49 q 963 -72 948 -102 q 933 -133 926 -170 q 919 -208 919 -252 l 919 -252 l 919 -258 q 919 -299 913 -331 q 907 -364 895 -388 q 883 -413 864 -429 l 864 -429 q 845 -446 817 -455 q 789 -465 751 -465 l 751 -465 q 725 -465 703 -462 q 681 -460 661 -454 l 661 -454 l 636 -448 q 593 -430 561 -397 q 529 -365 512 -322 q 495 -280 495 -232 l 495 -232 q 495 -182 507 -154 q 518 -126 537 -115 q 555 -104 576 -104 l 576 -104 q 597 -104 616 -115 q 634 -126 646 -153 q 657 -181 657 -229 l 657 -229 q 657 -279 641 -321 q 624 -363 594 -395 q 564 -428 524 -446 l 524 -446 l 496 -454 q 477 -460 457 -462 q 437 -465 416 -465 l 416 -465 q 341 -465 295 -441 q 248 -418 226 -376 q 204 -335 204 -281 l 204 -281 q 204 -238 215 -202 q 226 -166 248 -133 q 270 -101 302 -66 l 302 -66 l 186 12 q 142 -26 109 -68 q 75 -111 56 -163 q 36 -216 36 -282 l 36 -282 q 36 -335 55 -387 q 73 -439 115 -482 q 157 -525 227 -551 q 297 -577 401 -577 l 401 -577 q 464 -577 516 -566 q 567 -556 614 -533 l 614 -533 l 644 -511 q 727 -468 775 -398 q 823 -328 823 -228 l 823 -228 q 823 -147 795 -93 q 766 -40 711 -14 q 656 12 576 12 l 576 12 q 497 12 442 -16 q 387 -44 358 -98 q 329 -152 329 -230 l 329 -230 q 329 -291 351 -343 q 373 -395 414 -436 q 455 -478 512 -508 l 512 -508 l 547 -532 q 598 -556 648 -566 q 698 -577 761 -577 z"},"ഞ":{"ha":1657,"x_min":35,"x_max":1621,"o":"m 410 -577 l 410 -577 q 501 -577 565 -553 q 628 -529 679 -476 l 679 -476 l 682 -433 l 730 -223 l 730 0 l 564 0 l 564 -271 q 564 -342 553 -376 q 542 -410 519 -429 l 519 -429 q 501 -444 474 -452 q 447 -461 406 -461 l 406 -461 q 345 -461 295 -436 q 245 -411 216 -362 q 186 -314 186 -242 l 186 -242 l 186 -238 q 186 -184 197 -153 q 208 -122 227 -109 q 245 -97 267 -97 l 267 -97 q 286 -97 299 -105 q 312 -113 319 -129 q 326 -145 326 -170 l 326 -170 q 326 -205 310 -224 q 293 -244 261 -244 l 261 -244 q 225 -244 195 -223 q 164 -203 127 -162 l 127 -162 l 110 -271 q 144 -302 192 -327 q 240 -353 303 -353 l 303 -353 q 363 -353 404 -330 q 445 -308 466 -269 q 486 -230 486 -177 l 486 -177 q 486 -118 462 -75 q 437 -33 390 -10 q 342 12 272 12 l 272 12 q 208 12 154 -14 q 100 -40 68 -96 q 35 -153 35 -243 l 35 -243 q 35 -351 85 -425 q 134 -500 219 -538 q 304 -577 410 -577 z m 910 -577 l 910 -577 q 968 -577 1018 -566 q 1067 -556 1114 -534 l 1114 -534 l 1143 -511 q 1226 -468 1274 -398 q 1322 -328 1322 -228 l 1322 -228 q 1322 -147 1294 -93 q 1265 -40 1210 -14 q 1155 12 1075 12 l 1075 12 q 996 12 941 -16 q 885 -44 857 -98 q 828 -152 828 -230 l 828 -230 q 828 -291 851 -343 q 873 -395 916 -436 q 958 -478 1014 -509 l 1014 -509 l 1049 -531 q 1096 -553 1151 -565 q 1205 -577 1272 -577 l 1272 -577 q 1370 -577 1437 -552 q 1504 -527 1545 -484 q 1585 -442 1603 -389 q 1621 -336 1621 -282 l 1621 -282 q 1621 -215 1602 -162 q 1583 -110 1549 -68 q 1515 -26 1469 12 l 1469 12 l 1355 -66 q 1385 -98 1407 -130 q 1429 -162 1441 -198 q 1453 -235 1453 -280 l 1453 -280 q 1453 -337 1432 -378 q 1410 -420 1368 -442 q 1325 -465 1261 -465 l 1261 -465 q 1230 -465 1207 -462 q 1183 -460 1162 -454 l 1162 -454 l 1138 -448 q 1093 -429 1061 -395 q 1028 -362 1011 -320 q 994 -278 994 -232 l 994 -232 q 994 -182 1005 -154 q 1016 -126 1035 -115 q 1053 -104 1074 -104 l 1074 -104 q 1096 -104 1115 -115 q 1133 -126 1145 -153 q 1156 -181 1156 -229 l 1156 -229 q 1156 -279 1140 -321 q 1123 -363 1093 -395 q 1063 -428 1023 -446 l 1023 -446 l 996 -454 q 983 -459 967 -461 q 951 -463 935 -464 q 919 -465 904 -465 l 904 -465 q 859 -465 831 -454 q 803 -444 785 -430 l 785 -430 q 754 -406 742 -364 q 730 -323 730 -247 l 730 -247 l 730 -20 l 579 -20 l 579 -260 l 623 -470 q 653 -499 691 -523 q 728 -547 781 -562 q 834 -577 910 -577 z"},"ട":{"ha":630,"x_min":14,"x_max":609,"o":"m 303 -577 l 303 -577 q 403 -577 481 -556 q 559 -535 609 -508 l 609 -508 l 543 -405 q 489 -431 436 -445 q 383 -460 314 -460 l 314 -460 q 271 -460 246 -452 q 220 -444 209 -431 q 197 -418 197 -400 l 197 -400 q 197 -388 202 -379 q 206 -370 213 -363 l 213 -363 q 227 -353 252 -349 q 277 -345 317 -345 l 317 -345 l 341 -345 q 428 -345 478 -330 q 527 -315 558 -284 l 558 -284 q 580 -263 591 -234 q 601 -206 601 -169 l 601 -169 q 601 -116 571 -75 q 541 -34 479 -11 q 417 12 321 12 l 321 12 q 227 12 152 -6 q 77 -25 14 -58 l 14 -58 l 78 -165 q 118 -144 154 -131 q 189 -118 227 -112 q 264 -106 308 -106 l 308 -106 q 353 -106 380 -114 q 407 -122 420 -137 q 432 -152 432 -171 l 432 -171 q 432 -183 428 -193 q 424 -203 414 -209 l 414 -209 q 402 -219 382 -223 q 361 -227 317 -227 l 317 -227 l 296 -227 q 217 -227 161 -240 q 104 -254 70 -287 l 70 -287 q 50 -306 39 -333 q 28 -361 28 -398 l 28 -398 q 28 -449 58 -489 q 88 -530 149 -553 q 210 -577 303 -577 z"},"ഠ":{"ha":731,"x_min":36,"x_max":695,"o":"m 363 -577 l 363 -577 q 468 -577 542 -540 q 616 -504 656 -437 q 695 -371 695 -282 l 695 -282 q 695 -193 656 -127 q 616 -61 543 -24 q 469 12 365 12 l 365 12 q 253 12 180 -28 q 106 -68 71 -136 q 36 -204 36 -285 l 36 -285 q 36 -373 76 -439 q 115 -505 188 -541 q 261 -577 363 -577 z m 365 -106 l 365 -106 q 420 -106 456 -128 q 491 -151 509 -191 q 527 -232 527 -284 l 527 -284 q 527 -336 509 -375 q 491 -415 456 -437 q 420 -460 366 -460 l 366 -460 q 288 -460 246 -413 q 204 -367 204 -284 l 204 -284 q 204 -203 246 -154 q 287 -106 365 -106 z"},"ഡ":{"ha":1362,"x_min":36,"x_max":1326,"o":"m 663 12 l 663 12 q 606 12 563 -3 q 519 -18 485 -49 l 485 -49 q 461 -71 445 -101 q 429 -131 422 -170 q 414 -209 414 -260 l 414 -260 l 414 -297 q 414 -347 409 -379 q 404 -411 389 -430 l 389 -430 q 378 -445 361 -452 q 343 -460 317 -460 l 317 -460 q 286 -460 261 -444 q 235 -428 220 -391 q 204 -355 204 -293 l 204 -293 q 204 -253 214 -216 q 223 -180 243 -143 q 263 -107 296 -66 l 296 -66 l 177 13 q 132 -35 101 -82 q 69 -129 53 -181 q 36 -234 36 -299 l 36 -299 q 36 -382 71 -445 q 105 -508 168 -542 q 231 -577 319 -577 l 319 -577 q 386 -577 434 -561 q 482 -545 514 -515 l 514 -515 q 539 -493 554 -461 q 569 -429 576 -388 q 583 -348 583 -297 l 583 -297 l 583 -275 q 583 -216 588 -185 q 593 -154 609 -135 l 609 -135 q 620 -121 637 -113 q 654 -105 679 -105 l 679 -105 q 701 -105 719 -112 q 736 -119 748 -131 l 748 -131 q 764 -149 770 -177 q 775 -205 775 -253 l 775 -253 l 775 -565 l 941 -565 l 941 -251 q 941 -202 946 -177 q 951 -152 965 -134 l 965 -134 q 977 -120 995 -112 q 1012 -105 1032 -105 l 1032 -105 q 1065 -105 1094 -122 q 1123 -140 1141 -177 q 1158 -215 1158 -273 l 1158 -273 q 1158 -313 1149 -349 q 1140 -385 1120 -422 q 1099 -459 1066 -499 l 1066 -499 l 1186 -577 q 1232 -531 1263 -483 q 1294 -436 1310 -383 q 1326 -331 1326 -266 l 1326 -266 q 1326 -187 1294 -124 q 1261 -61 1199 -24 q 1137 12 1049 12 l 1049 12 q 984 12 938 -6 q 891 -25 849 -65 l 849 -65 l 862 -67 q 824 -29 779 -8 q 733 12 663 12 z"},"ഢ":{"ha":1505,"x_min":36,"x_max":1470,"o":"m 663 12 l 663 12 q 606 12 563 -3 q 519 -18 485 -49 l 485 -49 q 461 -71 445 -101 q 429 -131 422 -170 q 414 -209 414 -261 l 414 -261 l 414 -297 q 414 -347 409 -379 q 404 -411 389 -430 l 389 -430 q 378 -445 361 -452 q 343 -460 317 -460 l 317 -460 q 286 -460 261 -444 q 235 -428 220 -391 q 204 -355 204 -294 l 204 -294 q 204 -254 213 -217 q 222 -180 243 -143 q 263 -107 296 -66 l 296 -66 l 177 13 q 132 -35 101 -82 q 69 -129 53 -182 q 36 -235 36 -299 l 36 -299 q 36 -383 71 -445 q 105 -508 168 -542 q 231 -577 319 -577 l 319 -577 q 386 -577 434 -561 q 482 -545 514 -515 l 514 -515 q 539 -493 554 -461 q 569 -429 576 -388 q 583 -348 583 -297 l 583 -297 l 583 -276 q 583 -216 588 -185 q 593 -154 609 -135 l 609 -135 q 620 -121 637 -113 q 654 -105 679 -105 l 679 -105 q 701 -105 719 -112 q 736 -119 748 -131 l 748 -131 q 764 -149 770 -177 q 775 -205 775 -253 l 775 -253 l 775 -565 l 941 -565 l 941 -279 l 862 -67 q 825 -29 779 -8 q 733 12 663 12 z m 1233 -577 l 1233 -577 q 1298 -577 1352 -551 q 1405 -525 1438 -469 q 1470 -414 1470 -323 l 1470 -323 q 1470 -215 1421 -140 q 1371 -66 1286 -27 q 1201 12 1096 12 l 1096 12 q 1004 12 941 -12 q 878 -37 826 -89 l 826 -89 l 785 -322 l 785 -529 l 941 -529 l 941 -295 q 941 -224 952 -189 q 963 -155 986 -136 l 986 -136 q 1004 -121 1031 -112 q 1058 -104 1099 -104 l 1099 -104 q 1161 -104 1211 -129 q 1261 -154 1290 -203 q 1319 -252 1319 -323 l 1319 -323 l 1319 -328 q 1319 -382 1308 -412 q 1297 -443 1279 -455 q 1260 -468 1238 -468 l 1238 -468 q 1219 -468 1206 -460 q 1193 -452 1186 -436 q 1179 -420 1179 -395 l 1179 -395 q 1179 -361 1196 -341 q 1212 -321 1244 -321 l 1244 -321 q 1280 -321 1311 -341 q 1342 -362 1379 -403 l 1379 -403 l 1395 -294 q 1361 -263 1314 -238 q 1266 -213 1203 -213 l 1203 -213 q 1142 -213 1102 -235 q 1061 -258 1040 -297 q 1019 -337 1019 -388 l 1019 -388 q 1019 -447 1044 -489 q 1068 -532 1116 -554 q 1163 -577 1233 -577 z"},"ണ":{"ha":1518,"x_min":35,"x_max":1482,"o":"m 410 -577 l 410 -577 q 501 -577 565 -553 q 628 -529 679 -476 l 679 -476 l 637 -498 q 672 -537 720 -557 q 767 -577 830 -577 l 830 -577 q 892 -577 936 -558 q 979 -540 1018 -497 l 1018 -497 l 1004 -501 q 1047 -541 1094 -559 q 1140 -577 1205 -577 l 1205 -577 q 1293 -577 1355 -540 q 1416 -504 1449 -441 q 1482 -379 1482 -299 l 1482 -299 q 1482 -235 1466 -182 q 1449 -129 1418 -81 q 1387 -34 1342 12 l 1342 12 l 1221 -66 q 1255 -107 1275 -144 q 1295 -181 1305 -217 q 1314 -253 1314 -292 l 1314 -292 q 1314 -351 1297 -388 q 1279 -425 1250 -443 q 1221 -461 1187 -461 l 1187 -461 q 1167 -461 1150 -453 q 1132 -445 1120 -431 l 1120 -431 q 1106 -414 1101 -388 q 1096 -363 1096 -314 l 1096 -314 l 1096 0 l 931 0 l 931 -312 q 931 -360 925 -388 q 918 -417 902 -434 l 902 -434 q 891 -447 873 -454 q 855 -461 830 -461 l 830 -461 q 807 -461 789 -453 q 771 -445 759 -432 l 759 -432 q 743 -414 737 -385 q 730 -357 730 -303 l 730 -303 l 730 0 l 564 0 l 564 -270 q 564 -342 553 -376 q 542 -410 519 -429 l 519 -429 q 501 -444 474 -452 q 447 -461 406 -461 l 406 -461 q 345 -461 295 -436 q 245 -411 216 -362 q 186 -314 186 -242 l 186 -242 l 186 -238 q 186 -184 197 -153 q 208 -122 227 -109 q 245 -97 267 -97 l 267 -97 q 286 -97 299 -105 q 312 -113 319 -129 q 326 -145 326 -170 l 326 -170 q 326 -205 310 -224 q 293 -244 261 -244 l 261 -244 q 225 -244 195 -223 q 164 -203 127 -162 l 127 -162 l 110 -271 q 144 -302 192 -327 q 240 -353 303 -353 l 303 -353 q 363 -353 404 -330 q 445 -308 466 -268 q 486 -229 486 -176 l 486 -176 q 486 -118 462 -75 q 437 -33 390 -10 q 342 12 272 12 l 272 12 q 208 12 154 -14 q 100 -40 68 -96 q 35 -153 35 -243 l 35 -243 q 35 -351 85 -425 q 134 -500 219 -538 q 304 -577 410 -577 z"},"ത":{"ha":1158,"x_min":36,"x_max":1122,"o":"m 576 12 l 576 12 q 497 12 442 -16 q 387 -44 358 -98 q 329 -152 329 -230 l 329 -230 q 329 -291 352 -343 q 374 -395 417 -436 q 459 -478 515 -509 l 515 -509 l 550 -531 q 597 -553 651 -565 q 705 -577 773 -577 l 773 -577 q 871 -577 938 -552 q 1005 -527 1046 -484 q 1086 -442 1104 -389 q 1122 -336 1122 -282 l 1122 -282 q 1122 -215 1103 -162 q 1084 -110 1050 -68 q 1016 -26 970 12 l 970 12 l 857 -66 q 887 -98 909 -130 q 930 -162 942 -198 q 954 -235 954 -280 l 954 -280 q 954 -337 933 -378 q 911 -420 869 -442 q 826 -465 762 -465 l 762 -465 q 731 -465 708 -462 q 684 -460 663 -454 l 663 -454 l 639 -448 q 594 -429 562 -396 q 529 -363 512 -320 q 495 -278 495 -232 l 495 -232 q 495 -182 507 -154 q 518 -126 537 -115 q 555 -104 576 -104 l 576 -104 q 597 -104 616 -115 q 634 -126 646 -153 q 657 -181 657 -229 l 657 -229 q 657 -279 641 -321 q 624 -363 594 -395 q 564 -428 524 -446 l 524 -446 l 497 -454 q 478 -460 458 -462 q 438 -465 416 -465 l 416 -465 q 341 -465 295 -441 q 248 -418 226 -376 q 204 -335 204 -281 l 204 -281 q 204 -238 215 -202 q 226 -166 248 -133 q 270 -101 302 -66 l 302 -66 l 186 12 q 142 -26 109 -68 q 75 -111 56 -163 q 36 -216 36 -282 l 36 -282 q 36 -335 55 -387 q 73 -439 115 -482 q 157 -525 227 -551 q 297 -577 400 -577 l 400 -577 q 463 -577 515 -566 q 567 -556 614 -533 l 614 -533 l 644 -511 q 727 -468 775 -398 q 823 -328 823 -228 l 823 -228 q 823 -147 795 -93 q 766 -40 711 -14 q 656 12 576 12 z"},"ഥ":{"ha":995,"x_min":59,"x_max":940,"o":"m 59 -565 l 224 -565 l 224 -116 l 424 -116 l 424 0 l 59 0 l 59 -565 z m 650 -577 l 650 -577 q 719 -577 774 -559 q 828 -541 866 -505 l 866 -505 q 905 -470 923 -419 q 940 -369 940 -289 l 940 -289 l 940 0 l 360 0 l 360 -284 q 360 -342 368 -382 q 376 -423 394 -453 q 411 -483 436 -507 l 436 -507 q 474 -541 528 -559 q 582 -577 650 -577 z m 652 -461 l 652 -461 q 621 -461 599 -452 q 576 -444 560 -427 l 560 -427 q 543 -408 534 -376 q 525 -344 525 -284 l 525 -284 l 525 -116 l 775 -116 l 775 -277 q 775 -341 767 -374 q 758 -408 741 -427 l 741 -427 q 727 -444 706 -452 q 684 -461 652 -461 z"},"ദ":{"ha":731,"x_min":42,"x_max":698,"o":"m 433 -577 l 433 -577 q 522 -577 578 -555 q 634 -534 661 -498 q 687 -462 687 -418 l 687 -418 q 687 -372 667 -338 q 647 -305 596 -280 l 596 -280 l 594 -285 q 648 -266 673 -229 q 698 -193 698 -146 l 698 -146 q 698 -71 643 -29 q 587 12 480 12 l 480 12 q 440 12 407 8 q 373 4 346 -1 l 346 -1 l 366 -114 q 390 -109 410 -106 q 430 -104 452 -104 l 452 -104 q 495 -104 514 -116 q 533 -129 533 -160 l 533 -160 q 533 -174 527 -185 q 521 -196 509 -205 l 509 -205 q 496 -214 477 -218 q 457 -222 421 -222 l 421 -222 l 369 -222 l 369 -336 l 418 -336 q 450 -336 471 -341 q 491 -346 505 -358 l 505 -358 q 513 -365 518 -375 q 522 -385 522 -398 l 522 -398 q 522 -428 499 -445 q 475 -462 427 -462 l 427 -462 q 356 -462 308 -431 q 259 -400 235 -344 q 210 -289 210 -213 l 210 -213 q 210 -166 217 -117 q 224 -68 237 -25 l 237 -25 l 81 4 q 63 -46 53 -107 q 42 -169 42 -223 l 42 -223 q 42 -332 86 -411 q 129 -490 216 -533 q 303 -577 433 -577 z"},"ധ":{"ha":1017,"x_min":36,"x_max":980,"o":"m 695 12 l 695 12 q 650 12 618 4 q 585 -4 558 -20 q 530 -37 502 -62 l 502 -62 l 516 -64 q 475 -25 429 -6 q 382 12 315 12 l 315 12 q 227 12 165 -24 q 102 -61 69 -124 q 36 -187 36 -266 l 36 -266 q 36 -330 52 -383 q 68 -436 100 -483 q 131 -531 176 -577 l 176 -577 l 296 -499 q 263 -459 243 -422 q 223 -385 214 -349 q 204 -313 204 -273 l 204 -273 q 204 -214 222 -176 q 240 -139 270 -122 q 300 -105 333 -105 l 333 -105 q 358 -105 375 -113 q 391 -122 401 -133 l 401 -133 q 415 -150 421 -175 q 426 -200 426 -241 l 426 -241 l 426 -565 l 591 -565 l 591 -244 q 591 -202 596 -176 q 601 -150 614 -133 l 614 -133 q 624 -121 641 -113 q 657 -105 684 -105 l 684 -105 q 716 -105 745 -121 q 774 -138 794 -174 q 813 -211 813 -269 l 813 -269 q 813 -310 804 -347 q 794 -384 774 -421 q 753 -458 720 -499 l 720 -499 l 841 -577 q 887 -530 918 -483 q 949 -436 965 -384 q 980 -332 980 -269 l 980 -269 q 980 -190 948 -126 q 915 -62 851 -25 q 787 12 695 12 z"},"ന":{"ha":1017,"x_min":36,"x_max":980,"o":"m 321 -577 l 321 -577 q 367 -577 400 -569 q 432 -561 460 -545 q 487 -529 515 -504 l 515 -504 l 501 -502 q 542 -541 589 -559 q 635 -577 702 -577 l 702 -577 q 790 -577 853 -540 q 915 -504 948 -441 q 980 -379 980 -299 l 980 -299 q 980 -235 964 -182 q 948 -130 917 -82 q 886 -35 840 12 l 840 12 l 720 -66 q 753 -107 774 -144 q 794 -181 804 -217 q 813 -253 813 -292 l 813 -292 q 813 -352 795 -389 q 776 -426 747 -443 q 718 -461 683 -461 l 683 -461 q 658 -461 642 -452 q 625 -444 615 -432 l 615 -432 q 602 -415 597 -390 q 591 -365 591 -324 l 591 -324 l 591 0 l 425 0 l 425 -322 q 425 -363 421 -389 q 416 -415 402 -432 l 402 -432 q 393 -444 376 -452 q 359 -461 333 -461 l 333 -461 q 301 -461 272 -444 q 242 -427 223 -391 q 204 -355 204 -296 l 204 -296 q 204 -255 214 -218 q 223 -182 243 -145 q 263 -108 297 -66 l 297 -66 l 176 12 q 130 -35 99 -82 q 68 -129 52 -181 q 36 -234 36 -296 l 36 -296 q 36 -376 69 -439 q 102 -503 166 -540 q 229 -577 321 -577 z"},"ഩ":{"ha":1156,"x_min":35,"x_max":1119,"o":"m 410 -577 l 410 -577 q 501 -577 565 -553 q 628 -529 679 -476 l 679 -476 l 636 -499 q 676 -540 725 -558 q 774 -577 840 -577 l 840 -577 q 929 -577 992 -540 q 1054 -504 1087 -441 q 1119 -379 1119 -299 l 1119 -299 q 1119 -234 1103 -181 q 1087 -129 1056 -82 q 1024 -35 979 12 l 979 12 l 859 -66 q 892 -107 913 -144 q 933 -181 943 -217 q 952 -253 952 -292 l 952 -292 q 952 -352 934 -389 q 915 -426 886 -443 q 857 -461 822 -461 l 822 -461 q 797 -461 781 -452 q 764 -444 754 -432 l 754 -432 q 741 -415 736 -390 q 730 -365 730 -324 l 730 -324 l 730 0 l 564 0 l 564 -270 q 564 -342 553 -376 q 542 -410 519 -429 l 519 -429 q 501 -444 474 -452 q 447 -461 406 -461 l 406 -461 q 345 -461 295 -436 q 245 -411 216 -362 q 186 -314 186 -242 l 186 -242 l 186 -238 q 186 -184 197 -153 q 208 -122 227 -109 q 245 -97 267 -97 l 267 -97 q 286 -97 299 -105 q 312 -113 319 -129 q 326 -145 326 -170 l 326 -170 q 326 -205 310 -224 q 293 -244 261 -244 l 261 -244 q 225 -244 195 -223 q 164 -203 127 -162 l 127 -162 l 110 -271 q 144 -302 192 -327 q 240 -353 303 -353 l 303 -353 q 363 -353 404 -330 q 445 -308 466 -269 q 486 -230 486 -177 l 486 -177 q 486 -118 462 -75 q 437 -33 390 -10 q 342 12 272 12 l 272 12 q 208 12 154 -14 q 100 -40 68 -96 q 35 -153 35 -243 l 35 -243 q 35 -351 85 -425 q 134 -500 219 -538 q 304 -577 410 -577 z"},"പ":{"ha":993,"x_min":28,"x_max":934,"o":"m 274 -367 l 274 -367 q 359 -367 413 -337 q 466 -308 491 -263 q 516 -219 516 -172 l 516 -172 q 516 -145 509 -119 q 502 -93 492 -72 l 492 -72 l 488 -116 l 768 -116 l 768 -565 l 934 -565 l 934 0 l 382 0 l 325 -64 q 336 -81 347 -105 q 357 -129 357 -162 l 357 -162 q 357 -199 338 -225 q 318 -252 276 -252 l 276 -252 q 247 -252 229 -240 q 210 -228 201 -207 q 192 -187 192 -161 l 192 -161 q 192 -125 205 -97 q 218 -70 235 -44 l 235 -44 l 107 12 q 70 -27 49 -71 q 28 -115 28 -170 l 28 -170 q 28 -230 60 -274 q 91 -319 146 -343 q 201 -367 274 -367 z"},"ഫ":{"ha":1266,"x_min":28,"x_max":1211,"o":"m 274 -367 l 274 -367 q 359 -367 413 -337 q 466 -308 491 -263 q 516 -219 516 -172 l 516 -172 q 516 -145 509 -119 q 502 -93 492 -72 l 492 -72 l 485 -116 l 762 -116 l 763 0 l 382 0 l 325 -64 q 336 -81 347 -105 q 357 -129 357 -162 l 357 -162 q 357 -199 338 -225 q 318 -252 276 -252 l 276 -252 q 247 -252 229 -240 q 210 -228 201 -207 q 192 -187 192 -161 l 192 -161 q 192 -125 205 -97 q 218 -70 235 -44 l 235 -44 l 107 12 q 70 -27 49 -71 q 28 -115 28 -170 l 28 -170 q 28 -230 60 -274 q 91 -319 146 -343 q 201 -367 274 -367 z m 921 -577 l 921 -577 q 990 -577 1045 -559 q 1099 -541 1136 -505 l 1136 -505 q 1175 -470 1193 -419 q 1211 -369 1211 -289 l 1211 -289 l 1211 0 l 631 0 l 631 -284 q 631 -342 639 -382 q 647 -423 665 -453 q 682 -483 707 -507 l 707 -507 q 745 -541 799 -559 q 853 -577 921 -577 z m 923 -461 l 923 -461 q 892 -461 870 -452 q 847 -444 831 -427 l 831 -427 q 814 -408 805 -376 q 796 -344 796 -284 l 796 -284 l 796 -116 l 1046 -116 l 1046 -277 q 1046 -341 1038 -374 q 1029 -408 1012 -427 l 1012 -427 q 998 -444 977 -452 q 955 -461 923 -461 z"},"ബ":{"ha":1477,"x_min":35,"x_max":1418,"o":"m 410 -577 l 410 -577 q 501 -577 565 -553 q 628 -529 679 -476 l 679 -476 l 707 -402 l 730 -280 l 730 0 l 564 0 l 564 -271 q 564 -342 553 -376 q 542 -410 519 -429 l 519 -429 q 501 -444 474 -452 q 447 -461 406 -461 l 406 -461 q 345 -461 295 -436 q 245 -411 216 -362 q 186 -314 186 -242 l 186 -242 l 186 -238 q 186 -184 197 -153 q 208 -122 227 -109 q 245 -97 267 -97 l 267 -97 q 286 -97 299 -105 q 312 -113 319 -129 q 326 -145 326 -170 l 326 -170 q 326 -205 310 -224 q 293 -244 261 -244 l 261 -244 q 225 -244 195 -223 q 164 -203 127 -162 l 127 -162 l 110 -271 q 144 -302 192 -327 q 240 -353 303 -353 l 303 -353 q 363 -353 404 -330 q 445 -308 466 -269 q 486 -230 486 -177 l 486 -177 q 486 -118 462 -75 q 437 -33 390 -10 q 342 12 272 12 l 272 12 q 208 12 154 -14 q 100 -40 68 -96 q 35 -153 35 -243 l 35 -243 q 35 -351 85 -425 q 134 -500 219 -538 q 304 -577 410 -577 z m 1252 -565 l 1418 -565 l 1418 0 l 908 0 l 862 -63 q 894 -108 913 -145 q 932 -182 941 -217 q 950 -252 950 -292 l 950 -292 q 950 -352 933 -389 q 915 -426 886 -443 q 857 -461 822 -461 l 822 -461 q 797 -461 781 -452 q 764 -444 754 -432 l 754 -432 q 741 -415 736 -390 q 730 -365 730 -324 l 730 -324 l 730 -5 l 574 -5 l 574 -237 l 624 -423 l 636 -499 q 676 -540 725 -558 q 773 -577 840 -577 l 840 -577 q 928 -577 991 -540 q 1053 -504 1086 -441 q 1118 -378 1118 -299 l 1118 -299 q 1118 -259 1112 -224 q 1105 -189 1091 -157 q 1077 -125 1054 -95 l 1054 -95 l 1017 -116 l 1252 -116 l 1252 -565 z"},"ഭ":{"ha":761,"x_min":42,"x_max":731,"o":"m 459 -577 l 459 -577 q 543 -577 604 -559 q 665 -542 698 -507 q 731 -473 731 -422 l 731 -422 q 731 -393 723 -371 q 714 -350 699 -336 l 699 -336 q 677 -316 646 -308 q 614 -300 557 -300 l 557 -300 l 520 -300 q 496 -300 485 -298 q 474 -297 467 -293 l 467 -293 q 461 -290 459 -285 q 456 -281 456 -274 l 456 -274 q 456 -259 475 -255 q 493 -251 524 -251 l 524 -251 l 547 -251 q 601 -251 635 -243 q 668 -235 691 -216 l 691 -216 q 710 -201 720 -179 q 730 -158 730 -126 l 730 -126 q 730 -87 708 -55 q 686 -24 639 -6 q 591 12 514 12 l 514 12 q 466 12 429 8 q 391 4 359 -3 q 327 -11 294 -23 l 294 -23 l 343 -126 q 383 -113 419 -106 q 455 -100 498 -100 l 498 -100 q 544 -100 561 -106 q 578 -113 578 -126 l 578 -126 q 578 -139 567 -143 q 556 -148 535 -148 l 535 -148 l 517 -148 q 438 -148 396 -159 q 353 -171 331 -196 l 331 -196 q 318 -210 311 -229 q 304 -248 304 -273 l 304 -273 q 304 -301 314 -323 q 324 -346 343 -362 l 343 -362 q 370 -383 408 -392 q 446 -402 505 -402 l 505 -402 l 534 -402 q 557 -402 567 -407 q 576 -413 576 -425 l 576 -425 q 576 -445 544 -454 q 512 -463 459 -463 l 459 -463 q 372 -463 317 -432 q 262 -402 236 -346 q 210 -291 210 -213 l 210 -213 q 210 -166 217 -117 q 224 -68 237 -25 l 237 -25 l 81 4 q 63 -46 53 -107 q 42 -169 42 -223 l 42 -223 q 42 -333 87 -412 q 132 -491 225 -534 q 317 -577 459 -577 z"},"മ":{"ha":832,"x_min":54,"x_max":779,"o":"m 405 -577 l 405 -577 q 497 -577 566 -558 q 635 -539 682 -503 l 682 -503 q 715 -477 736 -443 q 757 -410 768 -363 q 779 -317 779 -250 l 779 -250 l 779 0 l 54 0 l 54 -250 q 54 -314 65 -361 q 75 -408 97 -443 q 119 -478 151 -504 l 151 -504 q 196 -540 258 -558 q 320 -577 405 -577 z m 327 -459 l 327 -459 q 301 -459 281 -445 q 261 -432 247 -409 l 247 -409 q 233 -386 226 -351 q 219 -317 219 -261 l 219 -261 l 219 -68 l 173 -69 q 230 -119 278 -171 q 325 -223 353 -277 q 381 -332 381 -390 l 381 -390 q 381 -409 377 -424 q 372 -440 360 -449 q 348 -459 327 -459 z m 544 -367 l 544 -367 q 544 -320 526 -276 q 508 -232 477 -190 q 445 -148 404 -106 l 404 -106 l 382 -110 q 405 -114 430 -114 q 455 -115 474 -115 l 474 -115 l 614 -115 l 614 -248 q 614 -312 603 -354 q 592 -396 568 -423 q 543 -450 502 -468 l 502 -468 l 504 -475 q 521 -457 533 -431 q 544 -405 544 -367 z"},"യ":{"ha":1167,"x_min":34,"x_max":1129,"o":"m 746 12 l 746 12 q 690 12 643 3 q 596 -7 546 -29 l 546 -29 q 538 -32 528 -37 q 517 -43 509 -48 l 509 -48 q 451 -81 413 -125 q 374 -170 355 -223 q 336 -276 336 -335 l 336 -335 q 336 -374 345 -405 q 354 -437 369 -462 l 369 -462 l 382 -477 q 404 -514 437 -536 q 469 -558 509 -567 q 549 -577 590 -577 l 590 -577 q 709 -577 776 -516 q 843 -455 843 -333 l 843 -333 q 843 -239 797 -169 q 750 -99 677 -56 l 677 -56 q 667 -50 659 -44 q 651 -39 640 -34 l 640 -34 q 591 -11 536 1 q 481 12 421 12 l 421 12 q 325 12 253 -12 q 180 -37 132 -83 q 83 -129 59 -192 q 34 -256 34 -333 l 34 -333 q 34 -404 64 -459 q 93 -514 152 -545 q 210 -577 296 -577 l 296 -577 q 365 -577 421 -551 q 477 -526 513 -466 l 513 -466 l 386 -403 q 366 -434 345 -448 q 324 -462 296 -462 l 296 -462 q 266 -462 245 -446 q 223 -430 212 -402 q 200 -374 200 -333 l 200 -333 q 200 -266 227 -213 q 254 -160 306 -130 q 357 -100 429 -100 l 429 -100 q 453 -100 475 -103 q 497 -106 516 -111 l 516 -111 q 526 -114 537 -115 q 547 -116 556 -120 l 556 -120 q 589 -136 617 -167 q 644 -198 661 -240 q 677 -283 677 -335 l 677 -335 q 677 -382 665 -409 q 652 -437 632 -449 q 612 -462 590 -462 l 590 -462 q 565 -462 545 -448 q 525 -435 514 -407 q 502 -379 502 -334 l 502 -334 q 502 -285 517 -242 q 532 -200 559 -168 q 585 -137 621 -118 l 621 -118 q 632 -113 641 -113 q 649 -114 660 -111 l 660 -111 q 677 -106 699 -103 q 721 -100 745 -100 l 745 -100 q 810 -100 859 -125 q 907 -150 934 -199 q 960 -248 960 -318 l 960 -318 q 960 -362 948 -407 q 935 -453 900 -503 l 900 -503 l 1028 -576 q 1081 -514 1105 -449 q 1129 -384 1129 -316 l 1129 -316 q 1129 -255 1111 -196 q 1092 -138 1048 -91 q 1004 -44 930 -16 q 856 12 746 12 z"},"ര":{"ha":838,"x_min":36,"x_max":804,"o":"m 405 -577 l 405 -577 q 507 -577 582 -550 q 657 -523 706 -476 q 755 -429 780 -367 q 804 -306 804 -236 l 804 -236 q 804 -154 775 -98 q 745 -43 689 -15 q 632 12 552 12 l 552 12 q 471 12 421 -18 q 370 -48 347 -97 q 323 -147 323 -206 l 323 -206 q 323 -298 376 -354 q 429 -410 527 -410 l 527 -410 q 588 -410 634 -380 q 680 -350 708 -303 q 735 -256 738 -204 l 738 -204 l 675 -205 q 669 -230 655 -252 q 641 -274 619 -288 q 597 -303 568 -303 l 568 -303 q 525 -303 504 -277 q 483 -251 483 -203 l 483 -203 q 483 -172 492 -149 q 500 -127 517 -115 q 534 -104 558 -104 l 558 -104 q 585 -104 604 -118 q 622 -132 632 -162 q 642 -193 642 -240 l 642 -240 q 642 -255 641 -272 q 639 -290 636 -306 l 636 -306 q 635 -311 636 -318 q 637 -325 635 -329 l 635 -329 q 629 -365 602 -394 q 575 -424 530 -442 q 484 -460 420 -460 l 420 -460 q 348 -460 301 -438 q 253 -416 229 -376 q 205 -336 205 -281 l 205 -281 q 205 -238 217 -202 q 228 -166 250 -133 q 272 -100 303 -66 l 303 -66 l 186 12 q 143 -26 109 -69 q 75 -112 56 -164 q 36 -217 36 -282 l 36 -282 q 36 -338 56 -390 q 76 -443 120 -485 q 163 -527 234 -552 q 305 -577 405 -577 z"},"റ":{"ha":760,"x_min":36,"x_max":724,"o":"m 380 -577 l 380 -577 q 475 -577 541 -552 q 606 -527 647 -484 q 687 -442 706 -389 q 724 -336 724 -282 l 724 -282 q 724 -216 705 -164 q 685 -112 651 -69 q 617 -26 572 12 l 572 12 l 455 -66 q 485 -99 507 -130 q 529 -162 541 -198 q 553 -235 553 -280 l 553 -280 q 553 -335 532 -375 q 510 -415 472 -437 q 433 -460 381 -460 l 381 -460 q 330 -460 291 -438 q 251 -417 229 -377 q 207 -337 207 -281 l 207 -281 q 207 -238 218 -202 q 229 -166 251 -133 q 272 -100 304 -66 l 304 -66 l 186 12 q 143 -26 109 -69 q 75 -112 56 -164 q 36 -217 36 -282 l 36 -282 q 36 -335 55 -387 q 74 -439 115 -482 q 155 -525 221 -551 q 287 -577 380 -577 z"},"ല":{"ha":956,"x_min":55,"x_max":896,"o":"m 731 -565 l 896 -565 l 896 0 l 55 0 l 55 -300 q 55 -382 76 -430 q 96 -478 132 -511 l 132 -511 q 167 -543 219 -560 q 270 -577 337 -577 l 337 -577 q 406 -577 457 -560 q 507 -543 542 -510 l 542 -510 q 580 -473 599 -424 q 617 -375 617 -299 l 617 -299 l 617 -211 l 220 -211 l 220 -116 l 731 -116 l 731 -565 z m 336 -462 l 336 -462 q 274 -462 247 -425 q 220 -388 220 -330 l 220 -330 l 220 -326 l 452 -326 l 452 -330 q 452 -390 423 -426 q 394 -462 336 -462 z"},"ള":{"ha":799,"x_min":35,"x_max":767,"o":"m 415 -463 l 415 -463 q 367 -463 328 -458 q 289 -454 259 -443 q 229 -433 209 -417 q 188 -401 178 -380 l 178 -380 q 174 -374 174 -369 q 174 -364 173 -357 l 173 -357 q 171 -349 170 -338 q 169 -328 169 -313 l 169 -313 q 169 -275 186 -253 q 203 -232 232 -232 l 232 -232 q 261 -232 275 -248 q 288 -265 288 -288 l 288 -288 q 288 -305 282 -317 q 275 -329 263 -335 q 250 -342 231 -342 l 231 -342 q 204 -342 182 -334 q 159 -326 133 -313 l 133 -313 l 66 -338 q 84 -358 116 -379 q 148 -401 188 -415 q 228 -430 268 -430 l 268 -430 q 326 -430 364 -411 q 401 -392 419 -359 q 437 -327 437 -288 l 437 -288 q 437 -245 418 -209 q 398 -174 354 -153 q 310 -132 235 -132 l 235 -132 q 177 -132 132 -155 q 87 -178 61 -221 q 35 -265 35 -326 l 35 -326 q 35 -375 57 -420 q 79 -465 127 -500 q 174 -536 249 -556 q 324 -577 430 -577 l 430 -577 q 543 -577 615 -557 q 686 -538 721 -500 q 756 -463 756 -409 l 756 -409 q 756 -366 731 -334 q 706 -302 658 -282 q 610 -263 541 -254 l 541 -254 l 495 -317 l 495 -341 l 504 -341 q 528 -341 545 -343 q 561 -346 572 -354 l 572 -354 q 582 -361 587 -370 q 591 -379 591 -393 l 591 -393 q 591 -415 575 -430 q 559 -446 521 -454 q 482 -463 415 -463 z m 767 -159 l 767 -159 q 767 -121 753 -92 q 739 -64 716 -44 l 716 -44 q 696 -27 669 -17 q 642 -8 603 -4 q 564 0 505 0 l 505 0 l 311 0 q 272 0 255 2 q 238 4 228 9 l 228 9 q 217 14 212 22 q 207 30 207 41 l 207 41 q 207 51 211 59 q 215 67 223 73 l 223 73 q 234 80 252 83 q 270 86 311 86 l 311 86 l 750 86 l 750 203 l 295 203 q 232 203 188 196 q 143 188 111 170 l 111 170 q 78 151 60 120 q 41 89 41 47 l 41 47 q 41 6 57 -25 q 73 -56 104 -77 l 104 -77 q 125 -90 151 -98 q 176 -107 211 -111 q 245 -115 294 -115 l 294 -115 l 488 -115 q 527 -115 549 -118 q 570 -122 582 -131 l 582 -131 q 592 -137 597 -147 q 602 -158 602 -171 l 602 -171 q 602 -186 596 -197 q 590 -209 578 -216 l 578 -216 q 568 -222 552 -224 q 536 -227 507 -227 l 507 -227 l 495 -227 l 495 -331 l 612 -311 q 695 -289 731 -250 q 767 -212 767 -159 z"},"ഴ":{"ha":751,"x_min":32,"x_max":720,"o":"m 278 -411 l 278 -411 q 278 -484 332 -530 q 385 -577 491 -577 l 491 -577 q 576 -577 626 -549 q 676 -522 698 -479 q 720 -436 720 -388 l 720 -388 q 720 -321 686 -268 q 651 -216 583 -185 q 515 -155 414 -155 l 414 -155 l 358 -155 q 254 -155 181 -185 q 108 -216 70 -272 q 32 -328 32 -403 l 32 -403 q 32 -446 48 -490 q 63 -535 94 -578 l 94 -578 l 226 -514 q 212 -487 205 -462 q 198 -438 198 -409 l 198 -409 q 198 -359 220 -325 q 242 -292 281 -275 q 319 -259 368 -259 l 368 -259 l 400 -259 q 451 -259 486 -275 q 521 -292 539 -323 q 556 -355 556 -398 l 556 -398 q 556 -426 543 -447 q 529 -469 496 -469 l 496 -469 q 477 -469 464 -460 q 451 -452 444 -437 q 437 -423 437 -406 l 437 -406 q 437 -372 451 -341 q 464 -310 481 -279 q 498 -248 512 -213 q 525 -179 525 -139 l 525 -139 q 525 -100 509 -65 q 492 -31 450 -9 q 407 12 330 12 l 330 12 q 279 12 232 4 q 184 -4 135 -23 l 135 -23 l 183 -130 q 216 -116 243 -110 q 270 -105 300 -105 l 300 -105 q 339 -105 353 -120 q 367 -136 367 -152 l 367 -152 q 367 -179 354 -207 q 340 -236 323 -267 q 305 -298 292 -333 q 278 -369 278 -411 z"},"വ":{"ha":1077,"x_min":36,"x_max":1017,"o":"m 380 -577 l 380 -577 q 474 -577 539 -552 q 603 -527 644 -485 q 684 -444 703 -392 q 721 -340 721 -287 l 721 -287 q 721 -227 705 -184 q 689 -141 661 -104 q 632 -68 594 -28 l 594 -28 l 631 -116 l 852 -116 l 852 -565 l 1017 -565 l 1017 0 l 518 0 l 464 -76 q 490 -104 510 -133 q 530 -163 542 -199 q 553 -235 553 -280 l 553 -280 q 553 -335 532 -375 q 510 -415 472 -437 q 433 -460 381 -460 l 381 -460 q 330 -460 291 -438 q 251 -417 229 -377 q 207 -337 207 -281 l 207 -281 q 207 -238 218 -201 q 229 -165 251 -132 q 272 -100 304 -66 l 304 -66 l 186 12 q 143 -26 109 -69 q 75 -112 56 -164 q 36 -217 36 -282 l 36 -282 q 36 -335 55 -387 q 74 -439 115 -482 q 155 -525 221 -551 q 287 -577 380 -577 z"},"ശ":{"ha":1173,"x_min":36,"x_max":1139,"o":"m 754 -577 l 754 -577 q 848 -577 920 -551 q 991 -526 1040 -480 q 1089 -434 1114 -372 q 1139 -310 1139 -236 l 1139 -236 q 1139 -154 1110 -98 q 1080 -43 1024 -15 q 967 12 888 12 l 888 12 q 807 12 756 -18 q 705 -48 682 -97 q 659 -147 659 -206 l 659 -206 q 659 -298 712 -354 q 764 -410 862 -410 l 862 -410 q 924 -410 970 -380 q 1016 -350 1043 -303 q 1070 -256 1074 -204 l 1074 -204 l 1010 -205 q 1005 -230 991 -252 q 976 -274 954 -288 q 932 -303 902 -303 l 902 -303 q 860 -303 840 -277 q 819 -251 819 -203 l 819 -203 q 819 -172 827 -149 q 835 -127 852 -115 q 869 -104 893 -104 l 893 -104 q 920 -104 939 -118 q 957 -132 967 -162 q 977 -193 977 -240 l 977 -240 q 977 -255 976 -272 q 975 -290 972 -306 l 972 -306 q 971 -311 973 -318 q 975 -325 973 -328 l 973 -328 q 967 -364 941 -393 q 914 -423 869 -441 q 824 -460 761 -460 l 761 -460 q 713 -460 683 -451 q 653 -443 632 -425 l 632 -425 q 599 -398 588 -355 q 576 -312 576 -254 l 576 -254 l 576 -249 q 576 -185 560 -134 q 544 -83 509 -49 l 509 -49 q 477 -19 429 -3 q 380 12 314 12 l 314 12 q 228 12 166 -22 q 103 -57 70 -120 q 36 -183 36 -266 l 36 -266 q 36 -331 53 -384 q 69 -437 101 -484 q 132 -531 177 -578 l 177 -578 l 296 -499 q 263 -459 243 -422 q 223 -386 214 -349 q 204 -312 204 -272 l 204 -272 q 204 -211 219 -174 q 234 -138 259 -121 q 284 -105 315 -105 l 315 -105 q 338 -105 356 -112 q 373 -120 384 -135 l 384 -135 q 396 -152 402 -179 q 407 -206 407 -249 l 407 -249 l 407 -263 q 407 -356 432 -413 q 457 -470 500 -504 l 500 -504 q 549 -544 609 -560 q 669 -577 754 -577 z"},"ഷ":{"ha":1312,"x_min":28,"x_max":1253,"o":"m 274 -367 l 274 -367 q 359 -367 413 -337 q 466 -308 491 -263 q 516 -219 516 -172 l 516 -172 q 516 -145 509 -119 q 502 -93 492 -72 l 492 -72 l 488 -116 l 760 -116 l 792 0 l 382 0 l 325 -64 q 336 -81 347 -105 q 357 -129 357 -162 l 357 -162 q 357 -199 338 -225 q 318 -252 276 -252 l 276 -252 q 247 -252 229 -240 q 210 -228 201 -207 q 192 -187 192 -161 l 192 -161 q 192 -125 205 -97 q 218 -70 235 -44 l 235 -44 l 107 12 q 70 -27 49 -71 q 28 -115 28 -170 l 28 -170 q 28 -230 60 -274 q 91 -319 146 -343 q 201 -367 274 -367 z m 1253 0 l 734 0 l 734 -386 q 734 -410 732 -424 q 729 -438 723 -446 l 723 -446 q 719 -454 711 -458 q 703 -463 691 -463 l 691 -463 q 670 -463 657 -449 q 643 -436 643 -408 l 643 -408 q 643 -390 651 -374 q 658 -358 680 -347 q 702 -336 745 -336 l 745 -336 l 805 -336 q 862 -336 907 -357 q 951 -379 985 -413 q 1018 -448 1044 -488 q 1069 -529 1090 -565 l 1090 -565 l 1253 -565 l 1253 0 z m 691 -577 l 691 -577 q 737 -577 773 -567 q 809 -557 834 -536 l 834 -536 q 865 -512 881 -473 q 896 -434 896 -370 l 896 -370 l 896 -116 l 1090 -116 l 1090 -281 q 1090 -302 1091 -323 q 1092 -345 1094 -363 q 1096 -382 1098 -392 l 1098 -392 l 1100 -378 q 1068 -324 1023 -290 q 977 -256 927 -240 q 876 -225 829 -225 l 829 -225 l 754 -225 q 654 -225 596 -251 q 538 -277 514 -319 q 489 -362 489 -411 l 489 -411 q 489 -455 512 -492 q 535 -530 580 -553 q 625 -577 691 -577 z"},"സ":{"ha":1362,"x_min":36,"x_max":1326,"o":"m 699 -577 l 699 -577 q 756 -577 800 -562 q 844 -547 877 -516 l 877 -516 q 902 -494 918 -464 q 933 -435 941 -395 q 948 -356 948 -305 l 948 -305 l 948 -268 q 948 -218 953 -186 q 958 -154 974 -135 l 974 -135 q 985 -121 1003 -113 q 1020 -105 1046 -105 l 1046 -105 q 1077 -105 1103 -121 q 1128 -137 1143 -174 q 1158 -211 1158 -272 l 1158 -272 q 1158 -312 1149 -349 q 1140 -386 1120 -422 q 1100 -459 1066 -499 l 1066 -499 l 1185 -578 q 1231 -531 1263 -484 q 1294 -437 1310 -384 q 1326 -331 1326 -266 l 1326 -266 q 1326 -183 1292 -120 q 1258 -57 1195 -22 q 1132 12 1044 12 l 1044 12 q 976 12 928 -4 q 880 -20 848 -50 l 848 -50 q 824 -73 809 -104 q 793 -136 786 -176 q 779 -217 779 -268 l 779 -268 l 779 -290 q 779 -349 774 -380 q 769 -411 753 -430 l 753 -430 q 742 -445 725 -452 q 708 -460 683 -460 l 683 -460 q 661 -460 644 -453 q 626 -447 614 -434 l 614 -434 q 598 -416 593 -388 q 587 -361 587 -312 l 587 -312 l 587 0 l 421 0 l 421 -315 q 421 -363 417 -388 q 412 -414 397 -431 l 397 -431 q 386 -445 369 -453 q 351 -461 331 -461 l 331 -461 q 297 -461 268 -443 q 239 -425 222 -388 q 204 -351 204 -292 l 204 -292 q 204 -253 214 -217 q 223 -181 243 -144 q 263 -107 296 -66 l 296 -66 l 176 12 q 131 -35 100 -82 q 68 -130 52 -182 q 36 -235 36 -299 l 36 -299 q 36 -379 69 -441 q 101 -504 164 -540 q 226 -577 313 -577 l 313 -577 q 379 -577 425 -559 q 471 -541 513 -501 l 513 -501 l 500 -498 q 538 -537 584 -557 q 629 -577 699 -577 z"},"ഹ":{"ha":1339,"x_min":28,"x_max":1303,"o":"m 274 -367 l 274 -367 q 359 -367 413 -337 q 466 -308 491 -263 q 516 -219 516 -172 l 516 -172 q 516 -145 509 -119 q 502 -93 492 -72 l 492 -72 l 488 -116 l 760 -116 l 793 0 l 382 0 l 325 -64 q 336 -81 347 -105 q 357 -129 357 -162 l 357 -162 q 357 -199 338 -225 q 318 -252 276 -252 l 276 -252 q 247 -252 229 -240 q 210 -228 201 -207 q 192 -187 192 -161 l 192 -161 q 192 -125 205 -97 q 218 -70 235 -44 l 235 -44 l 107 12 q 70 -27 49 -71 q 28 -115 28 -170 l 28 -170 q 28 -230 60 -274 q 91 -319 146 -343 q 201 -367 274 -367 z m 960 -577 l 960 -577 q 1054 -577 1120 -552 q 1185 -527 1226 -484 q 1266 -442 1285 -389 q 1303 -336 1303 -282 l 1303 -282 q 1303 -217 1285 -165 q 1266 -114 1232 -70 q 1198 -27 1151 12 l 1151 12 l 1035 -66 q 1065 -99 1087 -130 q 1108 -162 1120 -198 q 1132 -235 1132 -280 l 1132 -280 q 1132 -335 1111 -375 q 1090 -415 1052 -437 q 1013 -460 961 -460 l 961 -460 q 909 -460 870 -438 q 830 -417 808 -377 q 786 -337 786 -281 l 786 -281 q 786 -238 797 -203 q 807 -169 827 -138 q 847 -107 874 -76 l 874 -76 l 821 0 l 766 0 l 728 -42 q 694 -79 670 -115 q 645 -151 632 -191 q 618 -232 618 -285 l 618 -285 q 618 -336 637 -388 q 655 -440 695 -482 q 735 -525 801 -551 q 866 -577 960 -577 z"},"ഺ":{"ha":790,"x_min":17,"x_max":770,"o":"m 198 -116 l 770 -116 l 770 0 l 517 0 l 517 202 l 352 202 l 352 0 l 91 0 l 17 -93 l 198 -569 l 354 -517 l 198 -116 z"},"഻":{"ha":0,"x_min":-332,"x_max":-224,"o":"m -332 -599 l -332 -864 l -224 -864 l -224 -599 l -332 -599 z"},"഼":{"ha":0,"x_min":-298,"x_max":20,"o":"m -298 -728 l -298 -728 q -298 -786 -255 -825 q -212 -864 -140 -864 l -140 -864 q -66 -864 -23 -825 q 20 -787 20 -728 l 20 -728 q 20 -671 -22 -631 q -65 -592 -139 -592 l -139 -592 q -214 -592 -256 -631 q -298 -671 -298 -728 z m -189 -729 l -189 -729 q -189 -708 -176 -694 q -164 -681 -140 -681 l -140 -681 q -114 -681 -101 -695 q -89 -709 -89 -729 l -89 -729 q -89 -750 -102 -762 q -116 -775 -139 -775 l -139 -775 q -163 -775 -176 -762 q -189 -750 -189 -729 z"},"ഽ":{"ha":537,"x_min":-88,"x_max":625,"o":"m 414 -802 l 414 -802 q 479 -802 521 -780 q 562 -758 587 -722 q 611 -686 625 -644 l 625 -644 l 475 -613 q 468 -638 460 -654 q 452 -670 441 -678 q 429 -687 412 -687 l 412 -687 q 399 -687 388 -681 q 377 -676 369 -665 l 369 -665 q 359 -651 356 -625 q 352 -600 352 -548 l 352 -548 l 352 -67 q 352 28 340 85 q 328 141 293 180 l 293 180 q 267 209 225 227 q 182 244 123 244 l 123 244 q 59 244 17 222 q -25 200 -49 164 q -74 127 -88 85 l -88 85 l 62 54 q 69 79 77 96 q 85 113 97 121 q 108 128 125 128 l 125 128 q 139 128 150 122 q 161 116 167 106 l 167 106 q 179 90 182 64 q 184 38 184 -10 l 184 -10 l 184 -490 q 184 -584 196 -641 q 208 -699 244 -738 l 244 -738 q 271 -768 313 -785 q 354 -802 414 -802 z"},"ാ":{"ha":593,"x_min":18,"x_max":555,"o":"m 555 -285 l 555 -285 q 555 -226 543 -172 q 530 -119 499 -77 q 468 -35 415 -11 q 362 12 280 12 l 280 12 q 210 12 163 -6 q 116 -24 87 -52 q 57 -81 42 -115 q 26 -150 18 -184 l 18 -184 l 187 -213 q 195 -185 205 -160 q 215 -135 234 -119 q 252 -103 283 -103 l 283 -103 q 320 -103 342 -125 q 364 -148 375 -188 q 385 -228 385 -282 l 385 -282 q 385 -337 375 -377 q 364 -417 343 -439 q 321 -462 286 -462 l 286 -462 q 257 -462 238 -446 q 219 -431 208 -406 q 197 -382 190 -353 l 190 -353 l 20 -382 q 32 -417 51 -451 q 69 -486 100 -514 q 130 -543 177 -560 q 224 -577 291 -577 l 291 -577 q 368 -577 419 -553 q 470 -529 500 -488 q 530 -447 543 -394 q 555 -342 555 -285 z"},"ി":{"ha":285,"x_min":-250,"x_max":225,"o":"m -21 -852 l -21 -852 q 25 -852 62 -843 q 99 -834 126 -815 l 126 -815 q 163 -792 184 -759 q 205 -726 215 -676 q 225 -626 225 -551 l 225 -551 l 225 0 l 59 0 l 59 -531 q 59 -584 57 -619 q 55 -654 49 -675 q 43 -697 33 -710 l 33 -710 q 23 -723 10 -729 q -3 -736 -23 -736 l -23 -736 q -39 -736 -53 -729 q -68 -723 -76 -708 q -85 -694 -85 -673 l -85 -673 q -85 -665 -83 -656 q -82 -647 -80 -640 l -80 -640 l -242 -621 q -246 -633 -248 -646 q -250 -660 -250 -676 l -250 -676 q -250 -735 -221 -773 q -192 -812 -140 -832 q -88 -852 -21 -852 z"},"ീ":{"ha":285,"x_min":-298,"x_max":225,"o":"m -95 -852 l -95 -852 q -33 -852 15 -841 q 63 -831 104 -805 l 104 -805 q 172 -763 199 -693 q 225 -623 225 -510 l 225 -510 l 225 0 l 59 0 l 59 -510 q 59 -578 53 -625 q 47 -672 32 -701 q 17 -731 -10 -745 l -10 -745 q -28 -753 -52 -756 q -76 -760 -108 -760 l -108 -760 q -125 -760 -141 -755 q -157 -751 -167 -740 q -177 -730 -177 -711 l -177 -711 q -177 -697 -167 -685 q -158 -673 -137 -673 l -137 -673 q -111 -673 -102 -688 q -93 -703 -93 -722 l -93 -722 q -93 -746 -106 -764 q -120 -783 -142 -796 l -142 -796 l 1 -778 q 9 -768 15 -749 q 20 -730 20 -711 l 20 -711 q 20 -675 4 -644 q -12 -614 -47 -595 q -83 -577 -140 -577 l -140 -577 q -190 -577 -226 -592 q -262 -608 -280 -637 q -298 -667 -298 -709 l -298 -709 q -298 -751 -277 -783 q -257 -815 -211 -833 q -166 -852 -95 -852 z"},"ു":{"ha":394,"x_min":-33,"x_max":402,"o":"m 184 238 l 184 238 q 81 238 24 186 q -33 134 -33 53 l -33 53 q -33 -2 -6 -43 q 21 -85 70 -108 q 118 -131 183 -131 l 183 -131 q 250 -131 299 -108 q 348 -86 375 -44 q 402 -3 402 54 l 402 54 q 402 109 376 151 q 349 192 300 215 q 251 238 184 238 z m 185 130 l 185 130 q 217 130 238 111 q 259 91 259 53 l 259 53 q 259 15 239 -5 q 218 -25 183 -25 l 183 -25 q 152 -25 131 -5 q 110 15 110 53 l 110 53 q 110 89 131 110 q 152 130 185 130 z m 149 -577 l 149 -577 q 217 -577 258 -553 q 298 -529 316 -489 q 334 -450 334 -403 l 334 -403 q 334 -325 316 -254 q 297 -184 269 -101 l 269 -101 l 116 -116 q 140 -190 153 -254 q 166 -319 166 -372 l 166 -372 q 166 -408 153 -434 q 140 -460 102 -460 l 102 -460 q 88 -460 76 -458 q 63 -457 49 -453 l 49 -453 l 26 -564 q 52 -569 81 -573 q 109 -577 149 -577 z"},"ൂ":{"ha":394,"x_min":-33,"x_max":402,"o":"m 185 238 l 185 238 q 81 238 24 186 q -33 134 -33 53 l -33 53 q -33 -2 -6 -43 q 21 -85 70 -108 q 118 -131 184 -131 l 184 -131 q 250 -131 299 -108 q 348 -86 375 -44 q 402 -3 402 54 l 402 54 q 402 110 376 151 q 349 192 300 215 q 251 238 185 238 z m 184 -37 l 184 -37 q 143 -37 113 -14 q 83 8 83 54 l 83 54 q 83 99 113 122 q 142 144 185 144 l 185 144 q 227 144 257 122 q 286 99 286 53 l 286 53 q 286 8 257 -14 q 228 -37 184 -37 z m 186 101 l 186 101 q 129 101 101 69 q 72 36 72 -17 l 72 -17 q 72 -35 83 -56 q 94 -77 114 -101 l 114 -101 l 163 -78 q 146 -70 138 -57 q 129 -45 129 -32 l 129 -32 q 129 -16 136 -5 q 143 5 156 11 q 169 17 187 17 l 187 17 q 204 17 217 11 q 230 5 237 -6 q 244 -17 244 -32 l 244 -32 q 244 -42 236 -53 q 228 -65 212 -72 l 212 -72 l 260 -101 q 282 -77 292 -57 q 301 -38 301 -16 l 301 -16 q 301 13 290 40 q 279 67 254 84 q 229 101 186 101 z m 149 -577 l 149 -577 q 217 -577 258 -553 q 298 -529 316 -489 q 334 -450 334 -403 l 334 -403 q 334 -325 316 -254 q 297 -184 269 -101 l 269 -101 l 116 -116 q 140 -190 153 -254 q 166 -319 166 -372 l 166 -372 q 166 -408 153 -434 q 140 -460 102 -460 l 102 -460 q 88 -460 76 -458 q 63 -457 49 -453 l 49 -453 l 26 -564 q 52 -569 81 -573 q 109 -577 149 -577 z"},"ൃ":{"ha":307,"x_min":-154,"x_max":307,"o":"m 59 335 l 59 335 q -9 335 -56 317 q -104 299 -129 263 q -154 227 -154 174 l -154 174 q -154 106 -104 64 q -55 21 35 21 l 35 21 q 80 21 118 33 q 155 44 204 78 l 204 78 l 167 170 q 140 150 115 140 q 90 130 57 130 l 57 130 q 29 130 15 142 q 0 153 0 176 l 0 176 q 0 198 17 210 q 33 221 59 221 l 59 221 q 88 221 107 212 q 126 202 137 180 q 147 158 147 121 l 147 121 q 147 102 142 75 q 136 47 125 12 q 113 -23 96 -64 l 96 -64 q 70 -126 54 -186 q 38 -246 38 -307 l 38 -307 q 38 -381 60 -446 q 82 -511 113 -565 l 113 -565 l 281 -565 q 254 -517 237 -476 q 219 -435 211 -396 q 203 -358 203 -318 l 203 -318 q 203 -268 216 -220 q 228 -172 250 -114 l 250 -114 q 270 -63 283 -23 q 295 16 301 50 q 307 84 307 120 l 307 120 q 307 196 273 244 q 238 291 182 313 q 126 335 59 335 z"},"ൄ":{"ha":307,"x_min":-304,"x_max":305,"o":"m -29 335 l -29 335 q -119 335 -180 315 q -242 294 -273 255 q -304 215 -304 157 l -304 157 q -304 98 -267 61 q -230 24 -171 24 l -171 24 q -135 24 -111 37 q -88 50 -71 72 l -71 72 l -86 72 q -69 51 -47 38 q -25 24 5 24 l 5 24 q 43 24 66 37 q 88 50 100 70 q 111 90 115 112 q 118 134 118 151 l 118 151 l 118 178 l 23 178 l 23 163 q 23 146 19 135 q 14 123 -3 123 l -3 123 q -21 123 -26 135 q -31 147 -31 162 l -31 162 l -31 178 l -123 178 l -123 163 q -123 142 -130 133 q -137 123 -151 123 l -151 123 q -167 123 -174 134 q -182 144 -182 158 l -182 158 q -182 191 -145 207 q -109 222 -28 222 l -28 222 q 54 222 98 197 q 141 172 141 113 l 141 113 q 141 88 136 63 q 131 37 122 7 q 112 -24 96 -61 l 96 -61 q 72 -124 55 -183 q 38 -243 38 -307 l 38 -307 q 38 -381 60 -446 q 82 -511 113 -565 l 113 -565 l 281 -565 q 254 -517 237 -476 q 219 -435 211 -396 q 203 -358 203 -318 l 203 -318 q 203 -268 216 -220 q 228 -172 251 -110 l 251 -110 q 269 -63 281 -25 q 293 12 299 46 q 305 80 305 117 l 305 117 q 305 181 272 231 q 238 280 165 308 q 91 335 -29 335 z"},"െ":{"ha":812,"x_min":35,"x_max":776,"o":"m 273 12 l 273 12 q 208 12 154 -14 q 100 -41 68 -97 q 35 -153 35 -244 l 35 -244 q 35 -317 62 -378 q 88 -439 139 -483 q 190 -528 263 -552 q 336 -577 429 -577 l 429 -577 q 522 -577 588 -553 q 653 -529 695 -487 q 736 -446 756 -393 q 776 -340 776 -282 l 776 -282 q 776 -216 757 -163 q 737 -111 703 -68 q 669 -26 624 12 l 624 12 l 508 -66 q 538 -99 560 -130 q 582 -162 594 -198 q 606 -235 606 -280 l 606 -280 q 606 -335 585 -375 q 564 -415 522 -437 q 479 -460 414 -460 l 414 -460 q 346 -460 294 -431 q 242 -403 214 -354 q 186 -305 186 -241 l 186 -241 q 186 -186 197 -154 q 208 -123 227 -110 q 245 -97 267 -97 l 267 -97 q 286 -97 299 -105 q 312 -113 319 -129 q 326 -145 326 -169 l 326 -169 q 326 -204 310 -224 q 293 -244 261 -244 l 261 -244 q 225 -244 195 -223 q 164 -203 127 -162 l 127 -162 l 110 -271 q 144 -302 191 -327 q 237 -353 301 -353 l 301 -353 q 362 -353 403 -330 q 444 -308 465 -268 q 486 -229 486 -176 l 486 -176 q 486 -118 462 -75 q 437 -33 390 -10 q 343 12 273 12 z"},"േ":{"ha":670,"x_min":33,"x_max":635,"o":"m 402 12 l 402 12 q 323 12 256 -5 q 189 -22 139 -58 q 89 -94 61 -150 q 33 -207 33 -286 l 33 -286 q 33 -361 62 -416 q 90 -472 141 -507 q 192 -543 260 -560 q 327 -577 405 -577 l 405 -577 q 490 -577 541 -556 q 591 -536 613 -502 q 635 -468 635 -428 l 635 -428 q 635 -381 614 -350 q 592 -320 553 -304 q 513 -289 458 -289 l 458 -289 q 391 -289 354 -307 q 316 -326 301 -357 q 285 -388 285 -423 l 285 -423 q 285 -443 292 -462 q 298 -481 305 -493 l 305 -493 l 447 -510 q 430 -498 419 -478 q 408 -458 408 -435 l 408 -435 q 408 -412 418 -399 q 428 -386 452 -386 l 452 -386 q 475 -386 486 -397 q 496 -408 496 -425 l 496 -425 q 496 -450 478 -462 q 459 -474 428 -474 l 428 -474 q 413 -474 398 -474 q 382 -474 369 -472 l 369 -472 q 314 -470 276 -445 q 237 -420 217 -379 q 197 -338 197 -285 l 197 -285 q 197 -231 215 -189 q 233 -147 271 -122 q 308 -98 364 -94 l 364 -94 q 375 -93 390 -92 q 405 -91 421 -91 l 421 -91 q 444 -91 459 -98 q 474 -105 482 -116 q 490 -127 490 -141 l 490 -141 q 490 -158 481 -169 q 471 -181 449 -181 l 449 -181 q 426 -181 414 -167 q 402 -154 402 -131 l 402 -131 q 402 -110 411 -91 q 420 -72 439 -58 l 439 -58 l 296 -78 q 290 -89 285 -106 q 279 -124 279 -143 l 279 -143 q 279 -180 295 -210 q 311 -241 349 -259 q 387 -277 454 -277 l 454 -277 q 507 -277 547 -262 q 586 -247 608 -215 q 629 -184 629 -135 l 629 -135 q 629 -96 606 -62 q 582 -29 532 -8 q 482 12 402 12 z"},"ൈ":{"ha":1623,"x_min":35,"x_max":1587,"o":"m 273 12 l 273 12 q 208 12 154 -14 q 100 -41 68 -97 q 35 -153 35 -244 l 35 -244 q 35 -317 62 -378 q 88 -439 139 -483 q 190 -528 263 -552 q 336 -577 429 -577 l 429 -577 q 522 -577 588 -553 q 653 -529 695 -487 q 736 -446 756 -393 q 776 -340 776 -282 l 776 -282 q 776 -216 757 -163 q 737 -111 703 -68 q 669 -26 624 12 l 624 12 l 508 -66 q 538 -99 560 -130 q 582 -162 594 -198 q 606 -235 606 -280 l 606 -280 q 606 -335 585 -375 q 564 -415 522 -437 q 479 -460 414 -460 l 414 -460 q 346 -460 294 -431 q 242 -403 214 -354 q 186 -305 186 -241 l 186 -241 q 186 -186 197 -154 q 208 -123 227 -110 q 245 -97 267 -97 l 267 -97 q 286 -97 299 -105 q 312 -113 319 -129 q 326 -145 326 -169 l 326 -169 q 326 -204 310 -224 q 293 -244 261 -244 l 261 -244 q 225 -244 195 -223 q 164 -203 127 -162 l 127 -162 l 110 -271 q 144 -302 191 -327 q 237 -353 301 -353 l 301 -353 q 362 -353 403 -330 q 444 -308 465 -268 q 486 -229 486 -176 l 486 -176 q 486 -118 462 -75 q 437 -33 390 -10 q 343 12 273 12 z m 1085 12 l 1085 12 q 1020 12 966 -14 q 912 -41 880 -97 q 847 -153 847 -244 l 847 -244 q 847 -317 874 -378 q 900 -439 951 -483 q 1002 -528 1075 -552 q 1148 -577 1241 -577 l 1241 -577 q 1334 -577 1400 -553 q 1465 -529 1507 -487 q 1548 -446 1568 -393 q 1588 -340 1588 -282 l 1588 -282 q 1588 -216 1569 -163 q 1549 -111 1515 -68 q 1481 -26 1436 12 l 1436 12 l 1320 -66 q 1350 -99 1372 -130 q 1394 -162 1406 -198 q 1418 -235 1418 -280 l 1418 -280 q 1418 -335 1397 -375 q 1376 -415 1334 -437 q 1291 -460 1226 -460 l 1226 -460 q 1158 -460 1106 -431 q 1054 -403 1026 -354 q 998 -305 998 -241 l 998 -241 q 998 -186 1009 -154 q 1020 -123 1039 -110 q 1057 -97 1079 -97 l 1079 -97 q 1098 -97 1111 -105 q 1124 -113 1131 -129 q 1138 -145 1138 -169 l 1138 -169 q 1138 -204 1122 -224 q 1105 -244 1073 -244 l 1073 -244 q 1037 -244 1007 -223 q 976 -203 939 -162 l 939 -162 l 922 -271 q 956 -302 1003 -327 q 1049 -353 1113 -353 l 1113 -353 q 1174 -353 1215 -330 q 1256 -308 1277 -268 q 1298 -229 1298 -176 l 1298 -176 q 1298 -118 1274 -75 q 1249 -33 1202 -10 q 1155 12 1085 12 z"},"ൊ":{"ha":1615,"x_min":35,"x_max":1578,"o":"m 273 12 l 273 12 q 208 12 154 -14 q 100 -41 68 -97 q 35 -153 35 -244 l 35 -244 q 35 -317 62 -378 q 88 -439 139 -483 q 190 -528 263 -552 q 336 -577 429 -577 l 429 -577 q 522 -577 588 -553 q 653 -529 695 -487 q 736 -446 756 -393 q 776 -340 776 -282 l 776 -282 q 776 -216 757 -163 q 737 -111 703 -68 q 669 -26 624 12 l 624 12 l 508 -66 q 538 -99 560 -130 q 582 -162 594 -198 q 606 -235 606 -280 l 606 -280 q 606 -335 585 -375 q 564 -415 522 -437 q 479 -460 414 -460 l 414 -460 q 346 -460 294 -431 q 242 -403 214 -354 q 186 -305 186 -241 l 186 -241 q 186 -186 197 -154 q 208 -123 227 -110 q 245 -97 267 -97 l 267 -97 q 286 -97 299 -105 q 312 -113 319 -129 q 326 -145 326 -169 l 326 -169 q 326 -204 310 -224 q 293 -244 261 -244 l 261 -244 q 225 -244 195 -223 q 164 -203 127 -162 l 127 -162 l 110 -271 q 144 -302 191 -327 q 237 -353 301 -353 l 301 -353 q 362 -353 403 -330 q 444 -308 465 -268 q 486 -229 486 -176 l 486 -176 q 486 -118 462 -75 q 437 -33 390 -10 q 343 12 273 12 z m 925 -207 l 925 -207 q 886 -207 859 -228 q 831 -249 831 -295 l 831 -295 q 831 -344 859 -363 q 886 -383 925 -383 l 925 -383 q 963 -383 990 -363 q 1017 -344 1017 -295 l 1017 -295 q 1017 -249 990 -228 q 963 -207 925 -207 z m 1578 -285 l 1578 -285 q 1578 -226 1566 -172 q 1553 -119 1522 -77 q 1491 -35 1438 -11 q 1385 12 1303 12 l 1303 12 q 1233 12 1186 -6 q 1139 -24 1110 -52 q 1080 -81 1065 -115 q 1049 -150 1041 -184 l 1041 -184 l 1210 -213 q 1218 -185 1228 -160 q 1238 -135 1257 -119 q 1275 -103 1306 -103 l 1306 -103 q 1343 -103 1365 -125 q 1387 -148 1398 -188 q 1408 -228 1408 -282 l 1408 -282 q 1408 -337 1398 -377 q 1387 -417 1366 -439 q 1344 -462 1309 -462 l 1309 -462 q 1280 -462 1261 -446 q 1242 -431 1231 -406 q 1220 -382 1213 -353 l 1213 -353 l 1043 -382 q 1055 -417 1074 -451 q 1092 -486 1123 -514 q 1153 -543 1200 -560 q 1247 -577 1314 -577 l 1314 -577 q 1391 -577 1442 -553 q 1493 -529 1523 -488 q 1553 -447 1566 -394 q 1578 -342 1578 -285 z"},"ോ":{"ha":1454,"x_min":33,"x_max":1416,"o":"m 402 12 l 402 12 q 323 12 256 -5 q 189 -22 139 -58 q 89 -94 61 -150 q 33 -207 33 -286 l 33 -286 q 33 -361 62 -416 q 90 -472 141 -507 q 192 -543 260 -560 q 327 -577 405 -577 l 405 -577 q 490 -577 541 -556 q 591 -536 613 -502 q 635 -468 635 -428 l 635 -428 q 635 -381 614 -350 q 592 -320 553 -304 q 513 -289 458 -289 l 458 -289 q 391 -289 354 -307 q 316 -326 301 -357 q 285 -388 285 -423 l 285 -423 q 285 -443 292 -462 q 298 -481 305 -493 l 305 -493 l 447 -510 q 430 -498 419 -478 q 408 -458 408 -435 l 408 -435 q 408 -412 418 -399 q 428 -386 452 -386 l 452 -386 q 475 -386 486 -397 q 496 -408 496 -425 l 496 -425 q 496 -450 478 -462 q 459 -474 428 -474 l 428 -474 q 413 -474 398 -474 q 382 -474 369 -472 l 369 -472 q 314 -470 276 -445 q 237 -420 217 -379 q 197 -338 197 -285 l 197 -285 q 197 -231 215 -189 q 233 -147 271 -122 q 308 -98 364 -94 l 364 -94 q 375 -93 390 -92 q 405 -91 421 -91 l 421 -91 q 444 -91 459 -98 q 474 -105 482 -116 q 490 -127 490 -141 l 490 -141 q 490 -158 481 -169 q 471 -181 449 -181 l 449 -181 q 426 -181 414 -167 q 402 -154 402 -131 l 402 -131 q 402 -110 411 -91 q 420 -72 439 -58 l 439 -58 l 296 -78 q 290 -89 285 -106 q 279 -124 279 -143 l 279 -143 q 279 -180 295 -210 q 311 -241 349 -259 q 387 -277 454 -277 l 454 -277 q 507 -277 547 -262 q 586 -247 608 -215 q 629 -184 629 -135 l 629 -135 q 629 -96 606 -62 q 582 -29 532 -8 q 482 12 402 12 z m 764 -207 l 764 -207 q 725 -207 698 -228 q 670 -249 670 -295 l 670 -295 q 670 -344 698 -363 q 725 -383 764 -383 l 764 -383 q 802 -383 829 -363 q 856 -344 856 -295 l 856 -295 q 856 -249 829 -228 q 802 -207 764 -207 z m 1416 -285 l 1416 -285 q 1416 -226 1404 -172 q 1391 -119 1360 -77 q 1329 -35 1276 -11 q 1223 12 1141 12 l 1141 12 q 1071 12 1024 -6 q 977 -24 948 -52 q 918 -81 903 -115 q 887 -150 879 -184 l 879 -184 l 1048 -213 q 1056 -185 1066 -160 q 1076 -135 1095 -119 q 1113 -103 1144 -103 l 1144 -103 q 1181 -103 1203 -125 q 1225 -148 1236 -188 q 1246 -228 1246 -282 l 1246 -282 q 1246 -337 1236 -377 q 1225 -417 1204 -439 q 1182 -462 1147 -462 l 1147 -462 q 1118 -462 1099 -446 q 1080 -431 1069 -406 q 1058 -382 1051 -353 l 1051 -353 l 881 -382 q 893 -417 912 -451 q 930 -486 961 -514 q 991 -543 1038 -560 q 1085 -577 1152 -577 l 1152 -577 q 1229 -577 1280 -553 q 1331 -529 1361 -488 q 1391 -447 1404 -394 q 1416 -342 1416 -285 z"},"ൌ":{"ha":1892,"x_min":35,"x_max":1857,"o":"m 273 12 l 273 12 q 208 12 154 -14 q 100 -41 68 -97 q 35 -153 35 -244 l 35 -244 q 35 -317 62 -378 q 88 -439 139 -483 q 190 -528 263 -552 q 336 -577 429 -577 l 429 -577 q 522 -577 588 -553 q 653 -529 695 -487 q 736 -446 756 -393 q 776 -340 776 -282 l 776 -282 q 776 -216 757 -163 q 737 -111 703 -68 q 669 -26 624 12 l 624 12 l 508 -66 q 538 -99 560 -130 q 582 -162 594 -198 q 606 -235 606 -280 l 606 -280 q 606 -335 585 -375 q 564 -415 522 -437 q 479 -460 414 -460 l 414 -460 q 346 -460 294 -431 q 242 -403 214 -354 q 186 -305 186 -241 l 186 -241 q 186 -186 197 -154 q 208 -123 227 -110 q 245 -97 267 -97 l 267 -97 q 286 -97 299 -105 q 312 -113 319 -129 q 326 -145 326 -169 l 326 -169 q 326 -204 310 -224 q 293 -244 261 -244 l 261 -244 q 225 -244 195 -223 q 164 -203 127 -162 l 127 -162 l 110 -271 q 144 -302 191 -327 q 237 -353 301 -353 l 301 -353 q 362 -353 403 -330 q 444 -308 465 -268 q 486 -229 486 -176 l 486 -176 q 486 -118 462 -75 q 437 -33 390 -10 q 343 12 273 12 z m 925 -207 l 925 -207 q 886 -207 859 -228 q 831 -249 831 -295 l 831 -295 q 831 -344 859 -363 q 886 -383 925 -383 l 925 -383 q 963 -383 990 -363 q 1017 -344 1017 -295 l 1017 -295 q 1017 -249 990 -228 q 963 -207 925 -207 z m 1616 -577 l 1616 -577 q 1692 -577 1746 -544 q 1799 -512 1828 -451 q 1857 -391 1857 -308 l 1857 -308 q 1857 -208 1821 -136 q 1785 -64 1714 -26 q 1643 12 1537 12 l 1537 12 q 1453 12 1391 -2 q 1329 -17 1274 -45 l 1274 -45 l 1333 -154 q 1383 -128 1425 -117 q 1467 -106 1520 -106 l 1520 -106 q 1583 -106 1620 -129 q 1657 -153 1673 -198 q 1689 -243 1689 -306 l 1689 -306 q 1689 -386 1665 -424 q 1641 -462 1604 -462 l 1604 -462 q 1587 -462 1575 -455 q 1563 -449 1556 -438 l 1556 -438 q 1548 -425 1545 -407 q 1542 -389 1542 -354 l 1542 -354 l 1542 -265 l 1378 -265 l 1378 -339 q 1378 -376 1375 -401 q 1371 -426 1361 -438 l 1361 -438 q 1352 -451 1340 -456 q 1327 -462 1313 -462 l 1313 -462 q 1277 -462 1258 -437 q 1238 -413 1238 -378 l 1238 -378 q 1238 -350 1243 -329 q 1247 -308 1253 -291 l 1253 -291 l 1093 -256 q 1083 -286 1078 -319 q 1073 -353 1073 -379 l 1073 -379 q 1073 -432 1097 -477 q 1121 -522 1171 -549 q 1220 -577 1297 -577 l 1297 -577 q 1358 -577 1398 -559 q 1438 -541 1467 -511 l 1467 -511 l 1450 -512 q 1483 -548 1525 -562 q 1566 -577 1616 -577 z"},"്":{"ha":0,"x_min":-343,"x_max":95,"o":"m -124 -597 l -124 -597 q -202 -597 -250 -618 q -298 -639 -320 -677 q -343 -715 -343 -765 l -343 -765 q -343 -785 -339 -803 q -335 -822 -329 -835 l -329 -835 l -186 -810 q -189 -802 -190 -791 q -192 -781 -192 -771 l -192 -771 q -192 -746 -183 -732 q -174 -718 -158 -712 q -142 -706 -122 -706 l -122 -706 q -102 -706 -85 -711 q -69 -717 -59 -731 q -50 -746 -50 -771 l -50 -771 q -50 -781 -51 -791 q -53 -802 -55 -810 l -55 -810 l 83 -835 q 88 -822 92 -803 q 95 -785 95 -765 l 95 -765 q 95 -715 73 -677 q 51 -639 3 -618 q -45 -597 -124 -597 z"},"ൎ":{"ha":0,"x_min":-363,"x_max":-185,"o":"m -363 -835 l -185 -835 l -195 -637 l -354 -637 l -363 -835 z"},"൏":{"ha":1390,"x_min":40,"x_max":1354,"o":"m 653 -577 l 653 -577 q 745 -577 808 -553 q 871 -529 923 -476 l 923 -476 l 880 -499 q 920 -540 969 -558 q 1017 -577 1081 -577 l 1081 -577 q 1175 -577 1235 -534 q 1295 -491 1325 -414 q 1354 -338 1354 -239 l 1354 -239 q 1354 -81 1285 28 q 1216 136 1070 192 q 924 248 692 248 l 692 248 q 538 248 427 223 q 315 198 240 153 q 165 107 122 46 q 78 -15 59 -86 q 40 -157 40 -234 l 40 -234 q 40 -311 62 -394 q 84 -478 125 -556 l 125 -556 l 258 -500 q 224 -434 210 -366 q 195 -298 195 -233 l 195 -233 q 195 -173 207 -118 q 219 -64 250 -19 q 280 25 336 57 q 392 89 479 107 q 566 125 692 125 l 692 125 q 842 125 939 99 q 1035 72 1089 24 q 1143 -25 1165 -93 q 1186 -161 1186 -244 l 1186 -244 q 1186 -314 1170 -362 q 1154 -410 1127 -435 q 1100 -461 1066 -461 l 1066 -461 q 1041 -461 1025 -452 q 1008 -444 998 -432 l 998 -432 q 984 -415 979 -390 q 973 -365 973 -324 l 973 -324 l 973 0 l 808 0 l 808 -270 q 808 -342 797 -376 q 786 -410 763 -429 l 763 -429 q 744 -444 718 -452 q 691 -461 650 -461 l 650 -461 q 588 -461 538 -436 q 488 -411 459 -362 q 429 -314 429 -242 l 429 -242 l 429 -238 q 429 -184 440 -153 q 451 -122 470 -109 q 488 -97 511 -97 l 511 -97 q 530 -97 543 -105 q 556 -113 563 -129 q 570 -145 570 -170 l 570 -170 q 570 -205 553 -224 q 536 -244 504 -244 l 504 -244 q 468 -244 438 -223 q 407 -203 370 -162 l 370 -162 l 354 -271 q 387 -302 435 -327 q 483 -353 546 -353 l 546 -353 q 606 -353 647 -330 q 688 -308 709 -269 q 730 -230 730 -177 l 730 -177 q 730 -118 706 -75 q 681 -33 634 -10 q 586 12 516 12 l 516 12 q 451 12 398 -14 q 344 -40 312 -96 q 279 -153 279 -243 l 279 -243 q 279 -351 329 -425 q 378 -500 463 -538 q 548 -577 653 -577 z"},"ൔ":{"ha":730,"x_min":54,"x_max":717,"o":"m 229 -801 l 229 -801 q 269 -801 298 -792 q 326 -783 343 -768 l 343 -768 q 373 -745 385 -709 q 396 -673 396 -622 l 396 -622 l 396 -503 q 396 -468 402 -433 q 408 -398 428 -363 q 448 -329 490 -292 l 490 -292 l 523 -266 q 559 -232 607 -191 q 655 -151 717 -104 l 717 -104 l 665 0 l 54 0 l 54 -250 q 54 -314 65 -361 q 75 -408 97 -443 q 119 -478 151 -504 l 151 -504 q 194 -538 254 -557 q 314 -576 382 -576 l 382 -576 q 451 -576 507 -554 q 562 -532 595 -488 q 628 -444 628 -379 l 628 -379 q 628 -323 602 -280 q 576 -237 537 -203 l 537 -203 l 505 -187 q 483 -169 457 -149 q 430 -129 400 -110 q 370 -91 340 -75 l 340 -75 l 356 -106 q 383 -109 410 -110 q 436 -112 449 -112 l 449 -112 l 474 -112 q 494 -112 515 -111 q 536 -111 556 -109 q 576 -108 590 -106 l 590 -106 l 580 -61 q 533 -95 498 -123 q 463 -152 433 -180 l 433 -180 l 394 -210 q 337 -256 304 -305 q 270 -355 257 -409 q 243 -463 243 -522 l 243 -522 l 243 -610 q 243 -638 238 -652 q 233 -666 226 -673 l 226 -673 q 219 -680 209 -683 q 198 -686 182 -686 l 182 -686 q 165 -686 149 -683 q 132 -681 119 -677 l 119 -677 l 91 -782 q 118 -791 153 -796 q 188 -801 229 -801 z m 219 -261 l 219 -68 l 169 -82 q 216 -112 259 -145 q 302 -178 339 -210 q 375 -243 401 -272 l 401 -272 l 438 -296 q 452 -318 461 -337 q 469 -357 469 -382 l 469 -382 q 469 -412 455 -431 q 441 -450 417 -459 q 393 -468 362 -468 l 362 -468 q 321 -468 292 -451 q 262 -435 247 -409 l 247 -409 q 238 -394 232 -373 q 225 -353 222 -325 q 219 -298 219 -261 l 219 -261 z"},"ൕ":{"ha":1163,"x_min":34,"x_max":1128,"o":"m 766 12 l 766 12 q 720 12 684 8 q 647 4 615 -5 q 583 -14 549 -29 l 549 -29 q 541 -32 531 -37 q 520 -43 512 -48 l 512 -48 q 454 -81 415 -125 q 375 -170 356 -223 q 336 -276 336 -335 l 336 -335 q 336 -374 346 -405 q 355 -437 369 -462 l 369 -462 l 383 -477 q 404 -514 437 -536 q 469 -558 509 -567 q 549 -577 591 -577 l 591 -577 q 709 -577 777 -516 q 844 -455 844 -333 l 844 -333 q 844 -270 821 -217 q 798 -165 761 -124 q 723 -83 677 -56 l 677 -56 q 668 -50 660 -44 q 651 -39 640 -34 l 640 -34 q 592 -11 537 1 q 482 12 422 12 l 422 12 q 326 12 253 -12 q 180 -37 132 -83 q 83 -129 59 -192 q 34 -256 34 -333 l 34 -333 q 34 -404 64 -459 q 93 -514 152 -545 q 210 -577 297 -577 l 297 -577 q 365 -577 422 -551 q 478 -526 514 -466 l 514 -466 l 386 -403 q 367 -434 346 -448 q 324 -462 296 -462 l 296 -462 q 267 -462 245 -446 q 223 -430 212 -402 q 200 -374 200 -333 l 200 -333 q 200 -266 227 -213 q 254 -160 306 -130 q 357 -100 429 -100 l 429 -100 q 454 -100 476 -103 q 497 -106 516 -111 l 516 -111 q 527 -114 537 -115 q 547 -116 556 -120 l 556 -120 q 589 -136 617 -167 q 644 -198 661 -240 q 677 -283 677 -335 l 677 -335 q 677 -382 665 -409 q 652 -437 633 -449 q 613 -462 591 -462 l 591 -462 q 565 -462 545 -448 q 525 -435 514 -407 q 502 -379 502 -334 l 502 -334 q 502 -285 518 -242 q 533 -200 561 -168 q 588 -137 625 -118 l 625 -118 q 636 -113 645 -113 q 653 -114 664 -111 l 664 -111 q 681 -106 704 -103 q 727 -100 768 -100 l 768 -100 q 831 -100 874 -120 q 917 -141 939 -177 q 960 -214 960 -261 l 960 -261 q 960 -293 952 -321 q 943 -350 924 -384 q 904 -418 871 -462 l 871 -462 q 839 -505 819 -537 q 799 -570 790 -599 q 781 -628 781 -661 l 781 -661 q 781 -699 799 -730 q 817 -762 856 -781 q 894 -801 954 -801 l 954 -801 q 1002 -801 1035 -796 q 1068 -791 1090 -784 l 1090 -784 l 1062 -675 q 1049 -680 1032 -683 q 1014 -687 993 -687 l 993 -687 q 970 -687 958 -677 q 945 -667 945 -648 l 945 -648 q 945 -632 951 -618 q 956 -604 971 -583 q 986 -562 1014 -526 l 1014 -526 q 1050 -479 1076 -436 q 1101 -393 1115 -350 q 1128 -308 1128 -260 l 1128 -260 q 1128 -225 1118 -187 q 1108 -149 1085 -114 q 1061 -79 1020 -50 q 978 -22 916 -5 q 853 12 766 12 z"},"ൖ":{"ha":846,"x_min":32,"x_max":815,"o":"m 302 -183 l 302 -183 q 302 -156 312 -138 q 322 -121 342 -112 q 362 -104 390 -104 l 390 -104 q 430 -104 446 -118 q 462 -132 462 -157 l 462 -157 q 462 -183 451 -209 q 439 -235 424 -263 q 409 -292 397 -326 q 385 -360 385 -402 l 385 -402 q 385 -453 412 -493 q 438 -533 484 -555 q 529 -577 585 -577 l 585 -577 q 670 -577 720 -550 q 770 -523 793 -480 q 815 -437 815 -390 l 815 -390 q 815 -322 779 -269 q 743 -216 669 -185 q 594 -155 478 -155 l 478 -155 l 418 -155 q 373 -155 332 -160 q 290 -166 249 -178 l 249 -178 l 201 -185 q 151 -203 113 -232 q 75 -262 54 -304 q 32 -347 32 -403 l 32 -403 q 32 -446 48 -490 q 63 -535 94 -578 l 94 -578 l 224 -515 q 209 -488 202 -463 q 195 -439 195 -408 l 195 -408 q 195 -375 203 -352 q 211 -329 225 -311 l 225 -311 l 280 -287 q 309 -273 347 -266 q 384 -259 420 -259 l 420 -259 l 464 -259 q 532 -259 573 -277 q 614 -295 633 -326 q 651 -358 651 -398 l 651 -398 q 651 -426 637 -447 q 623 -469 590 -469 l 590 -469 q 572 -469 559 -460 q 545 -452 539 -437 q 532 -423 532 -406 l 532 -406 q 532 -372 546 -341 q 559 -310 576 -279 q 593 -248 607 -214 q 620 -180 620 -139 l 620 -139 q 620 -110 610 -83 q 600 -56 576 -34 q 551 -13 506 0 q 461 12 390 12 l 390 12 q 321 12 269 -8 q 216 -28 187 -71 q 157 -114 157 -180 l 157 -180 q 157 -223 171 -269 q 185 -315 210 -364 q 234 -414 263 -468 l 263 -468 q 286 -509 301 -538 q 315 -568 322 -591 q 329 -614 329 -634 l 329 -634 q 329 -659 315 -672 q 301 -686 269 -686 l 269 -686 q 249 -686 232 -683 q 214 -680 203 -678 l 203 -678 l 175 -782 q 202 -790 240 -795 q 278 -801 318 -801 l 318 -801 q 388 -801 426 -779 q 464 -758 479 -725 q 493 -693 493 -660 l 493 -660 q 493 -633 488 -607 q 482 -582 470 -554 q 457 -526 436 -489 q 415 -453 385 -402 l 385 -402 q 359 -359 342 -326 q 325 -293 317 -268 q 308 -243 305 -223 q 302 -203 302 -183 z"},"ൗ":{"ha":851,"x_min":31,"x_max":815,"o":"m 574 -577 l 574 -577 q 650 -577 704 -544 q 757 -512 786 -451 q 815 -391 815 -308 l 815 -308 q 815 -208 779 -136 q 743 -64 672 -26 q 601 12 495 12 l 495 12 q 411 12 349 -2 q 287 -17 232 -45 l 232 -45 l 291 -154 q 341 -128 383 -117 q 425 -106 478 -106 l 478 -106 q 541 -106 578 -129 q 615 -153 631 -198 q 647 -243 647 -306 l 647 -306 q 647 -386 623 -424 q 599 -462 562 -462 l 562 -462 q 545 -462 533 -455 q 521 -449 514 -438 l 514 -438 q 506 -425 503 -407 q 500 -389 500 -354 l 500 -354 l 500 -265 l 336 -265 l 336 -339 q 336 -376 333 -401 q 329 -426 319 -438 l 319 -438 q 310 -451 298 -456 q 285 -462 271 -462 l 271 -462 q 235 -462 216 -437 q 196 -413 196 -378 l 196 -378 q 196 -350 201 -329 q 205 -308 211 -291 l 211 -291 l 51 -256 q 41 -286 36 -319 q 31 -353 31 -379 l 31 -379 q 31 -432 55 -477 q 79 -522 129 -549 q 178 -577 255 -577 l 255 -577 q 316 -577 356 -559 q 396 -541 425 -511 l 425 -511 l 408 -512 q 441 -548 483 -562 q 524 -577 574 -577 z"},"൘":{"ha":1364,"x_min":36,"x_max":1326,"o":"m 673 12 l 673 12 q 611 12 567 -8 q 522 -28 485 -67 l 485 -67 l 503 -62 q 462 -24 420 -6 q 378 12 313 12 l 313 12 q 225 12 163 -25 q 101 -62 69 -126 q 36 -190 36 -269 l 36 -269 q 36 -332 52 -384 q 68 -436 99 -483 q 130 -530 176 -577 l 176 -577 l 297 -499 q 263 -458 243 -421 q 223 -384 214 -347 q 204 -310 204 -269 l 204 -269 q 204 -211 222 -174 q 240 -138 268 -121 q 296 -105 324 -105 l 324 -105 q 348 -105 364 -113 q 380 -121 389 -133 l 389 -133 q 402 -150 407 -176 q 411 -203 411 -245 l 411 -245 l 411 -565 l 577 -565 l 577 -262 q 577 -207 584 -179 q 590 -151 604 -133 l 604 -133 q 617 -120 635 -112 q 652 -105 672 -105 l 672 -105 q 696 -105 713 -112 q 729 -119 740 -131 l 740 -131 q 755 -148 762 -176 q 768 -204 768 -253 l 768 -253 l 768 -565 l 933 -565 l 933 -265 l 856 -67 q 818 -26 776 -7 q 733 12 673 12 z m 1040 12 l 1040 12 q 975 12 930 -6 q 885 -25 843 -65 l 843 -65 l 778 -255 l 778 -555 l 933 -555 l 933 -251 q 933 -202 938 -177 q 942 -152 957 -133 l 957 -133 q 968 -120 985 -112 q 1002 -105 1027 -105 l 1027 -105 q 1065 -105 1095 -130 q 1124 -155 1141 -204 q 1157 -253 1157 -323 l 1157 -323 q 1157 -390 1144 -451 q 1130 -512 1100 -562 q 1069 -613 1018 -650 q 967 -687 892 -707 q 817 -727 714 -727 l 714 -727 q 640 -727 569 -718 q 498 -709 448 -697 l 448 -697 l 428 -818 q 475 -829 520 -836 q 565 -843 614 -846 q 663 -849 719 -849 l 719 -849 q 854 -849 956 -822 q 1057 -795 1128 -746 q 1198 -697 1242 -631 q 1285 -566 1306 -489 q 1326 -412 1326 -328 l 1326 -328 q 1326 -220 1293 -144 q 1259 -68 1195 -28 q 1131 12 1040 12 z"},"൙":{"ha":1281,"x_min":36,"x_max":1263,"o":"m 405 -577 l 405 -577 q 507 -577 582 -550 q 657 -523 706 -476 q 755 -429 780 -367 q 804 -306 804 -236 l 804 -236 q 804 -152 775 -96 q 745 -41 689 -14 q 633 12 554 12 l 554 12 q 472 12 424 -13 q 376 -38 356 -78 q 335 -119 335 -164 l 335 -164 q 335 -217 358 -254 q 380 -292 416 -313 l 416 -313 q 440 -328 470 -336 q 499 -345 540 -349 q 581 -353 639 -353 l 639 -353 l 839 -353 l 839 -237 l 636 -237 q 590 -237 566 -233 q 541 -230 523 -219 l 523 -219 q 511 -211 504 -198 q 496 -185 496 -165 l 496 -165 q 496 -139 511 -120 q 526 -102 560 -102 l 560 -102 q 585 -102 604 -115 q 622 -129 632 -158 q 642 -187 642 -236 l 642 -236 q 642 -253 641 -270 q 640 -288 638 -300 l 638 -300 l 633 -331 q 623 -366 597 -395 q 570 -425 527 -442 q 483 -460 420 -460 l 420 -460 q 348 -460 301 -438 q 253 -416 229 -376 q 205 -336 205 -281 l 205 -281 q 205 -238 217 -202 q 228 -166 250 -133 q 272 -100 303 -66 l 303 -66 l 186 12 q 143 -26 109 -69 q 75 -112 56 -164 q 36 -217 36 -282 l 36 -282 q 36 -338 56 -390 q 76 -443 120 -485 q 163 -527 234 -552 q 305 -577 405 -577 z m 1058 -565 l 1058 -565 q 1131 -565 1176 -542 q 1221 -520 1242 -483 q 1263 -447 1263 -406 l 1263 -406 q 1263 -359 1246 -327 q 1228 -295 1199 -275 l 1199 -275 q 1176 -261 1149 -252 q 1121 -243 1087 -240 q 1052 -237 1005 -237 l 1005 -237 l 732 -237 l 732 -353 l 1010 -353 q 1046 -353 1063 -355 q 1079 -358 1088 -363 l 1088 -363 q 1101 -369 1107 -378 q 1113 -388 1113 -405 l 1113 -405 q 1113 -426 1099 -439 q 1085 -452 1060 -452 l 1060 -452 q 1029 -452 1014 -435 q 999 -418 999 -391 l 999 -391 q 999 -362 1011 -341 q 1023 -321 1040 -303 l 1040 -303 l 892 -297 q 877 -317 866 -347 q 855 -378 855 -406 l 855 -406 q 855 -459 881 -494 q 907 -530 953 -547 q 999 -565 1058 -565 z"},"൚":{"ha":1200,"x_min":36,"x_max":1146,"o":"m 772 -577 l 772 -577 q 865 -577 934 -558 q 1003 -539 1049 -503 l 1049 -503 q 1082 -477 1104 -443 q 1125 -410 1136 -363 q 1146 -317 1146 -250 l 1146 -250 l 1146 0 l 586 0 l 586 -110 q 633 -154 670 -200 q 706 -246 728 -293 q 749 -341 749 -390 l 749 -390 q 749 -409 744 -424 q 739 -440 728 -449 q 716 -459 695 -459 l 695 -459 q 669 -459 649 -445 q 629 -432 615 -408 l 615 -408 q 603 -387 597 -353 q 591 -320 591 -278 l 591 -278 l 591 -230 l 425 -230 l 425 -322 q 425 -363 421 -389 q 416 -415 402 -432 l 402 -432 q 393 -444 376 -452 q 359 -461 333 -461 l 333 -461 q 301 -461 272 -444 q 242 -427 223 -391 q 204 -355 204 -296 l 204 -296 q 204 -256 214 -219 q 223 -182 243 -145 q 263 -108 297 -66 l 297 -66 l 176 12 q 130 -35 99 -82 q 68 -129 52 -181 q 36 -234 36 -296 l 36 -296 q 36 -376 69 -439 q 102 -503 166 -540 q 230 -577 323 -577 l 323 -577 q 369 -577 407 -567 q 444 -558 476 -540 q 507 -522 536 -496 l 536 -496 l 503 -484 q 535 -515 576 -535 q 616 -556 665 -566 q 714 -577 772 -577 z m 912 -367 l 912 -367 q 912 -320 894 -276 q 876 -232 845 -190 q 813 -148 772 -106 l 772 -106 l 749 -110 q 773 -114 798 -114 q 823 -115 841 -115 l 841 -115 l 981 -115 l 981 -248 q 981 -312 970 -354 q 959 -396 935 -423 q 910 -450 869 -468 l 869 -468 l 873 -475 q 889 -457 901 -431 q 912 -405 912 -367 z"},"൛":{"ha":1077,"x_min":59,"x_max":1040,"o":"m 696 12 l 696 12 q 603 12 538 -13 q 473 -38 433 -80 q 393 -122 375 -173 q 356 -225 356 -278 l 356 -278 q 356 -339 372 -382 q 387 -425 416 -461 q 444 -497 482 -537 l 482 -537 l 446 -450 l 225 -450 l 225 0 l 59 0 l 59 -565 l 558 -565 l 613 -489 q 587 -462 567 -432 q 547 -402 535 -366 q 523 -331 523 -285 l 523 -285 q 523 -231 545 -190 q 566 -150 605 -127 q 644 -105 695 -105 l 695 -105 q 747 -105 787 -126 q 826 -148 848 -188 q 870 -229 870 -284 l 870 -284 q 870 -328 859 -364 q 848 -400 826 -433 q 804 -466 772 -499 l 772 -499 l 890 -577 q 935 -540 969 -497 q 1002 -454 1021 -401 q 1040 -349 1040 -283 l 1040 -283 q 1040 -231 1022 -179 q 1003 -127 962 -83 q 921 -40 856 -14 q 790 12 696 12 z"},"൜":{"ha":1699,"x_min":36,"x_max":1663,"o":"m 1026 -577 l 1026 -577 q 1094 -577 1143 -560 q 1192 -543 1224 -511 l 1224 -511 q 1245 -489 1259 -460 q 1272 -432 1279 -394 q 1285 -356 1285 -305 l 1285 -305 l 1285 -268 q 1285 -218 1290 -186 q 1295 -154 1311 -135 l 1311 -135 q 1322 -121 1340 -113 q 1357 -105 1383 -105 l 1383 -105 q 1414 -105 1440 -121 q 1465 -137 1480 -174 q 1495 -211 1495 -272 l 1495 -272 q 1495 -312 1486 -349 q 1477 -386 1457 -422 q 1437 -459 1404 -499 l 1404 -499 l 1523 -578 q 1568 -531 1600 -484 q 1631 -437 1647 -384 q 1663 -331 1663 -266 l 1663 -266 q 1663 -183 1629 -120 q 1595 -57 1532 -22 q 1469 12 1381 12 l 1381 12 q 1313 12 1266 -4 q 1218 -20 1185 -50 l 1185 -50 q 1161 -73 1146 -104 q 1130 -136 1123 -176 q 1116 -217 1116 -268 l 1116 -268 l 1116 -291 q 1116 -352 1111 -382 q 1106 -412 1092 -430 l 1092 -430 q 1082 -445 1066 -452 q 1049 -460 1026 -460 l 1026 -460 q 1000 -460 983 -451 q 966 -443 955 -427 l 955 -427 q 943 -408 939 -377 q 934 -347 934 -292 l 934 -292 l 934 -260 q 934 -210 927 -172 q 920 -134 907 -105 q 894 -77 873 -55 l 873 -55 q 841 -22 792 -5 q 743 12 673 12 l 673 12 q 603 12 555 -5 q 507 -22 476 -54 l 476 -54 q 455 -77 442 -105 q 428 -133 421 -171 q 414 -210 414 -260 l 414 -260 l 414 -297 q 414 -344 409 -377 q 404 -411 389 -430 l 389 -430 q 378 -445 361 -452 q 343 -460 317 -460 l 317 -460 q 286 -460 261 -444 q 235 -428 220 -391 q 204 -355 204 -293 l 204 -293 q 204 -253 214 -216 q 223 -180 243 -143 q 263 -107 296 -66 l 296 -66 l 177 13 q 132 -35 101 -82 q 69 -129 53 -181 q 36 -234 36 -299 l 36 -299 q 36 -382 71 -445 q 105 -508 168 -542 q 231 -577 319 -577 l 319 -577 q 386 -577 434 -561 q 482 -545 514 -515 l 514 -515 q 539 -493 554 -461 q 569 -429 576 -388 q 583 -348 583 -297 l 583 -297 l 583 -273 q 583 -213 589 -183 q 594 -154 607 -135 l 607 -135 q 618 -121 634 -113 q 650 -105 674 -105 l 674 -105 q 700 -105 717 -113 q 733 -122 744 -139 l 744 -139 q 756 -158 761 -188 q 765 -218 765 -271 l 765 -271 l 765 -307 q 765 -356 772 -394 q 779 -432 793 -461 q 806 -490 827 -511 l 827 -511 q 859 -544 909 -560 q 958 -577 1026 -577 z"},"൝":{"ha":2224,"x_min":8,"x_max":2188,"o":"m 849 -577 l 849 -577 q 917 -577 966 -560 q 1015 -543 1047 -511 l 1047 -511 q 1068 -489 1081 -460 q 1094 -432 1101 -394 q 1108 -356 1108 -305 l 1108 -305 l 1108 -273 q 1108 -213 1113 -183 q 1118 -154 1132 -135 l 1132 -135 q 1142 -121 1159 -113 q 1175 -105 1199 -105 l 1199 -105 q 1224 -105 1241 -113 q 1258 -122 1269 -139 l 1269 -139 q 1281 -158 1286 -188 q 1290 -218 1290 -271 l 1290 -271 l 1290 -307 q 1290 -356 1297 -394 q 1304 -432 1318 -461 q 1331 -490 1352 -511 l 1352 -511 q 1384 -544 1433 -560 q 1482 -577 1551 -577 l 1551 -577 q 1618 -577 1668 -560 q 1717 -543 1748 -511 l 1748 -511 q 1769 -489 1783 -460 q 1796 -432 1803 -394 q 1810 -356 1810 -305 l 1810 -305 l 1810 -268 q 1810 -218 1815 -186 q 1820 -154 1835 -135 l 1835 -135 q 1847 -121 1865 -113 q 1882 -105 1907 -105 l 1907 -105 q 1939 -105 1964 -121 q 1989 -137 2005 -174 q 2020 -211 2020 -272 l 2020 -272 q 2020 -312 2011 -349 q 2002 -386 1982 -422 q 1961 -459 1928 -499 l 1928 -499 l 2047 -578 q 2093 -531 2124 -484 q 2155 -437 2172 -384 q 2188 -331 2188 -266 l 2188 -266 q 2188 -183 2154 -120 q 2120 -57 2057 -22 q 1993 12 1906 12 l 1906 12 q 1838 12 1790 -4 q 1742 -20 1710 -50 l 1710 -50 q 1686 -73 1671 -104 q 1655 -136 1648 -176 q 1641 -217 1641 -268 l 1641 -268 l 1641 -291 q 1641 -352 1636 -382 q 1631 -412 1617 -430 l 1617 -430 q 1607 -445 1591 -452 q 1574 -460 1550 -460 l 1550 -460 q 1525 -460 1508 -451 q 1491 -443 1480 -427 l 1480 -427 q 1468 -408 1464 -377 q 1459 -347 1459 -292 l 1459 -292 l 1459 -260 q 1459 -210 1452 -172 q 1445 -134 1432 -105 q 1418 -77 1397 -55 l 1397 -55 q 1366 -22 1317 -5 q 1268 12 1198 12 l 1198 12 q 1127 12 1080 -5 q 1032 -22 1000 -54 l 1000 -54 q 979 -77 966 -105 q 952 -133 946 -171 q 939 -210 939 -260 l 939 -260 l 939 -293 q 939 -354 934 -383 q 929 -412 915 -430 l 915 -430 q 905 -445 889 -452 q 872 -460 848 -460 l 848 -460 q 823 -460 806 -451 q 789 -443 778 -427 l 778 -427 q 766 -408 762 -377 q 757 -347 757 -292 l 757 -292 l 757 -260 q 757 -183 740 -133 q 723 -83 686 -49 l 686 -49 q 653 -18 609 -3 q 565 12 508 12 l 508 12 q 438 12 393 -8 q 347 -29 309 -67 l 309 -67 l 322 -65 q 295 -37 268 -20 q 240 -3 210 5 q 179 12 140 12 l 140 12 q 102 12 71 4 q 40 -4 8 -22 l 8 -22 l 49 -130 q 67 -120 89 -112 q 110 -105 137 -105 l 137 -105 q 159 -105 177 -112 q 195 -120 206 -134 l 206 -134 q 221 -152 226 -177 q 230 -202 230 -251 l 230 -251 l 230 -562 l 396 -565 l 396 -253 q 396 -205 402 -177 q 407 -149 423 -131 l 423 -131 q 435 -119 453 -112 q 470 -105 492 -105 l 492 -105 q 517 -105 534 -113 q 551 -121 562 -135 l 562 -135 q 578 -154 583 -185 q 588 -216 588 -275 l 588 -275 l 588 -307 q 588 -356 595 -394 q 601 -432 615 -461 q 629 -490 650 -511 l 650 -511 q 682 -544 731 -560 q 780 -577 849 -577 z"},"൞":{"ha":1556,"x_min":36,"x_max":1529,"o":"m 405 -577 l 405 -577 q 507 -577 582 -550 q 657 -523 706 -476 q 755 -429 780 -367 q 804 -306 804 -236 l 804 -236 q 804 -152 775 -96 q 745 -41 689 -14 q 633 12 554 12 l 554 12 q 472 12 424 -13 q 376 -38 356 -78 q 335 -119 335 -164 l 335 -164 q 335 -217 358 -254 q 380 -292 416 -313 l 416 -313 q 440 -328 470 -336 q 499 -345 540 -349 q 581 -353 639 -353 l 639 -353 l 732 -353 l 732 -237 l 636 -237 q 590 -237 566 -233 q 541 -230 523 -219 l 523 -219 q 511 -211 504 -198 q 496 -185 496 -165 l 496 -165 q 496 -139 511 -120 q 526 -102 560 -102 l 560 -102 q 585 -102 604 -115 q 622 -129 632 -158 q 642 -187 642 -236 l 642 -236 q 642 -253 641 -270 q 640 -288 638 -300 l 638 -300 l 633 -331 q 623 -366 597 -395 q 570 -425 527 -442 q 483 -460 420 -460 l 420 -460 q 348 -460 301 -438 q 253 -416 229 -376 q 205 -336 205 -281 l 205 -281 q 205 -238 217 -202 q 228 -166 250 -133 q 272 -100 303 -66 l 303 -66 l 186 12 q 143 -26 109 -69 q 75 -112 56 -164 q 36 -217 36 -282 l 36 -282 q 36 -338 56 -390 q 76 -443 120 -485 q 163 -527 234 -552 q 305 -577 405 -577 z m 1283 -199 l 1283 -199 q 1199 -199 1145 -228 q 1091 -257 1066 -302 q 1041 -347 1041 -393 l 1041 -393 q 1041 -421 1048 -447 q 1054 -473 1065 -493 l 1065 -493 l 1069 -450 l 905 -450 l 944 -496 q 958 -480 968 -455 q 977 -430 977 -399 l 977 -399 q 977 -345 951 -309 q 925 -273 876 -255 q 827 -237 758 -237 l 758 -237 l 709 -237 l 709 -353 l 759 -353 q 788 -353 806 -358 q 824 -364 832 -376 q 840 -389 840 -406 l 840 -406 q 840 -420 835 -434 q 830 -448 822 -458 l 822 -458 l 862 -565 l 1175 -565 l 1232 -502 q 1221 -486 1211 -461 q 1200 -436 1200 -403 l 1200 -403 q 1200 -367 1220 -340 q 1239 -313 1281 -313 l 1281 -313 q 1310 -313 1329 -325 q 1347 -337 1356 -357 q 1365 -378 1365 -404 l 1365 -404 q 1365 -441 1353 -468 q 1340 -495 1322 -521 l 1322 -521 l 1450 -578 q 1487 -539 1508 -494 q 1529 -450 1529 -395 l 1529 -395 q 1529 -335 1498 -291 q 1466 -247 1411 -223 q 1356 -199 1283 -199 z"},"ൟ":{"ha":1518,"x_min":26,"x_max":1493,"o":"m 26 -271 l 26 -271 q 26 -331 69 -370 q 111 -410 184 -410 l 184 -410 q 257 -410 300 -371 q 343 -332 343 -271 l 343 -271 q 343 -212 301 -172 q 258 -133 184 -133 l 184 -133 q 110 -133 68 -172 q 26 -212 26 -271 z m 134 -272 l 134 -272 q 134 -251 147 -237 q 159 -223 184 -223 l 184 -223 q 209 -223 222 -237 q 235 -252 235 -272 l 235 -272 q 235 -293 221 -306 q 207 -320 184 -320 l 184 -320 q 160 -320 147 -306 q 134 -293 134 -272 z m 1176 -271 l 1176 -271 q 1176 -331 1219 -370 q 1261 -410 1334 -410 l 1334 -410 q 1407 -410 1450 -371 q 1493 -332 1493 -271 l 1493 -271 q 1493 -212 1451 -172 q 1408 -133 1334 -133 l 1334 -133 q 1260 -133 1218 -172 q 1176 -212 1176 -271 z m 1284 -272 l 1284 -272 q 1284 -251 1297 -237 q 1309 -223 1334 -223 l 1334 -223 q 1359 -223 1372 -237 q 1384 -252 1384 -272 l 1384 -272 q 1384 -293 1371 -306 q 1357 -320 1334 -320 l 1334 -320 q 1310 -320 1297 -306 q 1284 -293 1284 -272 z m 745 -577 l 745 -577 q 847 -577 922 -550 q 997 -523 1046 -476 q 1095 -429 1120 -367 q 1144 -306 1144 -236 l 1144 -236 q 1144 -154 1115 -98 q 1085 -43 1029 -15 q 972 12 892 12 l 892 12 q 811 12 761 -18 q 710 -48 687 -97 q 663 -147 663 -206 l 663 -206 q 663 -298 716 -354 q 769 -410 867 -410 l 867 -410 q 928 -410 974 -380 q 1020 -350 1048 -303 q 1075 -256 1078 -204 l 1078 -204 l 1015 -205 q 1009 -230 995 -252 q 981 -274 959 -288 q 937 -303 907 -303 l 907 -303 q 864 -303 844 -277 q 823 -251 823 -203 l 823 -203 q 823 -172 832 -149 q 840 -127 857 -115 q 874 -104 897 -104 l 897 -104 q 925 -104 944 -118 q 962 -132 972 -162 q 982 -193 982 -240 l 982 -240 q 982 -255 981 -272 q 979 -290 976 -306 l 976 -306 q 975 -311 976 -318 q 977 -325 975 -329 l 975 -329 q 969 -365 942 -394 q 915 -424 870 -442 q 824 -460 760 -460 l 760 -460 q 688 -460 640 -438 q 592 -416 569 -376 q 545 -336 545 -281 l 545 -281 q 545 -238 557 -202 q 568 -166 590 -133 q 612 -100 643 -66 l 643 -66 l 526 12 q 483 -26 449 -69 q 415 -112 396 -164 q 376 -217 376 -282 l 376 -282 q 376 -338 396 -390 q 416 -443 460 -485 q 503 -527 574 -552 q 644 -577 745 -577 z"},"ൠ":{"ha":1034,"x_min":32,"x_max":1001,"o":"m 760 -577 l 760 -577 q 873 -577 937 -515 q 1001 -453 1001 -340 l 1001 -340 q 1001 -270 972 -215 q 943 -160 890 -124 l 890 -124 q 845 -93 784 -78 q 723 -64 654 -62 l 654 -62 l 588 -72 l 441 -70 l 375 -62 q 307 -65 251 -78 q 195 -92 151 -121 l 151 -121 q 94 -156 63 -212 q 32 -268 32 -340 l 32 -340 q 32 -414 62 -467 q 92 -520 147 -548 q 202 -577 279 -577 l 279 -577 q 351 -577 398 -552 q 445 -528 469 -486 q 493 -445 493 -396 l 493 -396 q 493 -338 468 -299 q 443 -261 397 -242 q 350 -224 284 -224 l 284 -224 q 239 -224 201 -240 q 162 -257 132 -281 q 102 -305 82 -327 l 82 -327 l 120 -427 q 139 -401 158 -378 q 177 -356 202 -342 q 227 -328 259 -328 l 259 -328 q 290 -328 312 -344 q 333 -361 333 -400 l 333 -400 q 333 -432 315 -450 q 297 -468 268 -468 l 268 -468 q 242 -468 223 -454 q 204 -440 194 -414 q 183 -388 183 -351 l 183 -351 q 183 -335 186 -321 q 188 -307 191 -294 l 191 -294 l 186 -275 q 200 -240 231 -219 q 261 -198 303 -187 q 345 -177 393 -173 q 441 -170 490 -170 l 490 -170 l 543 -170 q 589 -170 637 -173 q 685 -176 729 -186 q 772 -196 804 -217 q 835 -239 849 -275 l 849 -275 l 844 -293 q 847 -306 849 -320 q 851 -334 851 -350 l 851 -350 q 851 -388 841 -414 q 830 -440 812 -454 q 793 -468 768 -468 l 768 -468 q 737 -468 719 -450 q 701 -432 701 -400 l 701 -400 q 701 -361 723 -344 q 744 -328 775 -328 l 775 -328 q 808 -328 833 -342 q 857 -356 877 -378 q 896 -401 914 -427 l 914 -427 l 952 -327 q 933 -305 903 -281 q 872 -257 834 -240 q 795 -224 748 -224 l 748 -224 q 683 -224 637 -242 q 591 -261 567 -299 q 542 -338 542 -396 l 542 -396 q 542 -445 567 -486 q 591 -528 640 -552 q 688 -577 760 -577 z m 524 255 l 524 255 q 383 255 290 235 q 197 214 152 169 q 106 124 106 50 l 106 50 q 106 -2 134 -36 q 162 -71 210 -92 q 258 -113 318 -121 q 378 -130 442 -130 l 442 -130 l 590 -130 q 655 -130 716 -121 q 777 -113 825 -92 q 872 -71 900 -36 q 928 -1 928 51 l 928 51 q 928 119 886 165 q 843 210 754 233 q 665 255 524 255 z m 519 143 l 519 143 q 608 143 663 133 q 718 122 744 99 q 770 76 770 40 l 770 40 q 770 7 752 -12 q 733 -32 700 -42 q 667 -53 624 -57 q 580 -61 531 -61 l 531 -61 l 504 -61 q 435 -61 381 -53 q 326 -46 295 -24 q 264 -2 264 39 l 264 39 q 264 77 290 100 q 316 123 373 133 q 429 143 519 143 z m 603 -41 l 603 -41 q 639 -41 662 -28 q 684 -16 696 4 q 708 23 713 45 q 717 66 717 84 l 717 84 l 717 110 l 621 110 l 621 98 q 621 78 617 65 q 612 52 594 52 l 594 52 q 573 52 569 66 q 564 79 564 97 l 564 97 l 564 110 l 470 110 l 470 97 q 470 77 465 65 q 460 52 442 52 l 442 52 q 421 52 417 67 q 413 81 413 98 l 413 98 l 413 110 l 317 110 l 317 84 q 317 66 322 45 q 326 23 338 4 q 349 -16 372 -28 q 395 -41 432 -41 l 432 -41 q 464 -41 483 -30 q 501 -20 517 -4 l 517 -4 q 534 -22 555 -31 q 575 -41 603 -41 z"},"ൡ":{"ha":1510,"x_min":35,"x_max":1484,"o":"m 410 -577 l 410 -577 q 501 -577 565 -553 q 628 -529 679 -476 l 679 -476 l 702 -399 l 730 -226 l 730 0 l 564 0 l 564 -271 q 564 -342 553 -376 q 542 -410 519 -429 l 519 -429 q 501 -444 474 -452 q 447 -461 406 -461 l 406 -461 q 345 -461 295 -436 q 245 -411 216 -362 q 186 -314 186 -242 l 186 -242 l 186 -238 q 186 -184 197 -153 q 208 -122 227 -109 q 245 -97 267 -97 l 267 -97 q 286 -97 299 -105 q 312 -113 319 -129 q 326 -145 326 -170 l 326 -170 q 326 -205 310 -224 q 293 -244 261 -244 l 261 -244 q 225 -244 195 -223 q 164 -203 127 -162 l 127 -162 l 110 -271 q 144 -302 192 -327 q 240 -353 303 -353 l 303 -353 q 363 -353 404 -330 q 445 -308 466 -269 q 486 -230 486 -177 l 486 -177 q 486 -118 462 -75 q 437 -33 390 -10 q 342 12 272 12 l 272 12 q 208 12 154 -14 q 100 -40 68 -96 q 35 -153 35 -243 l 35 -243 q 35 -351 85 -425 q 134 -500 219 -538 q 304 -577 410 -577 z m 909 -577 l 909 -577 q 1001 -577 1074 -548 q 1146 -520 1194 -465 q 1241 -411 1259 -334 l 1259 -334 q 1265 -310 1268 -284 q 1271 -259 1271 -230 l 1271 -230 q 1271 -147 1244 -93 q 1216 -39 1162 -13 q 1108 12 1028 12 l 1028 12 q 955 12 905 -13 q 854 -39 828 -83 q 802 -127 802 -185 l 802 -185 q 802 -291 880 -348 q 958 -406 1099 -406 l 1099 -406 q 1121 -406 1139 -405 q 1157 -404 1173 -402 l 1173 -402 l 1213 -399 q 1299 -385 1360 -344 q 1420 -303 1452 -241 q 1484 -179 1484 -102 l 1484 -102 q 1484 -42 1466 13 q 1448 67 1407 110 q 1365 152 1298 177 q 1231 201 1133 201 l 1133 201 q 1084 201 1037 194 q 990 187 950 174 l 950 174 l 995 63 q 1028 73 1059 78 q 1089 82 1128 82 l 1128 82 q 1188 82 1227 65 q 1266 48 1288 21 q 1309 -7 1318 -39 q 1326 -72 1326 -103 l 1326 -103 q 1326 -151 1314 -185 q 1301 -220 1277 -244 q 1253 -269 1220 -282 l 1220 -282 l 1183 -289 q 1167 -293 1149 -294 q 1130 -296 1109 -296 l 1109 -296 q 1057 -296 1025 -281 q 992 -267 977 -241 q 962 -215 962 -181 l 962 -181 q 962 -157 970 -138 q 978 -120 994 -110 q 1009 -101 1033 -101 l 1033 -101 q 1074 -101 1096 -130 q 1117 -160 1117 -231 l 1117 -231 q 1117 -261 1113 -288 q 1108 -316 1099 -339 l 1099 -339 l 1087 -375 q 1069 -402 1044 -421 q 1018 -440 984 -450 q 949 -460 904 -460 l 904 -460 q 866 -460 839 -451 q 811 -443 788 -425 l 788 -425 q 767 -409 754 -384 q 741 -360 736 -325 q 730 -290 730 -240 l 730 -240 l 730 -211 l 622 -461 q 651 -492 690 -518 q 729 -545 783 -561 q 836 -577 909 -577 z"},"ൢ":{"ha":0,"x_min":-948,"x_max":-32,"o":"m -675 -30 l -675 -30 q -608 -30 -553 -8 q -498 13 -464 65 l -464 65 l -422 162 l -422 333 l -556 333 l -556 196 q -556 152 -563 127 q -570 101 -588 85 l -588 85 q -602 73 -625 66 q -648 59 -682 59 l -682 59 q -714 59 -743 66 q -772 73 -793 89 q -814 104 -824 132 l -824 132 q -827 143 -828 154 q -829 165 -829 181 l -829 181 q -829 224 -811 238 q -793 251 -776 251 l -776 251 q -754 251 -741 241 q -729 231 -729 210 l -729 210 q -729 188 -742 178 q -755 168 -779 168 l -779 168 q -810 168 -834 185 q -859 201 -887 227 l -887 227 l -909 155 q -876 126 -834 105 q -792 84 -748 84 l -748 84 q -676 84 -643 118 q -611 151 -611 204 l -611 204 q -611 265 -649 301 q -688 337 -770 337 l -770 337 q -854 337 -901 293 q -948 249 -948 172 l -948 172 q -948 105 -909 61 q -871 16 -809 -7 q -747 -30 -675 -30 z m -302 -30 l -302 -30 q -230 -30 -169 -7 q -108 16 -70 62 q -32 107 -32 174 l -32 174 q -32 260 -77 299 q -122 337 -206 337 l -206 337 q -261 337 -295 318 q -330 298 -346 267 q -363 235 -363 199 l -363 199 q -363 159 -346 130 q -330 101 -298 85 q -266 69 -221 69 l -221 69 q -189 69 -161 85 q -134 100 -110 131 q -87 161 -69 205 l -69 205 l -125 206 q -130 185 -148 165 q -166 144 -193 144 l -193 144 q -219 144 -231 158 q -244 171 -244 197 l -244 197 q -244 222 -233 237 q -222 251 -200 251 l -200 251 q -178 251 -165 233 q -152 215 -152 172 l -152 172 q -152 161 -153 152 q -154 142 -157 134 l -157 134 l -168 109 q -180 90 -200 80 q -220 69 -244 64 q -268 59 -292 59 l -292 59 q -324 59 -347 65 q -370 71 -386 84 l -386 84 q -404 98 -412 124 q -421 149 -422 195 l -422 195 l -532 155 q -527 82 -492 42 q -458 2 -407 -14 q -357 -30 -302 -30 z"},"ൣ":{"ha":0,"x_min":-948,"x_max":111,"o":"m -675 -30 l -675 -30 q -608 -30 -553 -8 q -498 13 -464 65 l -464 65 l -422 162 l -422 333 l -556 333 l -556 196 q -556 152 -563 127 q -570 101 -588 85 l -588 85 q -602 73 -625 66 q -648 59 -682 59 l -682 59 q -714 59 -743 66 q -772 73 -793 89 q -814 104 -824 132 l -824 132 q -827 143 -828 154 q -829 165 -829 181 l -829 181 q -829 224 -811 238 q -793 251 -776 251 l -776 251 q -754 251 -741 241 q -729 231 -729 210 l -729 210 q -729 188 -742 178 q -755 168 -779 168 l -779 168 q -810 168 -834 185 q -859 201 -887 227 l -887 227 l -909 155 q -876 126 -834 105 q -792 84 -748 84 l -748 84 q -676 84 -643 118 q -611 151 -611 204 l -611 204 q -611 265 -649 301 q -688 337 -770 337 l -770 337 q -854 337 -901 293 q -948 249 -948 172 l -948 172 q -948 105 -909 61 q -871 16 -809 -7 q -747 -30 -675 -30 z m -302 -30 l -302 -30 q -231 -30 -170 -6 q -110 17 -73 62 q -36 107 -36 173 l -36 173 q -36 228 -55 265 q -75 301 -112 319 q -150 337 -206 337 l -206 337 q -263 337 -297 319 q -332 300 -347 270 q -363 239 -363 206 l -363 206 q -363 135 -308 98 q -254 61 -151 61 l -151 61 q -137 61 -122 62 q -108 62 -94 64 l -94 64 q -40 67 7 88 q 53 109 82 151 q 111 193 111 263 l 111 263 q 111 294 103 318 q 95 342 84 357 l 84 357 l -25 323 q -19 312 -15 294 q -11 275 -11 258 l -11 258 q -11 216 -26 188 q -41 159 -80 146 l -80 146 l -104 142 q -114 140 -125 139 q -136 138 -148 138 l -148 138 q -189 138 -216 153 q -244 168 -244 205 l -244 205 q -244 224 -233 238 q -222 251 -200 251 l -200 251 q -178 251 -165 233 q -152 215 -152 175 l -152 175 q -152 162 -153 151 q -155 140 -158 130 l -158 130 l -168 109 q -181 88 -203 78 q -225 67 -248 63 q -272 59 -292 59 l -292 59 q -324 59 -347 65 q -370 71 -386 84 l -386 84 q -404 98 -412 124 q -421 149 -422 195 l -422 195 l -532 155 q -529 101 -508 65 q -487 29 -454 9 q -422 -12 -382 -21 q -343 -30 -302 -30 z"},"൦":{"ha":633,"x_min":37,"x_max":596,"o":"m 317 -35 l 317 -35 q 232 -35 169 -65 q 105 -95 71 -150 q 37 -205 37 -282 l 37 -282 q 37 -357 72 -413 q 107 -469 170 -499 q 232 -530 316 -530 l 316 -530 q 408 -530 470 -498 q 532 -466 564 -410 q 596 -355 596 -282 l 596 -282 q 596 -208 562 -152 q 527 -97 465 -66 q 403 -35 317 -35 z m 317 -149 l 317 -149 q 350 -149 376 -164 q 402 -179 417 -209 q 431 -239 431 -283 l 431 -283 q 431 -348 399 -382 q 366 -416 316 -416 l 316 -416 q 267 -416 235 -382 q 202 -349 202 -282 l 202 -282 q 202 -217 234 -183 q 265 -149 317 -149 z"},"൧":{"ha":995,"x_min":12,"x_max":940,"o":"m 425 86 l 425 203 l 272 203 q 203 203 159 196 q 114 188 82 170 l 82 170 q 49 151 31 120 q 12 89 12 47 l 12 47 q 12 6 28 -25 q 44 -57 76 -77 l 76 -77 q 96 -91 122 -99 q 147 -108 182 -112 q 217 -116 265 -116 l 265 -116 l 494 -116 l 503 0 l 277 0 q 240 0 225 2 q 209 3 199 8 l 199 8 q 187 13 183 22 q 178 30 178 41 l 178 41 q 178 63 195 73 l 195 73 q 205 80 224 83 q 242 86 282 86 l 282 86 l 425 86 z m 650 -577 l 650 -577 q 719 -577 774 -559 q 828 -541 866 -505 l 866 -505 q 905 -470 923 -419 q 940 -369 940 -289 l 940 -289 l 940 0 l 360 0 l 360 -284 q 360 -342 368 -382 q 376 -423 394 -453 q 411 -483 436 -507 l 436 -507 q 474 -541 528 -559 q 582 -577 650 -577 z m 652 -461 l 652 -461 q 621 -461 599 -452 q 576 -444 560 -427 l 560 -427 q 543 -408 534 -376 q 525 -344 525 -284 l 525 -284 l 525 -116 l 775 -116 l 775 -277 q 775 -341 767 -374 q 758 -408 741 -427 l 741 -427 q 727 -444 706 -452 q 684 -461 652 -461 z"},"൨":{"ha":941,"x_min":36,"x_max":922,"o":"m 380 -577 l 380 -577 q 474 -577 539 -552 q 603 -527 644 -485 q 684 -444 703 -392 q 721 -340 721 -287 l 721 -287 q 721 -227 705 -184 q 689 -141 661 -104 q 632 -68 594 -28 l 594 -28 l 631 -116 l 922 -116 l 922 0 l 518 0 l 464 -76 q 490 -104 510 -133 q 530 -163 542 -199 q 553 -235 553 -280 l 553 -280 q 553 -335 532 -375 q 510 -415 472 -437 q 433 -460 381 -460 l 381 -460 q 330 -460 291 -438 q 251 -417 229 -377 q 207 -337 207 -281 l 207 -281 q 207 -238 218 -201 q 229 -165 251 -132 q 272 -100 304 -66 l 304 -66 l 186 12 q 143 -26 109 -69 q 75 -112 56 -164 q 36 -217 36 -282 l 36 -282 q 36 -335 55 -387 q 74 -439 115 -482 q 155 -525 221 -551 q 287 -577 380 -577 z"},"൩":{"ha":1200,"x_min":36,"x_max":1180,"o":"m 321 -577 l 321 -577 q 367 -577 400 -569 q 432 -561 460 -545 q 487 -529 515 -504 l 515 -504 l 501 -502 q 542 -541 589 -559 q 635 -577 702 -577 l 702 -577 q 790 -577 853 -540 q 915 -504 948 -441 q 980 -379 980 -299 l 980 -299 q 980 -251 972 -212 q 963 -173 942 -137 q 921 -101 886 -60 l 886 -60 l 846 0 l 769 0 l 723 -63 q 756 -107 776 -144 q 796 -181 805 -216 q 813 -252 813 -292 l 813 -292 q 813 -352 795 -389 q 776 -426 747 -443 q 718 -461 683 -461 l 683 -461 q 658 -461 642 -452 q 625 -444 615 -432 l 615 -432 q 602 -415 597 -390 q 591 -365 591 -324 l 591 -324 l 591 0 l 425 0 l 425 -322 q 425 -364 421 -389 q 416 -415 402 -432 l 402 -432 q 393 -444 376 -452 q 359 -461 333 -461 l 333 -461 q 301 -461 272 -444 q 242 -427 223 -391 q 204 -355 204 -296 l 204 -296 q 204 -255 214 -218 q 223 -182 243 -145 q 263 -108 297 -66 l 297 -66 l 176 12 q 130 -35 99 -82 q 68 -129 52 -181 q 36 -234 36 -296 l 36 -296 q 36 -376 69 -439 q 102 -503 166 -540 q 229 -577 321 -577 z m 822 0 l 880 -116 l 1180 -116 l 1180 0 l 822 0 z"},"൪":{"ha":889,"x_min":36,"x_max":884,"o":"m 408 -577 l 408 -577 q 501 -577 571 -553 q 641 -530 699 -482 l 699 -482 q 755 -436 785 -372 q 814 -309 814 -236 l 814 -236 q 814 -157 786 -101 q 758 -46 701 -17 q 644 12 557 12 l 557 12 q 477 12 423 -15 q 369 -43 342 -89 q 314 -135 314 -192 l 314 -192 q 314 -258 343 -306 q 372 -355 432 -398 q 492 -441 583 -489 l 583 -489 q 636 -519 666 -539 q 695 -559 708 -579 q 720 -599 720 -627 l 720 -627 q 720 -641 715 -655 q 710 -670 701 -682 l 701 -682 l 849 -748 q 865 -724 875 -693 q 884 -662 884 -629 l 884 -629 q 884 -575 862 -538 q 840 -501 793 -468 q 745 -436 669 -395 l 669 -395 q 606 -361 564 -331 q 521 -302 500 -269 q 479 -236 479 -192 l 479 -192 q 479 -152 499 -128 q 519 -104 557 -104 l 557 -104 q 590 -104 610 -118 q 629 -133 638 -160 q 646 -188 646 -227 l 646 -227 q 646 -280 624 -335 q 601 -391 552 -424 l 552 -424 q 525 -445 492 -455 q 459 -465 412 -465 l 412 -465 q 346 -465 300 -442 q 254 -420 230 -379 q 205 -338 205 -281 l 205 -281 q 205 -238 217 -202 q 228 -166 250 -133 q 272 -100 303 -66 l 303 -66 l 186 12 q 143 -26 109 -69 q 75 -112 56 -164 q 36 -217 36 -282 l 36 -282 q 36 -338 57 -391 q 77 -444 121 -485 q 165 -527 236 -552 q 307 -577 408 -577 z"},"൫":{"ha":1121,"x_min":40,"x_max":1081,"o":"m 565 -731 l 565 -731 q 697 -731 794 -697 q 891 -664 955 -603 q 1018 -542 1050 -459 q 1081 -376 1081 -277 l 1081 -277 q 1081 -212 1062 -136 q 1043 -61 1000 12 l 1000 12 l 868 -47 q 886 -85 898 -119 q 909 -153 915 -189 q 920 -225 920 -269 l 920 -269 q 920 -342 899 -404 q 878 -467 836 -514 q 793 -561 727 -587 q 660 -613 569 -613 l 569 -613 q 457 -613 374 -573 q 291 -534 246 -455 q 200 -377 200 -259 l 200 -259 q 200 -197 215 -139 q 229 -82 262 -37 q 294 7 347 34 q 400 60 478 60 l 478 60 q 579 60 626 25 q 672 -11 672 -74 l 672 -74 q 672 -106 660 -132 q 647 -158 621 -173 q 594 -189 550 -189 l 550 -189 l 539 -189 l 539 -302 l 557 -302 q 591 -302 611 -305 q 630 -309 643 -319 l 643 -319 q 653 -326 658 -337 q 663 -349 663 -364 l 663 -364 q 663 -393 643 -409 q 622 -426 581 -426 l 581 -426 q 537 -426 508 -403 q 479 -381 466 -344 q 452 -307 452 -262 l 452 -262 q 452 -203 467 -157 q 482 -111 515 -60 l 515 -60 l 379 10 q 336 -54 311 -123 q 286 -193 286 -270 l 286 -270 q 286 -353 323 -414 q 359 -475 427 -509 q 494 -543 588 -543 l 588 -543 q 667 -543 720 -521 q 773 -499 801 -461 q 828 -424 828 -376 l 828 -376 q 828 -349 818 -323 q 808 -297 786 -275 q 763 -253 723 -238 l 723 -238 l 720 -252 q 776 -226 807 -177 q 837 -129 837 -65 l 837 -65 q 837 16 795 70 q 752 123 673 150 q 593 177 482 177 l 482 177 q 345 177 246 127 q 146 76 93 -20 q 40 -117 40 -253 l 40 -253 q 40 -375 82 -465 q 123 -555 196 -614 q 268 -673 363 -702 q 458 -731 565 -731 z"},"൬":{"ha":1364,"x_min":36,"x_max":1326,"o":"m 673 -577 l 673 -577 q 733 -577 776 -558 q 818 -540 856 -498 l 856 -498 l 933 -300 l 933 0 l 768 0 l 768 -312 q 768 -362 762 -389 q 755 -417 740 -434 l 740 -434 q 729 -447 713 -454 q 696 -461 672 -461 l 672 -461 q 652 -461 635 -453 q 617 -445 604 -432 l 604 -432 q 590 -414 584 -386 q 577 -359 577 -303 l 577 -303 l 577 0 l 411 0 l 411 -320 q 411 -363 407 -389 q 402 -415 389 -432 l 389 -432 q 380 -444 364 -452 q 348 -461 324 -461 l 324 -461 q 296 -461 268 -444 q 240 -427 222 -391 q 204 -355 204 -296 l 204 -296 q 204 -256 214 -219 q 223 -182 243 -145 q 263 -108 297 -66 l 297 -66 l 176 12 q 130 -35 99 -82 q 68 -129 52 -181 q 36 -234 36 -296 l 36 -296 q 36 -376 69 -439 q 101 -503 163 -540 q 225 -577 313 -577 l 313 -577 q 378 -577 420 -559 q 462 -542 503 -504 l 503 -504 l 485 -498 q 522 -538 567 -557 q 611 -577 673 -577 z m 1040 -577 l 1040 -577 q 1176 -577 1251 -487 q 1326 -397 1326 -227 l 1326 -227 q 1326 -92 1286 4 q 1245 99 1156 150 q 1067 201 920 201 l 920 201 q 887 201 854 199 q 821 197 789 191 l 789 191 l 801 74 q 822 78 847 80 q 872 82 900 82 l 900 82 q 978 82 1029 59 q 1079 36 1107 -6 q 1135 -49 1146 -106 q 1157 -163 1157 -229 l 1157 -229 q 1157 -305 1141 -356 q 1124 -408 1095 -434 q 1065 -461 1027 -461 l 1027 -461 q 1002 -461 985 -453 q 968 -446 957 -432 l 957 -432 q 942 -414 938 -388 q 933 -363 933 -314 l 933 -314 l 933 -10 l 778 -10 l 778 -311 l 843 -501 q 885 -541 930 -559 q 975 -577 1040 -577 z"},"൭":{"ha":837,"x_min":35,"x_max":798,"o":"m 431 -577 l 431 -577 q 528 -577 598 -549 q 667 -521 712 -471 q 756 -422 777 -355 q 798 -288 798 -209 l 798 -209 q 798 -117 773 -41 q 747 34 696 88 q 644 142 566 172 q 487 201 381 201 l 381 201 q 350 201 317 199 q 283 197 251 191 l 251 191 l 263 74 q 285 78 310 80 q 334 82 364 82 l 364 82 q 439 82 490 60 q 541 37 572 -3 q 603 -43 617 -96 q 630 -149 630 -209 l 630 -209 q 630 -331 574 -395 q 517 -460 414 -460 l 414 -460 q 351 -460 299 -433 q 247 -407 217 -358 q 186 -309 186 -242 l 186 -242 l 186 -237 q 186 -183 197 -152 q 208 -122 227 -109 q 245 -97 267 -97 l 267 -97 q 286 -97 299 -105 q 312 -113 319 -129 q 326 -145 326 -169 l 326 -169 q 326 -204 310 -224 q 293 -244 261 -244 l 261 -244 q 225 -244 195 -223 q 164 -203 127 -162 l 127 -162 l 110 -271 q 144 -302 191 -327 q 238 -353 301 -353 l 301 -353 q 362 -353 403 -330 q 444 -308 465 -269 q 486 -230 486 -177 l 486 -177 q 486 -118 462 -75 q 437 -33 390 -10 q 343 12 273 12 l 273 12 q 208 12 154 -14 q 100 -41 68 -96 q 35 -152 35 -240 l 35 -240 q 35 -342 84 -417 q 132 -493 221 -535 q 310 -577 431 -577 z"},"൮":{"ha":1071,"x_min":36,"x_max":1012,"o":"m 380 -577 l 380 -577 q 474 -577 539 -552 q 603 -527 644 -485 q 684 -444 703 -392 q 721 -340 721 -287 l 721 -287 q 721 -227 705 -184 q 689 -141 661 -104 q 632 -68 594 -28 l 594 -28 l 631 -116 l 846 -116 l 846 -565 l 1012 -565 l 1012 -201 l 927 0 l 518 0 l 464 -76 q 490 -104 510 -133 q 530 -163 542 -199 q 553 -235 553 -280 l 553 -280 q 553 -335 532 -375 q 510 -415 472 -437 q 433 -460 381 -460 l 381 -460 q 330 -460 291 -438 q 251 -417 229 -377 q 207 -337 207 -281 l 207 -281 q 207 -238 218 -201 q 229 -165 251 -132 q 272 -100 304 -66 l 304 -66 l 186 12 q 143 -26 109 -69 q 75 -112 56 -164 q 36 -217 36 -282 l 36 -282 q 36 -335 55 -387 q 74 -439 115 -482 q 155 -525 221 -551 q 287 -577 380 -577 z m 647 201 l 647 201 q 619 201 585 199 q 551 196 521 190 l 521 190 l 537 74 q 557 79 582 81 q 607 83 632 83 l 632 83 q 697 83 739 70 q 780 57 803 36 q 826 15 836 -11 q 846 -38 847 -65 l 847 -65 l 1012 -298 l 1012 -153 q 1012 -79 1002 -28 q 992 23 973 58 q 953 92 924 120 l 924 120 q 878 162 808 182 q 738 201 647 201 z"},"൯":{"ha":1252,"x_min":36,"x_max":1246,"o":"m 321 -577 l 321 -577 q 367 -577 401 -569 q 434 -561 463 -544 q 491 -528 521 -502 l 521 -502 l 591 -217 l 591 0 l 425 0 l 425 -322 q 425 -363 421 -389 q 416 -415 402 -432 l 402 -432 q 393 -444 376 -452 q 359 -461 333 -461 l 333 -461 q 301 -461 272 -444 q 242 -427 223 -391 q 204 -355 204 -296 l 204 -296 q 204 -255 214 -218 q 223 -182 243 -145 q 263 -108 297 -66 l 297 -66 l 176 12 q 130 -35 99 -82 q 68 -129 52 -181 q 36 -234 36 -296 l 36 -296 q 36 -376 69 -439 q 102 -503 166 -540 q 229 -577 321 -577 z m 774 -577 l 774 -577 q 867 -577 936 -553 q 1004 -530 1062 -482 l 1062 -482 q 1117 -436 1147 -372 q 1176 -309 1176 -236 l 1176 -236 q 1176 -157 1148 -101 q 1120 -46 1064 -17 q 1007 12 920 12 l 920 12 q 840 12 786 -15 q 731 -43 704 -89 q 676 -135 676 -192 l 676 -192 q 676 -258 706 -306 q 735 -355 795 -398 q 855 -441 946 -489 l 946 -489 q 998 -519 1028 -539 q 1057 -559 1070 -579 q 1082 -599 1082 -627 l 1082 -627 q 1082 -641 1077 -655 q 1072 -670 1063 -682 l 1063 -682 l 1211 -748 q 1227 -724 1237 -693 q 1246 -662 1246 -629 l 1246 -629 q 1246 -575 1224 -538 q 1202 -501 1155 -468 q 1108 -436 1032 -395 l 1032 -395 q 969 -361 926 -331 q 883 -302 862 -269 q 841 -236 841 -192 l 841 -192 q 841 -152 862 -128 q 882 -104 919 -104 l 919 -104 q 953 -104 972 -118 q 991 -133 1000 -160 q 1009 -188 1009 -227 l 1009 -227 q 1009 -280 987 -335 q 964 -391 915 -424 l 915 -424 q 887 -445 854 -455 q 821 -465 772 -465 l 772 -465 q 728 -465 699 -456 q 669 -447 648 -430 l 648 -430 q 630 -416 617 -394 q 604 -373 598 -338 q 591 -304 591 -250 l 591 -250 l 591 -24 l 435 -24 l 435 -308 l 483 -469 q 513 -500 550 -524 q 586 -548 640 -562 q 693 -577 774 -577 z"},"൰":{"ha":1155,"x_min":-39,"x_max":1119,"o":"m 202 -565 l 368 -565 l 368 -161 l 361 -134 q 361 -45 345 16 q 328 77 291 120 l 291 120 q 255 160 200 181 q 145 201 64 201 l 64 201 q 41 201 14 199 q -14 196 -39 190 l -39 190 l -25 73 q -12 77 5 80 q 22 82 41 82 l 41 82 q 85 82 115 72 q 144 62 162 44 l 162 44 q 183 23 193 -8 q 202 -39 202 -101 l 202 -101 l 202 -565 z m 842 12 l 842 12 q 777 12 731 -6 q 684 -25 642 -65 l 642 -65 l 660 -68 q 622 -28 577 -8 q 532 12 468 12 l 468 12 q 425 12 395 2 q 364 -8 340 -28 q 316 -48 292 -74 l 292 -74 l 230 -258 l 231 -557 l 368 -558 l 368 -255 q 368 -206 375 -177 q 381 -148 396 -131 l 396 -131 q 408 -118 426 -111 q 443 -105 468 -105 l 468 -105 q 492 -105 510 -112 q 527 -120 539 -133 l 539 -133 q 555 -151 562 -180 q 568 -209 568 -263 l 568 -263 l 568 -565 l 734 -565 l 734 -251 q 734 -202 739 -177 q 744 -152 758 -134 l 758 -134 q 769 -120 787 -112 q 805 -105 826 -105 l 826 -105 q 860 -105 888 -122 q 916 -140 934 -177 q 951 -215 951 -273 l 951 -273 q 951 -313 942 -349 q 932 -385 912 -422 q 892 -459 859 -499 l 859 -499 l 979 -577 q 1024 -531 1055 -483 q 1086 -436 1103 -383 q 1119 -331 1119 -266 l 1119 -266 q 1119 -187 1087 -124 q 1054 -61 992 -24 q 930 12 842 12 z"},"൱":{"ha":1022,"x_min":36,"x_max":983,"o":"m 321 -577 l 321 -577 q 367 -577 400 -569 q 432 -561 460 -545 q 487 -529 515 -504 l 515 -504 l 591 -217 l 591 0 l 425 0 l 425 -322 q 425 -363 421 -389 q 416 -415 402 -432 l 402 -432 q 393 -444 376 -452 q 359 -461 333 -461 l 333 -461 q 301 -461 272 -444 q 242 -427 223 -391 q 204 -355 204 -296 l 204 -296 q 204 -255 214 -218 q 223 -182 243 -145 q 263 -108 297 -66 l 297 -66 l 176 12 q 130 -35 99 -82 q 68 -129 52 -181 q 36 -234 36 -296 l 36 -296 q 36 -376 69 -439 q 102 -503 166 -540 q 229 -577 321 -577 z m 697 -577 l 697 -577 q 788 -577 852 -536 q 916 -496 950 -418 q 983 -341 983 -227 l 983 -227 q 983 -92 943 4 q 903 99 814 150 q 725 201 577 201 l 577 201 q 545 201 512 199 q 478 197 446 191 l 446 191 l 458 74 q 479 78 505 80 q 530 82 558 82 l 558 82 q 635 82 686 59 q 736 36 764 -6 q 792 -49 804 -106 q 815 -163 815 -229 l 815 -229 q 815 -305 798 -356 q 781 -408 752 -434 q 723 -461 684 -461 l 684 -461 q 659 -461 642 -453 q 625 -446 614 -432 l 614 -432 q 600 -414 596 -388 q 591 -363 591 -314 l 591 -314 l 591 -10 l 435 -10 l 435 -311 l 500 -501 q 542 -541 587 -559 q 632 -577 697 -577 z"},"൲":{"ha":1593,"x_min":35,"x_max":1575,"o":"m 1370 -565 l 1370 -565 q 1443 -565 1488 -542 q 1533 -520 1554 -483 q 1575 -447 1575 -406 l 1575 -406 q 1575 -359 1558 -327 q 1540 -295 1511 -275 l 1511 -275 q 1488 -261 1461 -252 q 1433 -243 1399 -240 q 1364 -237 1317 -237 l 1317 -237 l 1044 -237 l 1044 -353 l 1322 -353 q 1358 -353 1375 -355 q 1391 -358 1400 -363 l 1400 -363 q 1412 -369 1419 -378 q 1425 -388 1425 -405 l 1425 -405 q 1425 -426 1411 -439 q 1397 -452 1372 -452 l 1372 -452 q 1341 -452 1326 -435 q 1311 -418 1311 -391 l 1311 -391 q 1311 -362 1323 -341 q 1335 -321 1352 -303 l 1352 -303 l 1204 -297 q 1189 -317 1178 -347 q 1167 -378 1167 -406 l 1167 -406 q 1167 -459 1193 -494 q 1219 -530 1265 -547 q 1311 -565 1370 -565 z m 320 -577 l 320 -577 q 367 -577 402 -568 q 437 -560 468 -542 q 498 -524 530 -496 l 530 -496 l 589 -228 l 589 0 l 424 0 l 424 -322 q 424 -363 419 -389 q 414 -415 401 -432 l 401 -432 q 391 -444 375 -452 q 358 -461 331 -461 l 331 -461 q 300 -461 271 -444 q 241 -427 222 -391 q 203 -355 203 -296 l 203 -296 q 203 -255 212 -218 q 221 -182 242 -145 q 262 -108 295 -66 l 295 -66 l 174 12 q 128 -35 97 -82 q 66 -129 51 -181 q 35 -234 35 -296 l 35 -296 q 35 -376 68 -439 q 101 -503 165 -540 q 228 -577 320 -577 z m 755 -577 l 755 -577 q 833 -577 899 -554 q 964 -532 1013 -488 q 1061 -445 1088 -382 q 1115 -320 1115 -240 l 1115 -240 q 1115 -153 1086 -96 q 1056 -40 1000 -14 q 944 12 865 12 l 865 12 q 783 12 735 -13 q 687 -38 667 -78 q 646 -119 646 -164 l 646 -164 q 646 -217 669 -254 q 691 -292 727 -313 l 727 -313 q 752 -328 781 -336 q 810 -345 851 -349 q 891 -353 950 -353 l 950 -353 l 1232 -353 l 1232 -237 l 952 -237 q 903 -237 878 -233 q 852 -230 835 -219 l 835 -219 q 822 -211 815 -198 q 807 -185 807 -165 l 807 -165 q 807 -139 822 -120 q 837 -102 871 -102 l 871 -102 q 896 -102 915 -115 q 933 -129 944 -159 q 954 -189 954 -240 l 954 -240 q 954 -254 953 -268 q 952 -283 950 -295 l 950 -295 l 945 -329 q 936 -368 911 -397 q 885 -426 846 -443 q 806 -460 753 -460 l 753 -460 q 720 -460 694 -451 q 667 -443 645 -426 l 645 -426 q 627 -411 615 -388 q 602 -366 596 -330 q 589 -295 589 -240 l 589 -240 l 589 -198 l 495 -233 l 491 -472 q 516 -498 552 -522 q 587 -546 638 -561 q 688 -577 755 -577 z"},"൳":{"ha":818,"x_min":35,"x_max":796,"o":"m 271 12 l 271 12 q 204 12 151 -15 q 97 -42 66 -95 q 35 -149 35 -227 l 35 -227 q 35 -312 69 -372 q 102 -433 164 -470 l 164 -470 q 205 -495 249 -508 q 292 -521 350 -526 q 407 -531 486 -531 l 486 -531 l 796 -531 l 796 -412 l 508 -412 q 438 -412 393 -409 q 348 -406 319 -399 q 290 -392 268 -380 l 268 -380 q 241 -367 222 -347 q 203 -328 191 -300 l 191 -300 l 189 -272 q 187 -260 187 -247 q 186 -235 186 -220 l 186 -220 q 186 -175 197 -148 q 208 -121 226 -109 q 244 -97 265 -97 l 265 -97 q 286 -97 299 -105 q 312 -113 319 -129 q 326 -146 326 -169 l 326 -169 q 326 -204 310 -224 q 293 -244 261 -244 l 261 -244 q 225 -244 195 -223 q 164 -203 127 -162 l 127 -162 l 110 -271 q 144 -302 191 -327 q 238 -353 301 -353 l 301 -353 q 362 -353 403 -330 q 444 -308 465 -269 q 486 -230 486 -177 l 486 -177 q 486 -119 462 -76 q 438 -33 391 -10 q 343 12 271 12 z"},"൴":{"ha":1050,"x_min":35,"x_max":1014,"o":"m 527 -789 l 692 -789 l 692 -237 q 692 -205 695 -183 q 697 -161 702 -146 q 707 -132 716 -122 l 716 -122 q 725 -112 738 -106 q 751 -101 769 -101 l 769 -101 q 794 -101 811 -112 q 828 -124 837 -149 q 845 -174 845 -213 l 845 -213 q 845 -265 829 -306 q 813 -347 784 -377 q 754 -408 713 -427 q 672 -446 623 -454 l 623 -454 l 591 -457 q 569 -460 547 -461 q 525 -463 503 -463 l 503 -463 q 444 -463 388 -450 q 331 -438 286 -412 q 240 -387 213 -347 q 185 -308 185 -253 l 185 -253 l 185 -237 q 185 -184 197 -153 q 208 -122 226 -109 q 244 -97 267 -97 l 267 -97 q 286 -97 299 -105 q 312 -113 319 -129 q 326 -146 326 -170 l 326 -170 q 326 -205 309 -224 q 292 -244 260 -244 l 260 -244 q 224 -244 194 -223 q 163 -203 126 -162 l 126 -162 l 110 -271 q 144 -302 191 -327 q 238 -353 301 -353 l 301 -353 q 362 -353 403 -330 q 444 -308 465 -269 q 486 -230 486 -177 l 486 -177 q 486 -118 462 -75 q 437 -33 390 -10 q 342 12 272 12 l 272 12 q 207 12 154 -14 q 100 -40 68 -96 q 35 -152 35 -240 l 35 -240 q 35 -323 69 -385 q 103 -448 166 -491 q 229 -534 316 -555 q 402 -577 506 -577 l 506 -577 q 530 -577 554 -576 q 578 -576 601 -574 l 601 -574 l 643 -571 q 717 -564 784 -538 q 851 -512 903 -468 q 955 -424 985 -363 q 1014 -302 1014 -224 l 1014 -224 q 1014 -152 986 -98 q 958 -45 903 -16 q 847 12 764 12 l 764 12 q 711 12 670 0 q 629 -12 600 -35 l 600 -35 q 574 -56 558 -84 q 542 -113 535 -156 q 527 -200 527 -264 l 527 -264 l 527 -789 z"},"൵":{"ha":1390,"x_min":35,"x_max":1385,"o":"m 410 -577 l 410 -577 q 501 -577 565 -553 q 628 -529 679 -476 l 679 -476 l 697 -388 l 730 -227 l 730 0 l 564 0 l 564 -271 q 564 -342 553 -376 q 542 -410 519 -429 l 519 -429 q 501 -444 474 -452 q 447 -461 406 -461 l 406 -461 q 345 -461 295 -436 q 245 -411 216 -362 q 186 -314 186 -242 l 186 -242 l 186 -238 q 186 -184 197 -153 q 208 -122 227 -109 q 245 -97 267 -97 l 267 -97 q 286 -97 299 -105 q 312 -113 319 -129 q 326 -145 326 -170 l 326 -170 q 326 -205 310 -224 q 293 -244 261 -244 l 261 -244 q 225 -244 195 -223 q 164 -203 127 -162 l 127 -162 l 110 -271 q 144 -302 192 -327 q 240 -353 303 -353 l 303 -353 q 363 -353 404 -330 q 445 -308 466 -269 q 486 -230 486 -177 l 486 -177 q 486 -118 462 -75 q 437 -33 390 -10 q 342 12 272 12 l 272 12 q 208 12 154 -14 q 100 -40 68 -96 q 35 -153 35 -243 l 35 -243 q 35 -351 85 -425 q 134 -500 219 -538 q 304 -577 410 -577 z m 913 -577 l 913 -577 q 1006 -577 1075 -553 q 1143 -530 1201 -482 l 1201 -482 q 1256 -436 1286 -372 q 1315 -309 1315 -236 l 1315 -236 q 1315 -157 1287 -101 q 1259 -46 1203 -17 q 1146 12 1059 12 l 1059 12 q 979 12 925 -15 q 870 -43 843 -89 q 815 -135 815 -192 l 815 -192 q 815 -258 845 -306 q 874 -355 934 -398 q 993 -441 1085 -489 l 1085 -489 q 1137 -519 1167 -539 q 1196 -559 1209 -579 q 1221 -599 1221 -627 l 1221 -627 q 1221 -641 1216 -655 q 1211 -670 1202 -682 l 1202 -682 l 1350 -748 q 1366 -724 1376 -693 q 1385 -662 1385 -629 l 1385 -629 q 1385 -575 1363 -538 q 1341 -501 1294 -468 q 1247 -436 1171 -395 l 1171 -395 q 1108 -361 1065 -331 q 1022 -302 1001 -269 q 980 -236 980 -192 l 980 -192 q 980 -152 1001 -128 q 1021 -104 1058 -104 l 1058 -104 q 1092 -104 1111 -118 q 1130 -133 1139 -160 q 1148 -188 1148 -227 l 1148 -227 q 1148 -280 1126 -335 q 1103 -391 1054 -424 l 1054 -424 q 1026 -445 993 -455 q 960 -465 911 -465 l 911 -465 q 867 -465 838 -456 q 808 -447 787 -430 l 787 -430 q 769 -416 756 -394 q 743 -373 737 -338 q 730 -304 730 -250 l 730 -250 l 730 -24 l 574 -24 l 574 -308 l 622 -469 q 652 -500 689 -524 q 725 -548 779 -562 q 832 -577 913 -577 z"},"൶":{"ha":1504,"x_min":28,"x_max":1451,"o":"m 274 -367 l 274 -367 q 359 -367 413 -337 q 466 -308 491 -263 q 516 -219 516 -172 l 516 -172 q 516 -145 509 -119 q 502 -93 492 -72 l 492 -72 l 488 -116 l 781 -116 l 783 0 l 382 0 l 325 -64 q 336 -81 347 -105 q 357 -129 357 -162 l 357 -162 q 357 -199 338 -225 q 318 -252 276 -252 l 276 -252 q 247 -252 229 -240 q 210 -228 201 -207 q 192 -187 192 -161 l 192 -161 q 192 -125 205 -97 q 218 -70 235 -44 l 235 -44 l 107 12 q 70 -27 49 -71 q 28 -115 28 -170 l 28 -170 q 28 -230 60 -274 q 91 -319 146 -343 q 201 -367 274 -367 z m 1077 -577 l 1077 -577 q 1169 -577 1238 -558 q 1307 -539 1354 -503 l 1354 -503 q 1386 -477 1408 -443 q 1429 -410 1440 -363 q 1451 -317 1451 -250 l 1451 -250 l 1451 0 l 726 0 l 726 -250 q 726 -314 737 -361 q 747 -408 769 -443 q 790 -478 823 -504 l 823 -504 q 868 -540 930 -558 q 992 -577 1077 -577 z m 999 -459 l 999 -459 q 973 -459 953 -445 q 933 -432 918 -409 l 918 -409 q 904 -386 898 -351 q 891 -317 891 -261 l 891 -261 l 891 -68 l 844 -69 q 902 -119 949 -171 q 996 -223 1025 -277 q 1053 -332 1053 -390 l 1053 -390 q 1053 -409 1048 -424 q 1043 -440 1032 -449 q 1020 -459 999 -459 z m 1216 -367 l 1216 -367 q 1216 -320 1198 -276 q 1180 -232 1149 -190 q 1117 -148 1075 -106 l 1075 -106 l 1054 -110 q 1077 -114 1102 -114 q 1127 -115 1145 -115 l 1145 -115 l 1286 -115 l 1286 -248 q 1286 -312 1275 -354 q 1263 -396 1239 -423 q 1215 -450 1174 -468 l 1174 -468 l 1176 -475 q 1192 -457 1204 -431 q 1216 -405 1216 -367 z"},"൷":{"ha":1948,"x_min":28,"x_max":1929,"o":"m 274 -367 l 274 -367 q 359 -367 413 -337 q 466 -308 491 -263 q 516 -219 516 -172 l 516 -172 q 516 -145 509 -119 q 502 -93 492 -72 l 492 -72 l 488 -116 l 760 -116 l 793 0 l 382 0 l 325 -64 q 336 -81 347 -105 q 357 -129 357 -162 l 357 -162 q 357 -199 338 -225 q 318 -252 276 -252 l 276 -252 q 247 -252 229 -240 q 210 -228 201 -207 q 192 -187 192 -161 l 192 -161 q 192 -125 205 -97 q 218 -70 235 -44 l 235 -44 l 107 12 q 70 -27 49 -71 q 28 -115 28 -170 l 28 -170 q 28 -230 60 -274 q 91 -319 146 -343 q 201 -367 274 -367 z m 904 -577 l 904 -577 q 950 -577 985 -568 q 1020 -560 1051 -542 q 1082 -524 1113 -496 l 1113 -496 l 1173 -244 l 1173 -230 l 1007 -230 l 1007 -322 q 1007 -363 1003 -389 q 998 -415 984 -432 l 984 -432 q 975 -444 958 -452 q 941 -461 915 -461 l 915 -461 q 883 -461 854 -444 q 824 -427 805 -391 q 786 -355 786 -296 l 786 -296 q 786 -235 807 -182 q 827 -129 875 -63 l 875 -63 l 829 0 l 731 0 l 682 -95 q 661 -125 647 -156 q 632 -188 625 -222 q 618 -257 618 -296 l 618 -296 q 618 -376 651 -439 q 684 -503 748 -540 q 812 -577 904 -577 z m 1349 -577 l 1349 -577 q 1429 -577 1496 -554 q 1562 -532 1611 -488 q 1660 -445 1687 -382 q 1713 -320 1713 -240 l 1713 -240 q 1713 -153 1683 -96 q 1653 -40 1598 -14 q 1542 12 1462 12 l 1462 12 q 1381 12 1333 -13 q 1285 -38 1265 -78 q 1244 -119 1244 -164 l 1244 -164 q 1244 -217 1267 -254 q 1289 -292 1325 -313 l 1325 -313 q 1350 -328 1379 -336 q 1408 -345 1449 -349 q 1489 -353 1548 -353 l 1548 -353 l 1612 -353 l 1612 -237 l 1550 -237 q 1500 -237 1475 -233 q 1450 -230 1432 -219 l 1432 -219 q 1420 -211 1413 -198 q 1405 -185 1405 -165 l 1405 -165 q 1405 -139 1421 -120 q 1436 -102 1471 -102 l 1471 -102 q 1495 -102 1514 -115 q 1533 -128 1544 -158 q 1554 -188 1554 -240 l 1554 -240 q 1554 -254 1553 -268 q 1552 -283 1550 -295 l 1550 -295 l 1545 -329 q 1535 -367 1509 -396 q 1483 -426 1442 -443 q 1400 -460 1343 -460 l 1343 -460 q 1304 -460 1278 -452 q 1251 -444 1228 -426 l 1228 -426 q 1211 -412 1199 -389 q 1186 -366 1180 -330 q 1173 -295 1173 -240 l 1173 -240 l 1173 -233 l 1078 -238 l 1077 -475 q 1101 -500 1138 -523 q 1174 -547 1227 -562 q 1279 -577 1349 -577 z m 1758 -448 l 1916 -476 q 1921 -463 1925 -442 q 1929 -421 1929 -400 l 1929 -400 q 1929 -357 1912 -325 q 1895 -294 1866 -275 l 1866 -275 q 1830 -252 1787 -244 q 1744 -237 1676 -237 l 1676 -237 l 1605 -237 l 1605 -353 l 1664 -353 q 1692 -353 1711 -356 q 1730 -359 1741 -366 l 1741 -366 q 1753 -373 1759 -385 q 1764 -398 1764 -415 l 1764 -415 q 1764 -423 1762 -433 q 1760 -443 1758 -448 l 1758 -448 z"},"൸":{"ha":2416,"x_min":8,"x_max":2362,"o":"m 1544 -577 l 1544 -577 q 1579 -577 1609 -571 q 1638 -565 1663 -553 q 1687 -542 1709 -524 q 1731 -506 1751 -482 l 1751 -482 l 1718 -484 q 1750 -515 1791 -535 q 1831 -556 1881 -566 q 1930 -577 1988 -577 l 1988 -577 q 2080 -577 2150 -558 q 2219 -539 2265 -503 l 2265 -503 q 2298 -477 2320 -443 q 2341 -410 2352 -363 q 2362 -317 2362 -250 l 2362 -250 l 2362 0 l 1801 0 l 1801 -110 q 1848 -154 1885 -200 q 1921 -246 1943 -293 q 1964 -341 1964 -390 l 1964 -390 q 1964 -409 1959 -424 q 1954 -440 1943 -449 q 1931 -459 1910 -459 l 1910 -459 q 1884 -459 1864 -446 q 1844 -434 1831 -410 l 1831 -410 q 1818 -389 1812 -356 q 1806 -323 1806 -278 l 1806 -278 l 1806 -230 l 1641 -230 l 1641 -291 q 1641 -352 1636 -382 q 1631 -412 1617 -430 l 1617 -430 q 1607 -445 1591 -452 q 1574 -460 1550 -460 l 1550 -460 q 1524 -460 1508 -451 q 1491 -443 1480 -427 l 1480 -427 q 1468 -408 1464 -377 q 1459 -347 1459 -292 l 1459 -292 l 1459 -260 q 1459 -210 1452 -172 q 1445 -134 1432 -105 q 1418 -77 1397 -55 l 1397 -55 q 1366 -22 1317 -5 q 1268 12 1198 12 l 1198 12 q 1127 12 1080 -5 q 1032 -22 1000 -54 l 1000 -54 q 979 -77 966 -105 q 952 -133 946 -171 q 939 -210 939 -260 l 939 -260 l 939 -293 q 939 -354 934 -383 q 929 -412 915 -430 l 915 -430 q 905 -445 889 -452 q 872 -460 848 -460 l 848 -460 q 823 -460 806 -451 q 789 -443 778 -427 l 778 -427 q 766 -408 762 -377 q 757 -347 757 -292 l 757 -292 l 757 -260 q 757 -183 740 -133 q 723 -83 686 -49 l 686 -49 q 653 -18 609 -3 q 565 12 508 12 l 508 12 q 438 12 393 -8 q 347 -29 309 -67 l 309 -67 l 322 -65 q 295 -37 268 -20 q 240 -3 210 5 q 179 12 140 12 l 140 12 q 102 12 71 4 q 40 -4 8 -22 l 8 -22 l 49 -130 q 67 -120 89 -112 q 110 -105 137 -105 l 137 -105 q 159 -105 177 -112 q 195 -120 206 -134 l 206 -134 q 221 -152 226 -177 q 230 -202 230 -251 l 230 -251 l 230 -562 l 396 -565 l 396 -253 q 396 -205 402 -177 q 407 -149 423 -131 l 423 -131 q 435 -119 453 -112 q 470 -105 492 -105 l 492 -105 q 517 -105 534 -113 q 551 -121 562 -135 l 562 -135 q 578 -154 583 -185 q 588 -216 588 -275 l 588 -275 l 588 -307 q 588 -356 595 -394 q 601 -432 615 -461 q 629 -490 650 -511 l 650 -511 q 682 -544 731 -560 q 780 -577 849 -577 l 849 -577 q 917 -577 966 -560 q 1015 -543 1047 -511 l 1047 -511 q 1068 -489 1081 -460 q 1094 -432 1101 -394 q 1108 -356 1108 -305 l 1108 -305 l 1108 -273 q 1108 -213 1113 -183 q 1118 -154 1132 -135 l 1132 -135 q 1142 -121 1159 -113 q 1175 -105 1199 -105 l 1199 -105 q 1224 -105 1241 -113 q 1258 -122 1269 -139 l 1269 -139 q 1281 -158 1286 -188 q 1290 -218 1290 -271 l 1290 -271 l 1290 -307 q 1290 -356 1297 -394 q 1304 -432 1318 -461 q 1331 -490 1352 -511 l 1352 -511 q 1384 -544 1432 -560 q 1480 -577 1544 -577 z m 2128 -367 l 2128 -367 q 2128 -320 2110 -276 q 2092 -232 2061 -190 q 2029 -148 1987 -106 l 1987 -106 l 1965 -110 q 1988 -114 2013 -114 q 2038 -115 2057 -115 l 2057 -115 l 2197 -115 l 2197 -248 q 2197 -312 2186 -354 q 2175 -396 2151 -423 q 2126 -450 2085 -468 l 2085 -468 l 2088 -475 q 2104 -457 2116 -431 q 2128 -405 2128 -367 z"},"൹":{"ha":1255,"x_min":36,"x_max":1233,"o":"m 321 -577 l 321 -577 q 368 -577 403 -568 q 438 -560 469 -542 q 500 -524 531 -496 l 531 -496 l 591 -228 l 591 0 l 425 0 l 425 -322 q 425 -363 421 -389 q 416 -415 402 -432 l 402 -432 q 393 -444 376 -452 q 359 -461 333 -461 l 333 -461 q 301 -461 272 -444 q 242 -427 223 -391 q 204 -355 204 -296 l 204 -296 q 204 -255 214 -218 q 223 -182 243 -145 q 263 -108 297 -66 l 297 -66 l 176 12 q 130 -35 99 -82 q 68 -129 52 -181 q 36 -234 36 -296 l 36 -296 q 36 -376 69 -439 q 102 -503 166 -540 q 229 -577 321 -577 z m 757 -577 l 757 -577 q 834 -577 900 -554 q 965 -532 1014 -488 q 1062 -445 1089 -382 q 1116 -320 1116 -240 l 1116 -240 q 1116 -153 1087 -96 q 1057 -40 1002 -14 q 946 12 866 12 l 866 12 q 784 12 736 -13 q 688 -38 668 -78 q 647 -119 647 -164 l 647 -164 q 647 -217 670 -254 q 692 -292 728 -313 l 728 -313 q 753 -328 782 -336 q 811 -345 852 -349 q 892 -353 951 -353 l 951 -353 l 1233 -353 l 1233 -237 l 953 -237 q 904 -237 879 -233 q 854 -230 836 -219 l 836 -219 q 823 -211 816 -198 q 809 -185 809 -165 l 809 -165 q 809 -139 824 -120 q 839 -102 873 -102 l 873 -102 q 897 -102 916 -115 q 935 -129 945 -159 q 955 -189 955 -240 l 955 -240 q 955 -254 955 -268 q 954 -283 952 -295 l 952 -295 l 947 -329 q 938 -368 912 -397 q 886 -426 847 -443 q 807 -460 754 -460 l 754 -460 q 722 -460 695 -451 q 668 -443 646 -426 l 646 -426 q 628 -411 616 -388 q 603 -366 597 -330 q 591 -295 591 -240 l 591 -240 l 591 -198 l 496 -233 l 493 -472 q 517 -498 553 -522 q 589 -546 639 -561 q 689 -577 757 -577 z"},"ൺ":{"ha":1713,"x_min":35,"x_max":1677,"o":"m 410 -577 l 410 -577 q 501 -577 565 -553 q 628 -529 679 -476 l 679 -476 l 637 -498 q 672 -537 720 -557 q 767 -577 830 -577 l 830 -577 q 896 -577 941 -556 q 986 -536 1026 -497 l 1026 -497 l 1032 -431 l 1096 -259 l 1096 0 l 931 0 l 931 -312 q 931 -360 925 -388 q 918 -417 902 -434 l 902 -434 q 891 -447 873 -454 q 855 -461 830 -461 l 830 -461 q 807 -461 789 -453 q 771 -445 759 -432 l 759 -432 q 743 -414 737 -385 q 730 -357 730 -303 l 730 -303 l 730 0 l 564 0 l 564 -270 q 564 -342 553 -376 q 542 -410 519 -429 l 519 -429 q 501 -444 474 -452 q 447 -461 406 -461 l 406 -461 q 345 -461 295 -436 q 245 -411 216 -362 q 186 -314 186 -242 l 186 -242 l 186 -238 q 186 -184 197 -153 q 208 -122 227 -109 q 245 -97 267 -97 l 267 -97 q 286 -97 299 -105 q 312 -113 319 -129 q 326 -145 326 -170 l 326 -170 q 326 -205 310 -224 q 293 -244 261 -244 l 261 -244 q 225 -244 195 -223 q 164 -203 127 -162 l 127 -162 l 110 -271 q 144 -302 192 -327 q 240 -353 303 -353 l 303 -353 q 363 -353 404 -330 q 445 -308 466 -268 q 486 -229 486 -176 l 486 -176 q 486 -118 462 -75 q 437 -33 390 -10 q 342 12 272 12 l 272 12 q 208 12 154 -14 q 100 -40 68 -96 q 35 -153 35 -243 l 35 -243 q 35 -351 85 -425 q 134 -500 219 -538 q 304 -577 410 -577 z m 1432 12 l 1432 12 q 1352 12 1299 -16 q 1245 -44 1218 -97 q 1191 -151 1191 -226 l 1191 -226 q 1191 -273 1206 -316 q 1221 -360 1256 -404 q 1290 -448 1348 -495 l 1348 -495 l 1372 -527 q 1407 -557 1427 -581 q 1447 -605 1447 -637 l 1447 -637 q 1447 -660 1433 -673 q 1419 -686 1387 -686 l 1387 -686 q 1366 -686 1349 -683 q 1332 -680 1321 -678 l 1321 -678 l 1294 -782 q 1320 -790 1359 -795 q 1398 -801 1439 -801 l 1439 -801 q 1508 -801 1546 -780 q 1583 -759 1597 -727 q 1611 -695 1611 -662 l 1611 -662 q 1611 -607 1582 -562 q 1552 -518 1495 -470 l 1495 -470 l 1474 -448 q 1436 -418 1410 -381 q 1383 -344 1369 -303 q 1355 -262 1355 -221 l 1355 -221 q 1355 -188 1362 -161 q 1369 -134 1387 -119 q 1404 -104 1433 -104 l 1433 -104 q 1471 -104 1491 -132 q 1510 -160 1510 -224 l 1510 -224 q 1510 -265 1499 -306 q 1487 -347 1464 -381 q 1440 -416 1404 -436 l 1404 -436 q 1381 -449 1353 -457 q 1324 -465 1277 -465 l 1277 -465 q 1235 -465 1205 -457 q 1175 -449 1152 -431 l 1152 -431 q 1134 -417 1122 -395 q 1109 -373 1103 -338 q 1096 -304 1096 -250 l 1096 -250 l 1096 -63 l 945 -63 l 945 -260 l 988 -469 q 1017 -500 1053 -524 q 1089 -549 1143 -563 q 1196 -577 1274 -577 l 1274 -577 q 1328 -577 1373 -569 q 1418 -562 1457 -546 l 1457 -546 q 1464 -544 1472 -540 q 1479 -537 1486 -534 l 1486 -534 q 1546 -504 1589 -458 q 1632 -412 1655 -354 q 1677 -297 1677 -233 l 1677 -233 q 1677 -117 1618 -52 q 1558 12 1432 12 z"},"ൻ":{"ha":1207,"x_min":36,"x_max":1172,"o":"m 321 -577 l 321 -577 q 367 -577 401 -569 q 434 -561 463 -544 q 491 -528 521 -502 l 521 -502 l 591 -217 l 591 0 l 425 0 l 425 -322 q 425 -363 421 -389 q 416 -415 402 -432 l 402 -432 q 393 -444 376 -452 q 359 -461 333 -461 l 333 -461 q 301 -461 272 -444 q 242 -427 223 -391 q 204 -355 204 -296 l 204 -296 q 204 -255 214 -218 q 223 -182 243 -145 q 263 -108 297 -66 l 297 -66 l 176 12 q 130 -35 99 -82 q 68 -129 52 -181 q 36 -234 36 -296 l 36 -296 q 36 -376 69 -439 q 102 -503 166 -540 q 229 -577 321 -577 z m 926 12 l 926 12 q 847 12 794 -16 q 740 -44 713 -97 q 686 -151 686 -226 l 686 -226 q 686 -273 701 -316 q 716 -360 751 -404 q 785 -448 843 -495 l 843 -495 l 866 -527 q 901 -557 922 -581 q 942 -605 942 -637 l 942 -637 q 942 -660 928 -673 q 913 -686 882 -686 l 882 -686 q 861 -686 844 -683 q 827 -680 816 -678 l 816 -678 l 788 -782 q 815 -790 854 -795 q 893 -801 933 -801 l 933 -801 q 1003 -801 1041 -780 q 1078 -759 1092 -727 q 1106 -695 1106 -662 l 1106 -662 q 1106 -607 1077 -562 q 1047 -518 990 -470 l 990 -470 l 969 -448 q 931 -418 905 -381 q 878 -344 864 -303 q 850 -262 850 -221 l 850 -221 q 850 -188 857 -161 q 864 -134 881 -119 q 898 -104 928 -104 l 928 -104 q 966 -104 986 -132 q 1005 -160 1005 -224 l 1005 -224 q 1005 -265 994 -306 q 982 -347 959 -381 q 935 -416 898 -436 l 898 -436 q 876 -449 848 -457 q 819 -465 772 -465 l 772 -465 q 730 -465 700 -457 q 670 -449 647 -431 l 647 -431 q 629 -417 617 -395 q 604 -373 598 -338 q 591 -304 591 -250 l 591 -250 l 591 -63 l 439 -63 l 439 -260 l 482 -469 q 512 -500 548 -524 q 584 -549 637 -563 q 690 -577 769 -577 l 769 -577 q 823 -577 868 -569 q 912 -562 951 -546 l 951 -546 q 959 -544 966 -540 q 973 -537 981 -534 l 981 -534 q 1041 -504 1084 -458 q 1126 -412 1149 -354 q 1172 -297 1172 -233 l 1172 -233 q 1172 -117 1113 -52 q 1053 12 926 12 z"},"ർ":{"ha":839,"x_min":36,"x_max":805,"o":"m 559 12 l 559 12 q 479 12 426 -16 q 372 -44 345 -97 q 318 -151 318 -226 l 318 -226 q 318 -273 334 -316 q 349 -360 384 -404 q 418 -448 475 -495 l 475 -495 l 499 -527 q 534 -557 555 -581 q 575 -605 575 -637 l 575 -637 q 575 -660 561 -673 q 546 -686 514 -686 l 514 -686 q 494 -686 477 -683 q 460 -680 449 -678 l 449 -678 l 421 -782 q 447 -790 486 -795 q 525 -801 566 -801 l 566 -801 q 636 -801 673 -780 q 710 -759 724 -727 q 738 -695 738 -662 l 738 -662 q 738 -607 709 -562 q 679 -518 622 -470 l 622 -470 l 601 -448 q 563 -418 537 -381 q 510 -344 497 -303 q 483 -262 483 -221 l 483 -221 q 483 -188 490 -161 q 497 -134 514 -119 q 531 -104 561 -104 l 561 -104 q 599 -104 618 -132 q 637 -160 637 -224 l 637 -224 q 637 -254 631 -285 q 624 -316 612 -344 q 599 -373 579 -397 q 559 -421 531 -436 l 531 -436 q 508 -449 481 -456 q 454 -464 414 -464 l 414 -464 q 347 -464 301 -442 q 254 -421 230 -380 q 205 -339 205 -281 l 205 -281 q 205 -238 217 -202 q 228 -166 250 -133 q 271 -100 303 -66 l 303 -66 l 186 12 q 142 -26 109 -68 q 75 -111 56 -163 q 36 -216 36 -282 l 36 -282 q 36 -339 57 -391 q 77 -444 121 -486 q 164 -528 235 -552 q 306 -577 406 -577 l 406 -577 q 456 -577 501 -569 q 545 -562 584 -546 l 584 -546 q 592 -544 599 -540 q 606 -537 613 -534 l 613 -534 q 673 -504 716 -458 q 759 -412 782 -354 q 805 -296 805 -232 l 805 -232 q 805 -116 746 -52 q 686 12 559 12 z"},"ൽ":{"ha":1377,"x_min":36,"x_max":1342,"o":"m 833 -577 l 833 -577 q 895 -577 943 -572 q 990 -567 1031 -557 q 1071 -547 1108 -533 l 1108 -533 l 1147 -516 q 1240 -470 1291 -396 q 1342 -323 1342 -225 l 1342 -225 q 1342 -116 1283 -52 q 1223 12 1096 12 l 1096 12 q 1017 12 963 -16 q 909 -44 882 -97 q 855 -151 855 -226 l 855 -226 q 855 -273 871 -316 q 886 -360 921 -404 q 955 -448 1012 -495 l 1012 -495 l 1036 -527 q 1072 -557 1092 -581 q 1112 -605 1112 -637 l 1112 -637 q 1112 -660 1098 -673 q 1083 -686 1051 -686 l 1051 -686 q 1032 -686 1015 -683 q 997 -680 986 -678 l 986 -678 l 958 -782 q 984 -790 1023 -795 q 1062 -801 1103 -801 l 1103 -801 q 1173 -801 1211 -780 q 1248 -759 1262 -727 q 1276 -695 1276 -662 l 1276 -662 q 1276 -607 1246 -562 q 1216 -518 1159 -470 l 1159 -470 l 1139 -448 q 1101 -418 1075 -381 q 1048 -344 1034 -303 q 1020 -262 1020 -221 l 1020 -221 q 1020 -188 1027 -161 q 1034 -134 1052 -119 q 1069 -104 1098 -104 l 1098 -104 q 1136 -104 1155 -131 q 1174 -158 1174 -217 l 1174 -217 q 1174 -259 1160 -298 q 1145 -338 1118 -370 q 1090 -402 1053 -422 l 1053 -422 l 1011 -435 q 973 -449 929 -455 q 885 -462 833 -462 l 833 -462 q 790 -462 747 -456 q 704 -450 666 -436 l 666 -436 l 619 -421 q 566 -393 531 -341 q 495 -290 495 -216 l 495 -216 q 495 -175 507 -150 q 518 -126 537 -115 q 555 -104 576 -104 l 576 -104 q 597 -104 616 -115 q 634 -126 646 -153 q 657 -181 657 -229 l 657 -229 q 657 -279 641 -321 q 624 -363 594 -395 q 564 -428 524 -446 l 524 -446 l 497 -454 q 478 -460 458 -462 q 438 -465 416 -465 l 416 -465 q 341 -465 295 -441 q 248 -418 226 -376 q 204 -335 204 -281 l 204 -281 q 204 -238 215 -202 q 226 -166 248 -133 q 270 -101 302 -66 l 302 -66 l 186 12 q 142 -26 109 -68 q 75 -111 56 -163 q 36 -216 36 -282 l 36 -282 q 36 -335 55 -387 q 73 -439 115 -482 q 157 -525 227 -551 q 297 -577 401 -577 l 401 -577 q 464 -577 516 -566 q 567 -556 614 -533 l 614 -533 l 646 -511 q 728 -467 776 -397 q 823 -328 823 -228 l 823 -228 q 823 -147 795 -93 q 766 -40 711 -14 q 656 12 574 12 l 574 12 q 497 12 442 -15 q 387 -42 358 -94 q 329 -146 329 -219 l 329 -219 q 329 -283 352 -334 q 375 -385 417 -426 q 459 -468 517 -498 l 517 -498 l 543 -520 q 601 -549 671 -563 q 741 -577 833 -577 z"},"ൾ":{"ha":1183,"x_min":36,"x_max":1148,"o":"m 909 -801 l 909 -801 q 979 -801 1016 -780 q 1053 -759 1067 -727 q 1081 -695 1081 -662 l 1081 -662 q 1081 -607 1051 -562 q 1021 -518 965 -470 l 965 -470 l 945 -448 q 907 -418 881 -381 q 854 -344 840 -303 q 826 -262 826 -221 l 826 -221 q 826 -188 833 -161 q 840 -134 858 -119 q 875 -104 904 -104 l 904 -104 q 942 -104 961 -132 q 980 -160 980 -224 l 980 -224 q 980 -254 974 -284 q 968 -315 956 -343 q 943 -372 924 -396 q 904 -420 876 -437 l 876 -437 q 854 -450 826 -457 q 797 -465 757 -465 l 757 -465 q 717 -465 686 -454 q 654 -444 632 -426 l 632 -426 q 601 -400 590 -359 q 579 -319 579 -263 l 579 -263 l 579 -257 q 579 -212 572 -173 q 565 -135 551 -104 q 536 -73 511 -50 l 511 -50 q 479 -20 433 -4 q 386 12 316 12 l 316 12 q 230 12 168 -22 q 105 -57 71 -120 q 36 -183 36 -266 l 36 -266 q 36 -331 53 -384 q 69 -437 101 -484 q 132 -531 177 -578 l 177 -578 l 296 -499 q 263 -459 243 -422 q 222 -386 213 -349 q 204 -312 204 -272 l 204 -272 q 204 -211 220 -174 q 235 -137 260 -121 q 285 -105 315 -105 l 315 -105 q 342 -105 359 -113 q 375 -121 386 -135 l 386 -135 q 401 -154 406 -184 q 410 -215 410 -250 l 410 -250 l 410 -264 q 410 -357 433 -414 q 456 -471 502 -509 l 502 -509 q 548 -545 610 -561 q 671 -577 760 -577 l 760 -577 q 807 -577 848 -569 q 889 -562 926 -548 l 926 -548 l 957 -535 q 1017 -506 1060 -460 q 1102 -414 1125 -356 q 1148 -298 1148 -233 l 1148 -233 q 1148 -117 1089 -52 q 1029 12 903 12 l 903 12 q 822 12 769 -16 q 715 -44 688 -97 q 661 -151 661 -226 l 661 -226 q 661 -273 677 -316 q 692 -360 727 -404 q 761 -448 818 -495 l 818 -495 l 842 -527 q 877 -557 898 -581 q 918 -605 918 -637 l 918 -637 q 918 -660 904 -673 q 889 -686 857 -686 l 857 -686 q 837 -686 820 -683 q 803 -680 792 -678 l 792 -678 l 764 -782 q 790 -790 830 -795 q 869 -801 909 -801 z"},"ൿ":{"ha":1382,"x_min":28,"x_max":1353,"o":"m 592 -577 l 592 -577 q 694 -577 756 -540 q 818 -503 847 -437 q 875 -371 875 -285 l 875 -285 q 875 -189 843 -122 q 810 -56 748 -22 q 685 12 593 12 l 593 12 q 521 12 466 -9 q 411 -30 376 -72 l 376 -72 q 343 -112 326 -166 q 308 -220 308 -285 l 308 -285 q 308 -422 381 -499 q 454 -577 592 -577 z m 592 -462 l 592 -462 q 530 -462 500 -415 q 470 -369 470 -282 l 470 -282 q 470 -227 484 -186 q 497 -146 524 -125 q 551 -104 592 -104 l 592 -104 q 632 -104 659 -124 q 686 -145 700 -185 q 713 -226 713 -284 l 713 -284 q 713 -342 700 -381 q 686 -421 660 -441 q 633 -462 592 -462 z m 240 12 l 240 12 q 138 12 83 -34 q 28 -81 28 -164 l 28 -164 q 28 -215 51 -250 q 74 -286 111 -308 l 111 -308 q 139 -325 173 -335 q 207 -345 254 -349 q 301 -353 370 -353 l 370 -353 l 1066 -353 q 1138 -353 1190 -343 q 1241 -334 1280 -308 l 1280 -308 q 1313 -286 1333 -251 q 1353 -217 1353 -169 l 1353 -169 q 1353 -86 1301 -37 q 1248 12 1138 12 l 1138 12 q 1027 12 972 -38 q 916 -88 916 -163 l 916 -163 q 916 -198 926 -229 q 935 -261 951 -294 l 951 -294 q 953 -298 954 -303 q 954 -309 956 -314 l 956 -314 q 970 -339 987 -368 q 1003 -398 1025 -435 l 1025 -435 q 1058 -489 1077 -525 q 1096 -561 1105 -586 q 1114 -612 1114 -633 l 1114 -633 q 1114 -658 1100 -672 q 1086 -686 1054 -686 l 1054 -686 q 1034 -686 1017 -683 q 999 -680 988 -678 l 988 -678 l 960 -782 q 987 -790 1025 -795 q 1063 -801 1103 -801 l 1103 -801 q 1173 -801 1211 -780 q 1248 -759 1263 -726 q 1278 -694 1278 -660 l 1278 -660 q 1278 -630 1272 -603 q 1266 -577 1253 -547 q 1240 -518 1219 -480 q 1197 -443 1164 -390 l 1164 -390 q 1151 -369 1139 -348 q 1127 -328 1117 -310 l 1117 -310 q 1114 -303 1112 -296 q 1109 -289 1105 -282 l 1105 -282 q 1091 -254 1083 -229 q 1074 -204 1074 -177 l 1074 -177 q 1074 -150 1082 -134 q 1090 -118 1104 -110 q 1118 -103 1136 -103 l 1136 -103 q 1165 -103 1180 -119 q 1194 -135 1194 -164 l 1194 -164 q 1194 -184 1187 -197 q 1180 -211 1168 -219 l 1168 -219 q 1150 -232 1127 -234 q 1104 -237 1074 -237 l 1074 -237 l 326 -237 q 280 -237 255 -233 q 230 -229 213 -217 l 213 -217 q 201 -209 193 -196 q 185 -183 185 -166 l 185 -166 q 185 -145 194 -130 q 202 -116 220 -109 q 238 -103 264 -103 l 264 -103 q 292 -103 320 -112 q 347 -122 378 -146 l 378 -146 l 445 -45 q 411 -24 381 -11 q 350 2 317 7 q 283 12 240 12 z"},"!":{"ha":322,"x_min":67,"x_max":256,"o":"m 231 -243 l 92 -243 l 67 -714 l 256 -714 l 231 -243 z m 161 13 l 161 13 q 122 13 95 -8 q 67 -29 67 -75 l 67 -75 q 67 -124 95 -143 q 122 -163 161 -163 l 161 -163 q 199 -163 226 -143 q 253 -124 253 -75 l 253 -75 q 253 -29 226 -8 q 199 13 161 13 z"},"\"":{"ha":505,"x_min":67,"x_max":439,"o":"m 201 -542 l 87 -542 l 67 -800 l 221 -800 l 201 -542 z m 419 -542 l 305 -542 l 285 -800 l 439 -800 l 419 -542 z"},"#":{"ha":679,"x_min":32,"x_max":647,"o":"m 226 0 l 110 0 l 146 -196 l 32 -196 l 32 -305 l 167 -305 l 186 -406 l 66 -406 l 66 -518 l 207 -518 l 243 -713 l 361 -713 l 324 -518 l 416 -518 l 453 -713 l 570 -713 l 532 -518 l 647 -518 l 647 -406 l 512 -406 l 492 -305 l 615 -305 l 615 -196 l 472 -196 l 435 0 l 317 0 l 354 -196 l 262 -196 l 226 0 z m 303 -406 l 284 -305 l 375 -305 l 395 -406 l 303 -406 z"},"%":{"ha":932,"x_min":30,"x_max":902,"o":"m 332 0 l 202 0 l 598 -714 l 728 -714 l 332 0 z m 205 -276 l 205 -276 q 123 -276 77 -334 q 30 -393 30 -501 l 30 -501 q 30 -609 74 -666 q 117 -724 205 -724 l 205 -724 q 290 -724 336 -666 q 382 -609 382 -501 l 382 -501 q 382 -393 338 -334 q 294 -276 205 -276 z m 206 -385 l 206 -385 q 229 -385 239 -413 q 248 -442 248 -500 l 248 -500 q 248 -558 239 -586 q 229 -615 206 -615 l 206 -615 q 183 -615 174 -586 q 164 -558 164 -500 l 164 -500 q 164 -444 174 -414 q 183 -385 206 -385 z m 724 9 l 724 9 q 642 9 596 -49 q 549 -107 549 -216 l 549 -216 q 549 -323 593 -381 q 636 -439 725 -439 l 725 -439 q 810 -439 856 -381 q 902 -323 902 -215 l 902 -215 q 902 -108 858 -49 q 814 9 724 9 z m 725 -99 l 725 -99 q 748 -99 758 -128 q 768 -157 768 -215 l 768 -215 q 768 -272 758 -300 q 748 -329 725 -329 l 725 -329 q 703 -329 694 -300 q 684 -272 684 -215 l 684 -215 q 684 -158 694 -128 q 703 -99 725 -99 z"},"'":{"ha":287,"x_min":67,"x_max":221,"o":"m 201 -542 l 87 -542 l 67 -800 l 221 -800 l 201 -542 z"},"(":{"ha":355,"x_min":40,"x_max":327,"o":"m 40 -281 l 40 -281 q 40 -374 57 -467 q 73 -561 107 -646 q 140 -732 188 -800 l 188 -800 l 327 -800 q 283 -726 252 -640 q 221 -555 204 -464 q 187 -373 187 -280 l 187 -280 q 187 -187 204 -96 q 220 -6 251 80 q 282 166 327 244 l 327 244 l 188 244 q 139 172 106 86 q 73 0 57 -93 q 40 -186 40 -281 z"},")":{"ha":355,"x_min":28,"x_max":315,"o":"m 315 -275 l 315 -275 q 315 -183 299 -89 q 282 5 249 91 q 216 176 167 244 l 167 244 l 29 244 q 73 169 104 84 q 134 -1 151 -92 q 168 -184 168 -276 l 168 -276 q 168 -369 152 -459 q 136 -550 105 -636 q 74 -722 28 -800 l 28 -800 l 167 -800 q 217 -728 250 -642 q 282 -556 299 -463 q 315 -370 315 -275 z"},"*":{"ha":555,"x_min":33,"x_max":521,"o":"m 208 -800 l 346 -800 l 326 -624 l 504 -674 l 521 -541 l 361 -531 l 467 -390 l 348 -327 l 275 -473 l 211 -327 l 88 -390 l 193 -531 l 33 -543 l 54 -674 l 228 -624 l 208 -800 z"},"+":{"ha":572,"x_min":41,"x_max":530,"o":"m 345 -110 l 226 -110 l 226 -293 l 41 -293 l 41 -412 l 226 -412 l 226 -596 l 345 -596 l 345 -412 l 530 -412 l 530 -293 l 345 -293 l 345 -110 z"},",":{"ha":302,"x_min":31,"x_max":238,"o":"m 80 -130 l 231 -130 l 238 -119 q 229 -83 215 -38 q 201 7 185 52 q 169 97 152 134 l 152 134 l 31 134 q 41 91 50 44 q 59 -3 67 -48 q 75 -93 80 -130 l 80 -130 z"},"-":{"ha":334,"x_min":33,"x_max":301,"o":"m 301 -201 l 33 -201 l 33 -335 l 301 -335 l 301 -201 z"},".":{"ha":297,"x_min":55,"x_max":241,"o":"m 149 13 l 149 13 q 110 13 83 -8 q 55 -29 55 -75 l 55 -75 q 55 -124 83 -143 q 110 -163 149 -163 l 149 -163 q 187 -163 214 -143 q 241 -124 241 -75 l 241 -75 q 241 -29 214 -8 q 187 13 149 13 z"},"/":{"ha":440,"x_min":17,"x_max":423,"o":"m 157 244 l 17 244 l 283 -800 l 423 -800 l 157 244 z"},":":{"ha":297,"x_min":55,"x_max":241,"o":"m 149 13 l 149 13 q 110 13 83 -8 q 55 -29 55 -75 l 55 -75 q 55 -124 83 -143 q 110 -163 149 -163 l 149 -163 q 187 -163 214 -143 q 241 -124 241 -75 l 241 -75 q 241 -29 214 -8 q 187 13 149 13 z m 149 -384 l 149 -384 q 110 -384 83 -404 q 55 -425 55 -471 l 55 -471 q 55 -520 83 -539 q 110 -559 149 -559 l 149 -559 q 187 -559 214 -539 q 241 -520 241 -472 l 241 -472 q 241 -425 214 -404 q 187 -384 149 -384 z"},";":{"ha":302,"x_min":31,"x_max":244,"o":"m 80 -130 l 231 -130 l 238 -119 q 229 -83 215 -38 q 201 7 185 52 q 169 97 152 134 l 152 134 l 31 134 q 41 91 50 44 q 59 -3 67 -48 q 75 -93 80 -130 l 80 -130 z m 152 -384 l 152 -384 q 113 -384 85 -404 q 57 -425 57 -471 l 57 -471 q 57 -520 85 -539 q 113 -559 152 -559 l 152 -559 q 190 -559 217 -539 q 244 -520 244 -472 l 244 -472 q 244 -425 217 -404 q 190 -384 152 -384 z"},"<":{"ha":572,"x_min":41,"x_max":530,"o":"m 530 -223 l 530 -93 l 41 -310 l 41 -386 l 530 -631 l 530 -501 l 210 -353 l 530 -223 z"},"=":{"ha":572,"x_min":41,"x_max":530,"o":"m 530 -187 l 41 -187 l 41 -305 l 530 -305 l 530 -187 z m 530 -400 l 41 -400 l 41 -518 l 530 -518 l 530 -400 z"},">":{"ha":572,"x_min":42,"x_max":531,"o":"m 531 -310 l 42 -93 l 42 -223 l 361 -353 l 42 -501 l 42 -631 l 531 -386 l 531 -310 z"},"?":{"ha":500,"x_min":35,"x_max":477,"o":"m 260 -724 l 260 -724 q 368 -724 423 -673 q 477 -623 477 -545 l 477 -545 q 477 -504 466 -474 q 455 -444 431 -418 q 407 -392 369 -363 l 369 -363 q 341 -341 326 -325 q 311 -310 305 -297 q 299 -284 299 -269 l 299 -269 l 299 -243 l 159 -243 l 159 -279 q 159 -310 168 -335 q 176 -361 195 -384 q 214 -407 248 -431 l 248 -431 q 278 -453 294 -469 q 309 -485 315 -500 q 320 -515 320 -533 l 320 -533 q 320 -562 299 -577 q 277 -592 240 -592 l 240 -592 q 202 -592 166 -581 q 130 -570 91 -549 l 91 -549 l 35 -667 q 87 -695 140 -709 q 193 -724 260 -724 z m 236 13 l 236 13 q 196 13 169 -8 q 142 -29 142 -75 l 142 -75 q 142 -124 169 -143 q 196 -163 236 -163 l 236 -163 q 273 -163 301 -143 q 328 -124 328 -75 l 328 -75 q 328 -29 301 -8 q 273 13 236 13 z"},"[":{"ha":354,"x_min":70,"x_max":318,"o":"m 318 244 l 70 244 l 70 -800 l 318 -800 l 318 -687 l 210 -687 l 210 131 l 318 131 l 318 244 z"},"\\":{"ha":440,"x_min":17,"x_max":423,"o":"m 423 244 l 283 244 l 17 -800 l 157 -800 l 423 244 z"},"]":{"ha":354,"x_min":36,"x_max":284,"o":"m 284 244 l 36 244 l 36 131 l 144 131 l 144 -687 l 36 -687 l 36 -800 l 284 -800 l 284 244 z"},"^":{"ha":601,"x_min":23,"x_max":579,"o":"m 149 -248 l 23 -248 l 247 -716 l 323 -716 l 579 -248 l 449 -248 l 289 -548 l 149 -248 z"},"_":{"ha":412,"x_min":-2,"x_max":414,"o":"m 414 160 l -2 160 l -2 90 l 414 90 l 414 160 z"},"{":{"ha":406,"x_min":24,"x_max":370,"o":"m 370 122 l 370 244 q 277 244 229 225 q 180 205 163 168 q 145 130 145 78 l 145 78 l 145 -128 q 145 -174 116 -193 q 86 -212 24 -213 l 24 -213 l 24 -344 q 86 -346 116 -365 q 145 -384 145 -430 l 145 -430 l 145 -634 q 145 -687 163 -724 q 180 -761 229 -780 q 277 -800 370 -800 l 370 -800 l 370 -678 q 324 -677 306 -660 q 287 -644 287 -605 l 287 -605 l 287 -397 q 287 -346 258 -318 q 229 -291 172 -282 l 172 -282 l 172 -276 q 229 -268 258 -240 q 287 -212 287 -161 l 287 -161 l 287 49 q 287 75 295 91 q 303 107 322 114 q 340 121 370 122 l 370 122 z"},"|":{"ha":551,"x_min":216,"x_max":335,"o":"m 335 244 l 216 244 l 216 -800 l 335 -800 l 335 244 z"},"}":{"ha":406,"x_min":36,"x_max":382,"o":"m 36 -678 l 36 -800 q 130 -800 179 -780 q 227 -761 245 -724 q 262 -687 262 -634 l 262 -634 l 262 -430 q 262 -384 292 -365 q 321 -346 382 -344 l 382 -344 l 382 -213 q 321 -212 292 -193 q 262 -174 262 -128 l 262 -128 l 262 78 q 262 130 245 168 q 227 205 179 225 q 130 244 36 244 l 36 244 l 36 122 q 81 121 100 104 q 118 87 118 49 l 118 49 l 118 -161 q 118 -212 148 -240 q 178 -268 234 -276 l 234 -276 l 234 -282 q 178 -291 148 -318 q 118 -346 118 -397 l 118 -397 l 118 -605 q 118 -631 110 -647 q 102 -663 85 -670 q 67 -678 36 -678 l 36 -678 z"},"~":{"ha":572,"x_min":41,"x_max":530,"o":"m 268 -295 l 268 -295 q 229 -312 204 -317 q 178 -322 157 -322 l 157 -322 q 126 -322 96 -305 q 66 -288 41 -263 l 41 -263 l 41 -388 q 66 -414 98 -427 q 129 -441 168 -441 l 168 -441 q 197 -441 227 -435 q 256 -430 303 -410 l 303 -410 q 341 -394 368 -388 q 395 -383 417 -383 l 417 -383 q 445 -383 475 -400 q 505 -417 530 -442 l 530 -442 l 530 -317 q 505 -291 474 -277 q 442 -264 403 -264 l 403 -264 q 374 -264 345 -270 q 315 -276 268 -295 z"}," ":{"ha":309,"x_min":0,"x_max":0,"o":""},"­":{"ha":334,"x_min":33,"x_max":301,"o":"m 301 -201 l 33 -201 l 33 -335 l 301 -335 l 301 -201 z"},"–":{"ha":500,"x_min":40,"x_max":460,"o":"m 460 -205 l 40 -205 l 40 -333 l 460 -333 l 460 -205 z"},"—":{"ha":1000,"x_min":40,"x_max":960,"o":"m 960 -205 l 40 -205 l 40 -333 l 960 -333 l 960 -205 z"},"‘":{"ha":282,"x_min":38,"x_max":244,"o":"m 196 -537 l 45 -537 l 38 -548 q 47 -584 61 -628 q 75 -673 92 -718 q 108 -764 124 -800 l 124 -800 l 244 -800 q 235 -758 226 -711 q 216 -664 209 -619 q 201 -574 196 -537 l 196 -537 z"},"’":{"ha":282,"x_min":38,"x_max":244,"o":"m 87 -800 l 237 -800 l 244 -789 q 235 -754 221 -709 q 207 -664 191 -619 q 175 -574 158 -537 l 158 -537 l 38 -537 q 45 -568 52 -602 q 59 -637 66 -672 q 72 -707 78 -739 q 83 -772 87 -800 l 87 -800 z"},"“":{"ha":521,"x_min":38,"x_max":483,"o":"m 434 -537 l 283 -537 l 276 -548 q 285 -584 299 -628 q 313 -673 330 -718 q 346 -764 362 -800 l 362 -800 l 483 -800 q 474 -758 464 -711 q 454 -664 447 -619 q 439 -574 434 -537 l 434 -537 z m 196 -537 l 45 -537 l 38 -548 q 47 -584 61 -628 q 75 -673 92 -718 q 108 -764 124 -800 l 124 -800 l 244 -800 q 235 -758 226 -711 q 216 -664 209 -619 q 201 -574 196 -537 l 196 -537 z"},"”":{"ha":521,"x_min":38,"x_max":483,"o":"m 325 -800 l 476 -800 l 483 -790 q 474 -754 460 -709 q 446 -664 430 -619 q 414 -574 397 -537 l 397 -537 l 276 -537 q 286 -579 295 -626 q 304 -673 312 -718 q 320 -763 325 -800 l 325 -800 z m 87 -800 l 237 -800 l 244 -790 q 235 -754 221 -709 q 207 -664 191 -619 q 175 -574 158 -537 l 158 -537 l 38 -537 q 45 -568 52 -602 q 59 -637 66 -672 q 72 -707 78 -739 q 83 -772 87 -800 l 87 -800 z"},"…":{"ha":869,"x_min":55,"x_max":815,"o":"m 149 13 l 149 13 q 110 13 83 -8 q 55 -29 55 -75 l 55 -75 q 55 -124 83 -143 q 110 -163 149 -163 l 149 -163 q 187 -163 214 -143 q 241 -124 241 -75 l 241 -75 q 241 -29 214 -8 q 187 13 149 13 z m 436 13 l 436 13 q 397 13 370 -8 q 342 -29 342 -75 l 342 -75 q 342 -124 370 -143 q 397 -163 436 -163 l 436 -163 q 474 -163 501 -143 q 528 -124 528 -75 l 528 -75 q 528 -29 501 -8 q 474 13 436 13 z m 723 13 l 723 13 q 683 13 656 -8 q 628 -29 628 -75 l 628 -75 q 628 -124 656 -143 q 683 -163 723 -163 l 723 -163 q 761 -163 788 -143 q 815 -124 815 -75 l 815 -75 q 815 -29 788 -8 q 761 13 723 13 z"},"×":{"ha":572,"x_min":58,"x_max":513,"o":"m 284 -435 l 431 -580 l 513 -498 l 366 -353 l 512 -207 l 431 -125 l 284 -271 l 140 -126 l 58 -208 l 203 -353 l 58 -497 l 140 -580 l 284 -435 z"},"÷":{"ha":572,"x_min":41,"x_max":530,"o":"m 530 -293 l 41 -293 l 41 -412 l 530 -412 l 530 -293 z m 285 -95 l 285 -95 q 256 -95 235 -113 q 213 -132 213 -173 l 213 -173 q 213 -217 235 -234 q 256 -251 285 -251 l 285 -251 q 313 -251 335 -234 q 357 -217 357 -173 l 357 -173 q 357 -132 335 -113 q 313 -95 285 -95 z m 285 -454 l 285 -454 q 256 -454 235 -472 q 213 -491 213 -532 l 213 -532 q 213 -576 235 -593 q 256 -610 285 -610 l 285 -610 q 313 -610 335 -593 q 357 -576 357 -532 l 357 -532 q 357 -491 335 -472 q 313 -454 285 -454 z"},"−":{"ha":572,"x_min":41,"x_max":530,"o":"m 530 -293 l 41 -293 l 41 -412 l 530 -412 l 530 -293 z"},"₹":{"ha":572,"x_min":49,"x_max":528,"o":"m 414 0 l 222 0 l 49 -245 l 69 -352 l 99 -352 q 141 -352 163 -358 q 184 -365 197 -379 l 197 -379 q 212 -394 219 -418 q 226 -442 226 -479 l 226 -479 q 226 -515 219 -540 q 211 -565 194 -579 l 194 -579 q 182 -591 164 -595 q 145 -600 115 -600 l 115 -600 l 49 -600 l 49 -714 l 528 -714 l 528 -600 l 333 -600 q 354 -583 368 -550 q 382 -518 382 -472 l 382 -472 q 382 -411 363 -367 q 344 -324 305 -295 q 265 -267 202 -252 l 202 -252 l 205 -273 l 414 0 z m 528 -421 l 49 -421 l 49 -535 l 528 -535 l 528 -421 z"},"꠰":{"ha":296,"x_min":65,"x_max":231,"o":"m 65 0 l 65 -565 l 231 -565 l 231 0 l 65 0 z"},"꠱":{"ha":528,"x_min":65,"x_max":463,"o":"m 65 0 l 65 -565 l 229 -565 l 229 0 l 65 0 z m 299 0 l 299 -565 l 463 -565 l 463 0 l 299 0 z"},"꠲":{"ha":760,"x_min":65,"x_max":695,"o":"m 65 0 l 65 -565 l 228 -565 l 228 0 l 65 0 z m 299 0 l 299 -565 l 462 -565 l 462 0 l 299 0 z m 532 0 l 532 -565 l 695 -565 l 695 0 l 532 0 z"},"॑":{"ha":0,"x_min":-332,"x_max":-224,"o":"m -332 -651 l -332 -864 l -224 -864 l -224 -651 l -332 -651 z"},"॒":{"ha":0,"x_min":-524,"x_max":-33,"o":"m -33 90 l -33 188 l -524 188 l -524 90 l -33 90 z"},"।":{"ha":392,"x_min":149,"x_max":317,"o":"m 317 49 l 149 49 l 149 -606 l 317 -606 l 317 49 z"},"॥":{"ha":693,"x_min":148,"x_max":618,"o":"m 618 49 l 450 49 l 450 -606 l 618 -606 l 618 49 z m 316 49 l 148 49 l 148 -606 l 316 -606 l 316 49 z"},"᳚":{"ha":0,"x_min":-400,"x_max":-155,"o":"m -400 -651 l -400 -864 l -303 -864 l -303 -651 l -400 -651 z m -252 -651 l -252 -864 l -155 -864 l -155 -651 l -252 -651 z"},"̇":{"ha":0,"x_min":-365,"x_max":-191,"o":"m -365 -701 l -365 -701 q -365 -745 -339 -761 q -314 -777 -278 -777 l -278 -777 q -242 -777 -216 -761 q -191 -745 -191 -701 l -191 -701 q -191 -656 -216 -640 q -242 -624 -278 -624 l -278 -624 q -314 -624 -339 -640 q -365 -656 -365 -701 z"},"̣":{"ha":0,"x_min":-365,"x_max":-191,"o":"m -365 136 l -365 136 q -365 91 -340 76 q -315 60 -278 60 l -278 60 q -243 60 -217 76 q -191 91 -191 136 l -191 136 q -191 180 -217 197 q -243 213 -278 213 l -278 213 q -315 213 -340 197 q -365 180 -365 136 z"},"‐":{"ha":334,"x_min":33,"x_max":301,"o":"m 301 -201 l 33 -201 l 33 -335 l 301 -335 l 301 -201 z"},"​":{"ha":0,"x_min":0,"x_max":0,"o":""},"‌":{"ha":0,"x_min":0,"x_max":0,"o":""},"‍":{"ha":0,"x_min":-161,"x_max":161,"o":"m 29 244 l -29 244 l -29 -565 l -121 -474 l -161 -514 l -40 -631 l -161 -748 l -121 -788 l 0 -669 l 121 -788 l 161 -748 l 40 -631 l 161 -514 l 121 -474 l 29 -565 l 29 244 z"},"◌":{"ha":562,"x_min":58,"x_max":505,"o":"m 90 -231 l 90 -231 q 58 -231 58 -264 l 58 -264 q 58 -295 90 -295 l 90 -295 q 122 -295 122 -264 l 122 -264 q 122 -231 90 -231 z m 139 -95 l 139 -95 q 107 -95 107 -127 l 107 -127 q 107 -158 139 -158 l 139 -158 q 170 -158 170 -127 l 170 -127 q 170 -95 139 -95 z m 282 -40 l 282 -40 q 250 -40 250 -72 l 250 -72 q 250 -104 282 -104 l 282 -104 q 313 -104 313 -72 l 313 -72 q 313 -40 282 -40 z m 139 -369 l 139 -369 q 107 -369 107 -401 l 107 -401 q 107 -432 139 -432 l 139 -432 q 170 -432 170 -401 l 170 -401 q 170 -369 139 -369 z m 424 -95 l 424 -95 q 392 -95 392 -127 l 392 -127 q 392 -158 424 -158 l 424 -158 q 456 -158 456 -127 l 456 -127 q 456 -95 424 -95 z m 282 -424 l 282 -424 q 250 -424 250 -456 l 250 -456 q 250 -487 282 -487 l 282 -487 q 313 -487 313 -456 l 313 -456 q 313 -424 282 -424 z m 473 -231 l 473 -231 q 442 -231 442 -264 l 442 -264 q 442 -295 473 -295 l 473 -295 q 505 -295 505 -264 l 505 -264 q 505 -231 473 -231 z m 424 -369 l 424 -369 q 392 -369 392 -401 l 392 -401 q 392 -432 424 -432 l 424 -432 q 456 -432 456 -401 l 456 -401 q 456 -369 424 -369 z"},"«":{"ha":645,"x_min":38,"x_max":607,"o":"m 38 -270 l 38 -283 l 223 -512 l 344 -447 l 210 -277 l 344 -107 l 223 -43 l 38 -270 z m 301 -270 l 301 -283 l 486 -512 l 607 -447 l 472 -277 l 607 -107 l 486 -43 l 301 -270 z"},"»":{"ha":645,"x_min":39,"x_max":607,"o":"m 607 -283 l 607 -270 l 423 -43 l 301 -107 l 436 -277 l 301 -447 l 423 -512 l 607 -283 z m 345 -283 l 345 -270 l 160 -43 l 39 -107 l 173 -277 l 39 -447 l 160 -512 l 345 -283 z"},"̈":{"ha":0,"x_min":-183,"x_max":183,"o":"m -183 -688 l -183 -688 q -183 -725 -161 -742 q -140 -759 -109 -759 l -109 -759 q -78 -759 -55 -742 q -33 -725 -33 -688 l -33 -688 q -33 -652 -55 -635 q -78 -618 -109 -618 l -109 -618 q -140 -618 -161 -635 q -183 -652 -183 -688 z m 31 -688 l 31 -688 q 31 -725 53 -742 q 74 -759 106 -759 l 106 -759 q 137 -759 160 -742 q 182 -725 182 -688 l 182 -688 q 182 -652 160 -635 q 137 -618 107 -618 l 107 -618 q 75 -618 53 -635 q 31 -652 31 -688 z"},"̀":{"ha":0,"x_min":-543,"x_max":-236,"o":"m -543 -766 l -356 -766 q -340 -744 -318 -716 q -296 -689 -273 -663 q -251 -638 -235 -619 l -235 -619 l -235 -606 l -347 -606 q -367 -619 -393 -638 q -420 -658 -448 -680 q -477 -702 -502 -722 q -527 -742 -543 -756 l -543 -756 l -543 -766 z"},"́":{"ha":0,"x_min":-357,"x_max":-49,"o":"m -49 -766 l -49 -756 q -65 -742 -90 -722 q -115 -702 -143 -680 q -172 -658 -199 -638 q -226 -619 -245 -606 l -245 -606 l -357 -606 l -357 -619 q -341 -638 -318 -663 q -295 -689 -272 -716 q -250 -744 -236 -766 l -236 -766 l -49 -766 z"},"̋":{"ha":0,"x_min":-165,"x_max":304,"o":"m 305 -766 l 305 -756 q 297 -743 277 -723 q 256 -703 230 -681 q 203 -659 177 -639 q 151 -620 132 -606 l 132 -606 l 44 -606 l 44 -619 q 58 -638 77 -664 q 95 -690 113 -717 q 130 -744 142 -766 l 142 -766 l 305 -766 z m 95 -766 l 95 -756 q 87 -743 67 -723 q 47 -703 20 -681 q -7 -659 -32 -639 q -58 -620 -77 -606 l -77 -606 l -165 -606 l -165 -619 q -151 -638 -133 -664 q -115 -690 -97 -717 q -80 -744 -67 -766 l -67 -766 l 95 -766 z"},"̄":{"ha":0,"x_min":-171,"x_max":171,"o":"m -171 -715 l 171 -715 l 171 -606 l -171 -606 l -171 -715 z"},"˙":{"ha":261,"x_min":40,"x_max":221,"o":"m 130 -767 l 130 -767 q 167 -767 194 -751 q 221 -735 221 -689 l 221 -689 q 221 -644 194 -627 q 167 -611 130 -611 l 130 -611 q 93 -611 67 -627 q 40 -644 40 -689 l 40 -689 q 40 -735 67 -751 q 93 -767 130 -767 z"},"°":{"ha":425,"x_min":35,"x_max":389,"o":"m 213 -377 l 213 -377 q 161 -377 121 -399 q 81 -421 58 -460 q 35 -499 35 -550 l 35 -550 q 35 -600 58 -639 q 81 -679 121 -701 q 161 -724 213 -724 l 213 -724 q 265 -724 305 -701 q 344 -679 367 -640 q 389 -601 389 -550 l 389 -550 q 389 -499 367 -460 q 344 -421 305 -399 q 265 -377 213 -377 z m 213 -481 l 213 -481 q 243 -481 263 -500 q 283 -519 283 -550 l 283 -550 q 283 -583 263 -602 q 243 -621 213 -621 l 213 -621 q 183 -621 163 -602 q 142 -583 142 -550 l 142 -550 q 142 -519 163 -500 q 183 -481 213 -481 z"},"A":{"ha":707,"x_min":0,"x_max":707,"o":"m 707 0 l 521 0 l 477 -153 l 230 -153 l 186 0 l 0 0 l 243 -717 l 461 -717 l 707 0 z m 439 -295 l 397 -438 q 392 -456 384 -486 q 375 -517 367 -549 q 358 -581 353 -603 l 353 -603 q 349 -581 341 -548 q 332 -516 324 -485 q 316 -455 311 -438 l 311 -438 l 269 -295 l 439 -295 z"}}}
